<svg width="504" height="708" viewBox="0 0 504 708" fill="none" xmlns="http://www.w3.org/2000/svg"><g filter="url(#unirep-features__a)"><g clip-path="url(#unirep-features__b)"><path fill="url(#unirep-features__c)" d="M4 0h496v700H4z"/><path opacity=".5" d="M225.582 428.546c-8.053-23.264 5.091-48.933 29.359-57.334 24.269-8.401 50.47 3.646 58.524 26.91l20.094 58.045-87.882 30.424-20.095-58.045Z" fill="url(#unirep-features__d)"/><circle cx="209.5" cy="290.5" r="44.5" fill="url(#unirep-features__e)"/><path d="m298.529 436.774 3.162 4.836 29.089-138.879-4.837 3.161-27.414 130.882Z" fill="#D9EFF1" stroke="#4A6F71"/><path d="m297.671 437.316 3.179 4.841-139.494-29.218 4.854-3.158 131.461 27.535Z" fill="#83B5B8" stroke="#4A6F71"/><path d="m325.375 305.051 4.854-3.158-139.494-29.217 3.179 4.84 131.461 27.535Z" fill="#B3E0E2" stroke="#4A6F71"/><path d="m165.642 408.94-4.837 3.161 29.089-138.879 3.161 4.837-27.413 130.881Z" fill="#10292A" stroke="#4A6F71"/><mask id="unirep-features__g" fill="#fff"><path fill-rule="evenodd" clip-rule="evenodd" d="m351.082 288.863-174.219-36.491-36.491 174.22 174.219 36.49 36.491-174.219Zm-20.318 13.281-140.62-29.453-29.453 140.62 140.619 29.453 29.454-140.62Z"/></mask><path fill-rule="evenodd" clip-rule="evenodd" d="m351.082 288.863-174.219-36.491-36.491 174.22 174.219 36.49 36.491-174.219Zm-20.318 13.281-140.62-29.453-29.453 140.62 140.619 29.453 29.454-140.62Z" fill="url(#unirep-features__f)"/><path d="m176.863 252.372.205-.979-.979-.205-.205.979.979.205Zm174.219 36.491.979.205.205-.979-.979-.205-.205.979Zm-210.71 137.729-.979-.205-.205.978.979.205.205-.978Zm174.219 36.49-.205.979.979.205.205-.979-.979-.205ZM190.144 272.691l.205-.979-.979-.205-.205.979.979.205Zm140.62 29.453.979.205.205-.979-.979-.205-.205.979ZM160.691 413.311l-.979-.205-.205.978.979.205.205-.978Zm140.619 29.453-.205.979.979.205.205-.979-.979-.205ZM176.658 253.351l174.219 36.491.41-1.958-174.219-36.491-.41 1.958Zm-35.307 173.446 36.491-174.22-1.958-.41-36.491 174.22 1.958.41Zm173.445 35.307-174.219-36.491-.41 1.957 174.219 36.491.41-1.957Zm35.308-173.446-36.491 174.219 1.957.41 36.491-174.219-1.957-.41Zm-160.165-14.989 140.62 29.454.41-1.958-140.62-29.453-.41 1.957Zm-28.27 139.847 29.454-140.62-1.958-.41-29.453 140.62 1.957.41Zm139.846 28.269-140.619-29.453-.41 1.957 140.619 29.454.41-1.958Zm28.27-139.846-29.453 140.62 1.957.41 29.454-140.62-1.958-.41Z" fill="#4A6F71" mask="url(#unirep-features__g)"/><path stroke="#4A6F71" d="m193.974 278.55 130.93 27.424-27.294 130.308-130.93-27.424z"/><path d="m310.863 455.449 4.09 6.257L351.022 289.5l-6.257 4.09-33.902 161.859Z" fill="#D9EFF1" stroke="#4A6F71"/><path d="m309.999 455.99 4.113 6.262-172.968-36.229 6.28-4.085 162.575 34.052Z" fill="#83B5B8" stroke="#4A6F71"/><path d="m344.191 292.747 6.28-4.085-172.968-36.229 4.113 6.262 162.575 34.052Z" fill="#B3E0E2" stroke="#4A6F71"/><path d="m146.851 421.096-6.257 4.09 36.069-172.206 4.09 6.257-33.902 161.859Z" fill="#10292A" stroke="#4A6F71"/><mask id="unirep-features__i" fill="#fff"><path fill-rule="evenodd" clip-rule="evenodd" d="m375.941 272.614-215.327-45.101-45.101 215.327 215.327 45.101 45.101-215.327Zm-25.112 16.415-173.8-36.403-36.403 173.8 173.8 36.403 36.403-173.8Z"/></mask><path fill-rule="evenodd" clip-rule="evenodd" d="m375.941 272.614-215.327-45.101-45.101 215.327 215.327 45.101 45.101-215.327Zm-25.112 16.415-173.8-36.403-36.403 173.8 173.8 36.403 36.403-173.8Z" fill="url(#unirep-features__h)"/><path d="m160.614 227.513.205-.979-.979-.205-.205.979.979.205Zm215.327 45.101.979.205.205-.979-.979-.205-.205.979ZM115.513 442.84l-.979-.205-.205.979.979.205.205-.979Zm215.327 45.101-.205.979.979.205.205-.979-.979-.205ZM177.029 252.626l.205-.979-.979-.205-.205.979.979.205Zm173.8 36.403.978.205.205-.979-.978-.205-.205.979ZM140.626 426.426l-.979-.205-.205.978.979.206.205-.979Zm173.8 36.403-.205.979.978.205.205-.979-.978-.205ZM160.409 228.492l215.327 45.101.41-1.958-215.327-45.101-.41 1.958Zm-43.917 214.553 45.101-215.327-1.958-.41-45.101 215.327 1.958.41Zm214.553 43.918-215.327-45.101-.41 1.957 215.327 45.101.41-1.957Zm43.918-214.554-45.101 215.327 1.957.41 45.101-215.327-1.957-.41Zm-198.139-18.804 173.8 36.403.41-1.958-173.8-36.403-.41 1.958Zm-35.22 173.026 36.403-173.8-1.957-.41-36.403 173.8 1.957.41Zm173.027 35.219-173.8-36.403-.41 1.958 173.8 36.403.41-1.958Zm35.219-173.026-36.403 173.8 1.957.41 36.403-173.8-1.957-.41Z" fill="#4A6F71" mask="url(#unirep-features__i)"/><path stroke="#4A6F71" d="m181.671 259.728 162.054 33.943-33.782 161.286-162.055-33.943z"/><path d="m328.482 482.127 5.416 8.287 46.042-219.816-8.287 5.416-43.171 206.113Z" fill="#D9EFF1" stroke="#4A6F71"/><path d="m327.611 482.668 5.447 8.292-220.787-46.244 8.316-5.41 207.024 43.362Z" fill="#83B5B8" stroke="#4A6F71"/><path d="m371.072 275.17 8.317-5.41-220.787-46.244 5.446 8.292 207.024 43.362Z" fill="#B3E0E2" stroke="#4A6F71"/><path d="m120.006 438.461-8.286 5.417 46.041-219.816 5.416 8.286-43.171 206.113Z" fill="#10292A" stroke="#4A6F71"/><mask id="unirep-features__k" fill="#fff"><path fill-rule="evenodd" clip-rule="evenodd" d="M411.454 249.401 137.401 192 80 466.053l274.053 57.401 57.401-274.053Zm-31.961 20.892-221.2-46.331-46.331 221.2 221.2 46.331 46.331-221.2Z"/></mask><path fill-rule="evenodd" clip-rule="evenodd" d="M411.454 249.401 137.401 192 80 466.053l274.053 57.401 57.401-274.053Zm-31.961 20.892-221.2-46.331-46.331 221.2 221.2 46.331 46.331-221.2Z" fill="url(#unirep-features__j)"/><path d="m137.401 192 .205-.979-.978-.205-.205.979.978.205Zm274.053 57.401.979.205.205-.978-.979-.205-.205.978ZM80 466.053l-.979-.205-.205.979.979.205.205-.979Zm274.053 57.401-.205.979.979.205.205-.979-.979-.205Zm-195.76-299.492.205-.979-.979-.205-.205.979.979.205Zm221.2 46.331.978.205.206-.979-.979-.205-.205.979ZM111.962 445.162l-.979-.205-.205.978.979.205.205-.978Zm221.2 46.331-.205.979.978.205.205-.979-.978-.205ZM137.196 192.979l274.053 57.401.41-1.957-274.053-57.402-.41 1.958ZM80.979 466.258l57.401-274.053-1.957-.41-57.402 274.053 1.958.41Zm273.279 56.218L80.205 465.074l-.41 1.958 274.053 57.401.41-1.957Zm56.218-273.28-57.402 274.053 1.958.41 57.401-274.053-1.957-.41ZM158.088 224.94l221.2 46.332.41-1.958-221.2-46.331-.41 1.957ZM112.94 445.367l46.332-221.2-1.958-.41-46.331 221.2 1.957.41Zm220.427 45.147-221.2-46.331-.41 1.957 221.2 46.332.41-1.958Zm45.147-220.426-46.331 221.2 1.957.41 46.331-221.2-1.957-.41Z" fill="#4A6F71" mask="url(#unirep-features__k)"/><path stroke="#4A6F71" d="m164.096 232.84 206.518 43.257-43.051 205.54-206.519-43.257z"/><path d="M507 684 354 523l3.23-15.5L402.976 288 411 249.5l49-28.328L507 194v490Z" fill="url(#unirep-features__l)"/><path d="M402.976 288 411 249.5l49-28.328M402.976 288l52.012-28.25M402.976 288 357.23 507.5M507 231.5V194l-47 27.172m47 10.328-52.012 28.25M507 231.5v430m-52.012-401.75L460 221.172M357.23 507.5 354 523l153 161v-22.5m-149.77-154L507 661.5" stroke="#2D4C4D"/><path d="M431.993 406.03c2.128-29.405 11.581-55.458 25.116-73.81 13.541-18.358 31.115-28.951 49.503-27.621 18.388 1.331 34.254 14.344 45.01 34.461 10.752 20.109 16.355 47.251 14.227 76.656-2.128 29.405-11.58 55.458-25.116 73.81-13.54 18.358-31.114 28.951-49.502 27.62-18.388-1.33-34.254-14.344-45.01-34.46-10.753-20.109-16.356-47.252-14.228-76.656Z" fill="url(#unirep-features__m)" stroke="#2D4C4D"/><mask id="unirep-features__n" fill="#fff"><path fill-rule="evenodd" clip-rule="evenodd" d="M505.063 516.429c-30.704-11.424-51.315-56.672-47.529-108.989 3.729-51.531 29.894-92.867 61.285-100.677 30.703 11.424 51.315 56.673 47.529 108.99-3.729 51.53-29.894 92.866-61.285 100.676Z"/></mask><path fill-rule="evenodd" clip-rule="evenodd" d="M505.063 516.429c-30.704-11.424-51.315-56.672-47.529-108.989 3.729-51.531 29.894-92.867 61.285-100.677 30.703 11.424 51.315 56.673 47.529 108.99-3.729 51.53-29.894 92.866-61.285 100.676Z" fill="#0C1820"/><path d="m505.063 516.429-.349.937.29.108.3-.074-.241-.971Zm13.756-209.666.349-.937-.29-.108-.3.075.241.97Zm-13.408 208.729c-15.015-5.587-27.681-19.499-36.132-38.627-8.444-19.113-12.63-43.339-10.748-69.353l-1.995-.144c-1.903 26.302 2.323 50.859 10.914 70.305 8.584 19.431 21.576 33.856 37.264 39.693l.697-1.874Zm-46.88-107.98c1.854-25.623 9.286-48.681 20.123-66.282 10.847-17.613 25.047-29.675 40.406-33.496l-.482-1.941c-16.032 3.988-30.61 16.499-41.627 34.389-11.024 17.903-18.54 41.278-20.415 67.186l1.995.144ZM518.47 307.7c15.016 5.587 27.682 19.499 36.132 38.627 8.444 19.114 12.631 43.339 10.749 69.353l1.994.145c1.904-26.303-2.322-50.86-10.913-70.306-8.585-19.431-21.576-33.856-37.264-39.693l-.698 1.874Zm46.881 107.98c-1.855 25.624-9.286 48.682-20.124 66.282-10.846 17.613-25.046 29.676-40.406 33.497l.483 1.941c16.032-3.989 30.61-16.5 41.626-34.389 11.025-17.904 18.541-41.279 20.415-67.186l-1.994-.145Z" fill="#4A696A" mask="url(#unirep-features__n)"/><mask id="unirep-features__o" fill="#fff"><path fill-rule="evenodd" clip-rule="evenodd" d="M505.063 516.429c-30.704-11.424-51.315-56.672-47.529-108.989 3.729-51.531 29.894-92.867 61.285-100.677 30.703 11.424 51.315 56.673 47.529 108.99-3.729 51.53-29.894 92.866-61.285 100.676Z"/></mask><path fill-rule="evenodd" clip-rule="evenodd" d="M505.063 516.429c-30.704-11.424-51.315-56.672-47.529-108.989 3.729-51.531 29.894-92.867 61.285-100.677 30.703 11.424 51.315 56.673 47.529 108.99-3.729 51.53-29.894 92.866-61.285 100.676Z" fill="#10292A"/><path d="m505.063 516.429-.349.937.29.108.3-.074-.241-.971Zm13.756-209.666.349-.937-.29-.108-.3.075.241.97Zm-13.408 208.729c-15.015-5.587-27.681-19.499-36.132-38.627-8.444-19.113-12.63-43.339-10.748-69.353l-1.995-.144c-1.903 26.302 2.323 50.859 10.914 70.305 8.584 19.431 21.576 33.856 37.264 39.693l.697-1.874Zm-46.88-107.98c1.854-25.623 9.286-48.681 20.123-66.282 10.847-17.613 25.047-29.675 40.406-33.496l-.482-1.941c-16.032 3.988-30.61 16.499-41.627 34.389-11.024 17.903-18.54 41.278-20.415 67.186l1.995.144ZM518.47 307.7c15.016 5.587 27.682 19.499 36.132 38.627 8.444 19.114 12.631 43.339 10.749 69.353l1.994.145c1.904-26.303-2.322-50.86-10.913-70.306-8.585-19.431-21.576-33.856-37.264-39.693l-.698 1.874Zm46.881 107.98c-1.855 25.624-9.286 48.682-20.124 66.282-10.846 17.613-25.046 29.676-40.406 33.497l.483 1.941c16.032-3.989 30.61-16.5 41.626-34.389 11.025-17.904 18.541-41.279 20.415-67.186l-1.994-.145Z" fill="#2D4C4D" mask="url(#unirep-features__o)"/><rect x="421.266" y="372.121" width="63" height="32.099" rx="15" transform="rotate(3.717 421.266 372.121)" fill="#10292A"/><ellipse cx="435.811" cy="344.344" rx="15.713" ry="5.01" transform="rotate(-50.815 435.811 344.344)" fill="#ECF7F8"/><ellipse cx="435.667" cy="344.521" rx="14.119" ry="4.099" transform="rotate(-50.815 435.667 344.521)" fill="url(#unirep-features__p)"/><path d="M445.739 332.165c2.144 1.749-.562 8.619-6.045 15.345-5.483 6.726-11.666 10.762-13.811 9.013l45.539 37.121c2.145 1.749 8.328-2.287 13.811-9.013 5.483-6.727 8.189-13.596 6.045-15.345l-45.539-37.121Z" fill="url(#unirep-features__q)"/><path d="m-15 522 95.5-56.5 57.5-273L-24.5-117l9.5 639Z" fill="url(#unirep-features__r)" stroke="#2D4C4D"/><path d="M294.773 121.19c-44.286-8.952-81.95-28.963-107.047-54.053-25.101-25.094-37.593-55.218-31.686-84.439 5.907-29.22 29.12-52.127 61.997-65.499 32.873-13.37 75.352-17.18 119.638-8.227s81.949 28.964 107.047 54.054c25.101 25.093 37.593 55.217 31.685 84.438-5.907 29.22-29.119 52.127-61.996 65.499-32.873 13.371-75.352 17.18-119.638 8.227Z" fill="url(#unirep-features__s)" stroke="#10292A"/><mask id="unirep-features__t" fill="#fff"><path fill-rule="evenodd" clip-rule="evenodd" d="M477.956 25.22c-23.801 46.802-96.898 71.126-175.626 55.21-77.545-15.675-134.892-65.204-140.182-116.736 23.801-46.804 96.898-71.128 175.626-55.212 77.545 15.676 134.892 65.205 140.182 116.737Z"/></mask><path fill-rule="evenodd" clip-rule="evenodd" d="M477.956 25.22c-23.801 46.802-96.898 71.126-175.626 55.21-77.545-15.675-134.892-65.204-140.182-116.736 23.801-46.804 96.898-71.128 175.626-55.212 77.545 15.676 134.892 65.205 140.182 116.737Z" fill="#0C1820"/><path d="m477.956 25.22.891.453.134-.263-.03-.293-.995.102ZM162.148-36.307l-.891-.454-.134.263.03.293.995-.102Zm314.917 61.072c-11.744 23.093-35.706 40.738-66.629 50.626-30.911 9.885-68.693 11.987-107.908 4.059l-.396 1.96c39.513 7.988 77.644 5.885 108.913-4.114 31.258-9.995 55.745-27.914 67.802-51.624l-1.782-.907ZM302.528 79.451c-38.625-7.808-72.19-24.043-96.74-44.708-24.56-20.672-40.034-45.719-42.645-71.152l-1.99.205c2.68 26.1 18.524 51.583 43.347 72.477 24.831 20.902 58.712 37.27 97.632 45.138l.396-1.96ZM163.039-35.853c11.744-23.093 35.706-40.738 66.629-50.626 30.912-9.885 68.693-11.987 107.908-4.059l.396-1.96c-39.513-7.988-77.644-5.885-108.913 4.114-31.258 9.995-55.745 27.914-67.802 51.624l1.782.907Zm174.537-54.685c38.625 7.808 72.19 24.043 96.741 44.708 24.559 20.672 40.033 45.719 42.644 71.15l1.99-.204c-2.68-26.1-18.524-51.583-43.347-72.477-24.831-20.902-58.712-37.27-97.632-45.138l-.396 1.96Z" fill="#10292A" mask="url(#unirep-features__t)"/><mask id="unirep-features__v" fill="#fff"><path fill-rule="evenodd" clip-rule="evenodd" d="M477.956 25.22c-23.801 46.802-96.898 71.126-175.626 55.21-77.545-15.675-134.892-65.204-140.182-116.736 23.801-46.804 96.898-71.128 175.626-55.212 77.545 15.676 134.892 65.205 140.182 116.737Z"/></mask><path fill-rule="evenodd" clip-rule="evenodd" d="M477.956 25.22c-23.801 46.802-96.898 71.126-175.626 55.21-77.545-15.675-134.892-65.204-140.182-116.736 23.801-46.804 96.898-71.128 175.626-55.212 77.545 15.676 134.892 65.205 140.182 116.737Z" fill="url(#unirep-features__u)"/><path d="m477.956 25.22.891.453.134-.263-.03-.293-.995.102ZM162.148-36.307l-.891-.454-.134.263.03.293.995-.102Zm314.917 61.072c-11.744 23.093-35.706 40.738-66.629 50.626-30.911 9.885-68.693 11.987-107.908 4.059l-.396 1.96c39.513 7.988 77.644 5.885 108.913-4.114 31.258-9.995 55.745-27.914 67.802-51.624l-1.782-.907ZM302.528 79.451c-38.625-7.808-72.19-24.043-96.74-44.708-24.56-20.672-40.034-45.719-42.645-71.152l-1.99.205c2.68 26.1 18.524 51.583 43.347 72.477 24.831 20.902 58.712 37.27 97.632 45.138l.396-1.96ZM163.039-35.853c11.744-23.093 35.706-40.738 66.629-50.626 30.912-9.885 68.693-11.987 107.908-4.059l.396-1.96c-39.513-7.988-77.644-5.885-108.913 4.114-31.258 9.995-55.745 27.914-67.802 51.624l1.782.907Zm174.537-54.685c38.625 7.808 72.19 24.043 96.741 44.708 24.559 20.672 40.033 45.719 42.644 71.15l1.99-.204c-2.68-26.1-18.524-51.583-43.347-72.477-24.831-20.902-58.712-37.27-97.632-45.138l-.396 1.96Z" fill="#10292A" mask="url(#unirep-features__v)"/><path d="M171.022 574.244c46.001 13.996 84.087 38.287 108.483 66.222 24.401 27.941 35.058 59.46 26.385 87.966-8.673 28.507-35.079 48.75-70.907 58.366-35.82 9.614-80.981 8.578-126.981-5.417-46.001-13.996-84.087-38.288-108.483-66.222-24.4-27.941-35.058-59.46-26.385-87.967 8.674-28.506 35.079-48.749 70.907-58.366 35.82-9.614 80.981-8.578 126.981 5.418Z" fill="url(#unirep-features__w)" stroke="#10292A"/><mask id="unirep-features__x" fill="#fff"><path fill-rule="evenodd" clip-rule="evenodd" d="M-30.33 649.25c29.033-44.048 108.212-60.019 189.969-35.145 80.529 24.501 136.91 80.521 138.185 132.61-29.032 44.048-108.211 60.019-189.968 35.144-80.529-24.5-136.91-80.52-138.185-132.609Z"/></mask><path fill-rule="evenodd" clip-rule="evenodd" d="M-30.33 649.25c29.033-44.048 108.212-60.019 189.969-35.145 80.529 24.501 136.91 80.521 138.185 132.61-29.032 44.048-108.211 60.019-189.968 35.144-80.529-24.5-136.91-80.52-138.185-132.609Z" fill="#0C1820"/><path d="m-30.33 649.25-.834-.551-.173.262.008.313 1-.024Zm328.154 97.465.835.55.172-.261-.007-.314-1 .025ZM-29.494 649.8c14.316-21.722 41.08-36.627 74.563-42.986 33.467-6.356 73.536-4.148 114.279 8.248l.582-1.913c-41.015-12.479-81.413-14.723-115.234-8.3-33.803 6.42-61.145 21.524-75.86 43.85l1.67 1.101Zm188.842-34.738c40.13 12.209 74.213 32.265 98.407 55.721 24.207 23.467 38.44 50.261 39.069 75.956l2-.049c-.646-26.393-15.241-53.654-39.676-77.343-24.448-23.702-58.819-43.907-99.218-56.198l-.582 1.913Zm137.641 131.103c-14.317 21.721-41.08 36.626-74.564 42.986-33.466 6.355-73.536 4.147-114.278-8.249l-.582 1.914c41.014 12.479 81.413 14.722 115.233 8.299 33.804-6.419 61.146-21.524 75.861-43.85l-1.67-1.1Zm-188.842 34.737c-40.13-12.209-74.214-32.264-98.408-55.72-24.206-23.468-38.44-50.262-39.069-75.957l-2 .049c.647 26.394 15.242 53.654 39.677 77.344 24.447 23.701 58.819 43.907 99.218 56.198l.582-1.914Z" fill="#10292A" mask="url(#unirep-features__x)"/><mask id="unirep-features__z" fill="#fff"><path fill-rule="evenodd" clip-rule="evenodd" d="M-30.33 649.25c29.033-44.048 108.212-60.019 189.969-35.145 80.529 24.501 136.91 80.521 138.185 132.61-29.032 44.048-108.211 60.019-189.968 35.144-80.529-24.5-136.91-80.52-138.185-132.609Z"/></mask><path fill-rule="evenodd" clip-rule="evenodd" d="M-30.33 649.25c29.033-44.048 108.212-60.019 189.969-35.145 80.529 24.501 136.91 80.521 138.185 132.61-29.032 44.048-108.211 60.019-189.968 35.144-80.529-24.5-136.91-80.52-138.185-132.609Z" fill="url(#unirep-features__y)"/><path d="m-30.33 649.25-.834-.551-.173.262.008.313 1-.024Zm328.154 97.465.835.55.172-.261-.007-.314-1 .025ZM-29.494 649.8c14.316-21.722 41.08-36.627 74.563-42.986 33.467-6.356 73.536-4.148 114.279 8.248l.582-1.913c-41.015-12.479-81.413-14.723-115.234-8.3-33.803 6.42-61.145 21.524-75.86 43.85l1.67 1.101Zm188.842-34.738c40.13 12.209 74.213 32.265 98.407 55.721 24.207 23.467 38.44 50.261 39.069 75.956l2-.049c-.646-26.393-15.241-53.654-39.676-77.343-24.448-23.702-58.819-43.907-99.218-56.198l-.582 1.913Zm137.641 131.103c-14.317 21.721-41.08 36.626-74.564 42.986-33.466 6.355-73.536 4.147-114.278-8.249l-.582 1.914c41.014 12.479 81.413 14.722 115.233 8.299 33.804-6.419 61.146-21.524 75.861-43.85l-1.67-1.1Zm-188.842 34.737c-40.13-12.209-74.214-32.264-98.408-55.72-24.206-23.468-38.44-50.262-39.069-75.957l-2 .049c.647 26.394 15.242 53.654 39.677 77.344 24.447 23.701 58.819 43.907 99.218 56.198l.582-1.914Z" fill="#10292A" mask="url(#unirep-features__z)"/><path d="M73.33 263.276c1.026-25.551-5.579-48.965-17.063-66.164-11.484-17.201-27.821-28.156-46.275-28.898-18.454-.742-35.617 8.868-48.445 25.091-12.827 16.223-21.289 39.032-22.316 64.582-1.026 25.551 5.578 48.965 17.062 66.164 11.485 17.201 27.822 28.156 46.276 28.898 18.453.741 35.617-8.868 48.444-25.091 12.827-16.223 21.29-39.032 22.316-64.582Z" fill="url(#unirep-features__A)" stroke="#2D4C4D"/><mask id="unirep-features__B" fill="#fff"><path fill-rule="evenodd" clip-rule="evenodd" d="M-11.107 350.976c31.742-6.699 57.068-43.603 58.896-89.106 1.802-44.82-19.79-83.152-50.16-93.109-31.743 6.699-57.069 43.603-58.897 89.106-1.801 44.82 19.79 83.152 50.16 93.109Z"/></mask><path fill-rule="evenodd" clip-rule="evenodd" d="M-11.107 350.976c31.742-6.699 57.068-43.603 58.896-89.106 1.802-44.82-19.79-83.152-50.16-93.109-31.743 6.699-57.069 43.603-58.897 89.106-1.801 44.82 19.79 83.152 50.16 93.109Z" fill="#0C1820"/><path d="m-11.107 350.977.206.978-.263.055-.255-.083.312-.95Zm8.735-182.216-.206-.978.263-.056.255.084-.312.95Zm-8.942 181.237c31.123-6.569 56.286-42.919 58.104-88.168l1.999.08c-1.84 45.758-27.328 83.215-59.69 90.045l-.413-1.957ZM46.79 261.83c1.791-44.565-19.685-82.353-49.473-92.119l.623-1.9c30.953 10.148 52.66 49.024 50.849 94.099l-1.999-.08Zm-48.955-92.091c-31.123 6.569-56.286 42.919-58.104 88.169l-1.998-.081c1.838-45.758 27.327-83.214 59.689-90.044l.413 1.956Zm-58.104 88.169c-1.79 44.564 19.685 82.352 49.473 92.118l-.623 1.901c-30.953-10.148-52.66-49.025-50.849-94.1l1.999.081Z" fill="#4A696A" mask="url(#unirep-features__B)"/><mask id="unirep-features__C" fill="#fff"><path fill-rule="evenodd" clip-rule="evenodd" d="M-11.107 350.976c31.742-6.699 57.068-43.603 58.896-89.106 1.802-44.82-19.79-83.152-50.16-93.109-31.743 6.699-57.069 43.603-58.897 89.106-1.801 44.82 19.79 83.152 50.16 93.109Z"/></mask><path fill-rule="evenodd" clip-rule="evenodd" d="M-11.107 350.976c31.742-6.699 57.068-43.603 58.896-89.106 1.802-44.82-19.79-83.152-50.16-93.109-31.743 6.699-57.069 43.603-58.897 89.106-1.801 44.82 19.79 83.152 50.16 93.109Z" fill="#10292A"/><path d="m-11.107 350.977.206.978-.263.055-.255-.083.312-.95Zm8.735-182.216-.206-.978.263-.056.255.084-.312.95Zm-8.942 181.237c31.123-6.569 56.286-42.919 58.104-88.168l1.999.08c-1.84 45.758-27.328 83.215-59.69 90.045l-.413-1.957ZM46.79 261.83c1.791-44.565-19.685-82.353-49.473-92.119l.623-1.9c30.953 10.148 52.66 49.024 50.849 94.099l-1.999-.08Zm-48.955-92.091c-31.123 6.569-56.286 42.919-58.104 88.169l-1.998-.081c1.838-45.758 27.327-83.214 59.689-90.044l.413 1.956Zm-58.104 88.169c-1.79 44.564 19.685 82.352 49.473 92.118l-.623 1.901c-30.953-10.148-52.66-49.025-50.849-94.1l1.999.081Z" fill="#2D4C4D" mask="url(#unirep-features__C)"/><circle cx="8" cy="234" r="16" fill="#FFD0B6"/><ellipse cx="313.665" cy="109.287" rx="13.871" ry="43.197" transform="rotate(48.883 313.665 109.287)" fill="#10292A"/><circle cx="324.439" cy="80.354" r="25.718" transform="rotate(17.818 324.439 80.354)" fill="url(#unirep-features__D)"/><ellipse cx="349.077" cy="621.597" rx="47.129" ry="14.439" transform="rotate(12.902 349.077 621.597)" fill="#10292A"/><circle cx="322.354" cy="599.354" r="25.718" transform="rotate(17.818 322.354 599.354)" fill="url(#unirep-features__E)"/><ellipse cx="92.894" cy="421.636" rx="15.713" ry="5.01" transform="rotate(22.475 92.894 421.636)" fill="#ECF7F8"/><ellipse cx="92.684" cy="421.549" rx="14.119" ry="4.099" transform="rotate(22.475 92.684 421.549)" fill="url(#unirep-features__F)"/><path d="M107.413 427.643c-1.057 2.556-8.415 1.94-16.434-1.378-8.019-3.317-13.662-8.079-12.604-10.636l-22.46 54.29c-1.057 2.556 4.586 7.318 12.604 10.636 8.019 3.317 15.377 3.934 16.435 1.377l22.459-54.289Z" fill="url(#unirep-features__G)"/><ellipse cx="72.932" cy="490.344" rx="21.398" ry="6" transform="rotate(6.389 72.932 490.344)" fill="#10292A"/><path d="M172.5 200 69.5-9" stroke="#4A6F71"/><path d="M26.036 628.096a270.171 270.171 0 0 0-2.524-1.759c.773.205 1.62.814 2.524 1.759 9.284 6.545 25.918 19.012 34.302 28.01 11.516 12.36 13.413 23.886 7.512 25.725-4.722 1.471-14.14.203-18.26-.615-5.125-15.595-16.211-45.444-23.554-53.12Z" fill="url(#unirep-features__H)"/><path d="M104.253 665.85c4.392.987 8.944 6.613 10.67 9.302-10.205-5.666-21.635-5.86-26.877-2.84-5.242 3.021-8.14 16.239-14.499 24.423-6.358 8.184-68.254 18.742-51.132 13.643 17.121-5.099 22.254-14.755 29.108-28.321 6.854-13.566 12.95-18.023 21.355-24.099 8.405-6.077 16.268-3.663 20.378-.483 4.11 3.179 5.507 7.142 10.997 8.375Z" fill="url(#unirep-features__I)"/><path d="M13.615 641.725c-1.05-.4-2.016-.763-2.88-1.081.799.007 1.77.388 2.88 1.081 10.612 4.05 29.81 12.025 40.155 18.674 14.212 9.134 18.895 19.835 13.63 23.074-4.211 2.591-13.652 3.688-17.845 3.912-8.818-13.846-26.93-40.034-35.94-45.66Z" fill="url(#unirep-features__J)"/><path d="M45.62 708.251c6.021-5.586 9.537-16.258 10.543-20.896-3.152 2.636-12.154 9.208-22.952 14.4-10.797 5.192-28.821 4.496-36.484 3.498 3.016.792 10.94 2.772 18.502 4.358 7.562 1.586 16.586 4.487 20.153 5.74.904-.039 4.217-1.514 10.238-7.1Z" fill="url(#unirep-features__K)"/><path d="M405.413-27.343c.73-.854 1.405-1.635 2.012-2.328-.698.389-1.369 1.188-2.012 2.328-7.378 8.636-20.414 24.828-26.314 35.62-8.104 14.822-7.093 26.46-.92 26.782 4.938.259 13.751-3.298 17.54-5.109 1.113-16.377 4.477-48.04 9.694-57.293Z" fill="url(#unirep-features__L)"/><path d="M338.955 28.572c-4.012 2.042-7.032 8.618-8.04 11.651 8.488-8.013 19.515-11.026 25.341-9.395 5.826 1.631 11.902 13.723 20.086 20.081 8.183 6.36 70.768 1.291 52.917.582-17.85-.71-25.211-8.797-35.205-20.248-9.994-11.45-17.001-14.263-26.648-18.073-9.647-3.81-16.669.472-19.866 4.569-3.197 4.096-3.57 8.28-8.585 10.833Z" fill="url(#unirep-features__M)"/><path d="M420.818-17.207a277.63 277.63 0 0 1 2.524-1.76c-.773.205-1.62.815-2.524 1.76-9.282 6.547-25.913 19.02-34.294 28.02-11.513 12.363-13.406 23.89-7.504 25.727 4.721 1.47 14.139.199 18.259-.62 5.121-15.596 16.199-45.448 23.539-53.127Z" fill="url(#unirep-features__N)"/><path d="M406.248 55.166c-7.215-3.925-13.259-13.397-15.38-17.642 3.706 1.775 14.053 5.918 25.799 8.28 11.745 2.362 29.038-2.767 36.216-5.628-2.726 1.513-9.914 5.39-16.85 8.796-6.936 3.406-14.963 8.447-18.109 10.542-.886.186-4.461-.424-11.676-4.348Z" fill="url(#unirep-features__O)"/><path d="M210.5 493 184 578" stroke="#4A6F71"/></g><path stroke="url(#unirep-features__P)" stroke-width="2" d="M5 1h494v698H5z"/></g><defs><linearGradient id="unirep-features__c" x1="-67" y1="788" x2="583" y2="-81.5" gradientUnits="userSpaceOnUse"><stop offset=".068" stop-color="#A2E1E4"/><stop offset=".5" stop-color="#FFD5BD"/><stop offset=".74" stop-color="#FFF8DF"/><stop offset="1" stop-color="#A2E1E4"/></linearGradient><linearGradient id="unirep-features__d" x1="254.941" y1="371.212" x2="289.618" y2="471.379" gradientUnits="userSpaceOnUse"><stop stop-color="#E8FEFF"/><stop offset="1" stop-color="#668B8D" stop-opacity="0"/></linearGradient><linearGradient id="unirep-features__e" x1="209.5" y1="246" x2="209.5" y2="335" gradientUnits="userSpaceOnUse"><stop stop-color="#FF7043"/><stop offset="1" stop-color="#FF7043" stop-opacity="0"/></linearGradient><linearGradient id="unirep-features__f" x1="176.899" y1="252.2" x2="314.041" y2="465.71" gradientUnits="userSpaceOnUse"><stop stop-color="#FFDDBE"/><stop offset=".729" stop-color="#84D8DD"/><stop offset=".896" stop-color="#FFAE95"/></linearGradient><linearGradient id="unirep-features__h" x1="160.659" y1="227.3" x2="330.16" y2="491.189" gradientUnits="userSpaceOnUse"><stop stop-color="#FFDDBE"/><stop offset=".729" stop-color="#84D8DD"/><stop offset=".896" stop-color="#FFAE95"/></linearGradient><linearGradient id="unirep-features__j" x1="137.458" y1="191.729" x2="353.187" y2="527.588" gradientUnits="userSpaceOnUse"><stop stop-color="#FFDDBE"/><stop offset=".729" stop-color="#84D8DD"/><stop offset=".896" stop-color="#FFAE95"/></linearGradient><linearGradient id="unirep-features__l" x1="593.062" y1="194.5" x2="409.915" y2="171.521" gradientUnits="userSpaceOnUse"><stop stop-color="#FFF9C2"/><stop offset="1" stop-color="#FFC0A5"/></linearGradient><linearGradient id="unirep-features__m" x1="491.195" y1="517.645" x2="506.648" y2="304.101" gradientUnits="userSpaceOnUse"><stop stop-color="#FFDBC0"/><stop offset="1" stop-color="#FFD257"/></linearGradient><linearGradient id="unirep-features__p" x1="435.667" y1="340.422" x2="435.667" y2="348.62" gradientUnits="userSpaceOnUse"><stop stop-color="#2D6062"/><stop offset="1"/></linearGradient><linearGradient id="unirep-features__q" x1="434.611" y1="362.756" x2="491.976" y2="374.556" gradientUnits="userSpaceOnUse"><stop stop-color="#FFF7CB"/><stop offset="1" stop-color="#FFD9C9"/></linearGradient><linearGradient id="unirep-features__r" x1="-101.063" y1="521.5" x2="82.085" y2="544.479" gradientUnits="userSpaceOnUse"><stop stop-color="#FFEEDE"/><stop offset="1" stop-color="#FFB899"/></linearGradient><linearGradient id="unirep-features__s" x1="490" y1="27" x2="127" y2="-14.5" gradientUnits="userSpaceOnUse"><stop stop-color="#FEF499"/><stop offset=".505" stop-color="#FFC69E"/><stop offset="1" stop-color="#FEF499"/></linearGradient><linearGradient id="unirep-features__u" x1="414.5" y1="-56" x2="242" y2="51.5" gradientUnits="userSpaceOnUse"><stop stop-color="#9EE9E0"/><stop offset="1" stop-color="#74B7AB"/></linearGradient><linearGradient id="unirep-features__w" x1="35.721" y1="582.328" x2="302.453" y2="735.4" gradientUnits="userSpaceOnUse"><stop stop-color="#4A6F71"/><stop offset="1" stop-color="#1E3637"/></linearGradient><linearGradient id="unirep-features__y" x1="29.851" y1="737.628" x2="214.748" y2="638.436" gradientUnits="userSpaceOnUse"><stop stop-color="#84CDC4"/><stop offset="1" stop-color="#4F8B80"/></linearGradient><linearGradient id="unirep-features__A" x1="2.548" y1="353.449" x2="10.012" y2="167.714" gradientUnits="userSpaceOnUse"><stop stop-color="#FFDBC0"/><stop offset="1" stop-color="#FFD257"/></linearGradient><linearGradient id="unirep-features__F" x1="92.684" y1="417.45" x2="92.684" y2="425.648" gradientUnits="userSpaceOnUse"><stop stop-color="#2D6062"/><stop offset="1"/></linearGradient><linearGradient id="unirep-features__G" x1="74.915" y1="425.78" x2="80.107" y2="484.116" gradientUnits="userSpaceOnUse"><stop stop-color="#FFF7CB"/><stop offset="1" stop-color="#FFD9C9"/></linearGradient><linearGradient id="unirep-features__H" x1="48.128" y1="627.166" x2="46.28" y2="682.004" gradientUnits="userSpaceOnUse"><stop stop-color="#3D5E60"/><stop offset="1" stop-color="#3D5E60" stop-opacity="0"/></linearGradient><linearGradient id="unirep-features__I" x1="100.587" y1="660.776" x2="41.452" y2="710.312" gradientUnits="userSpaceOnUse"><stop stop-color="#3D5E60"/><stop offset="1" stop-color="#3D5E60" stop-opacity="0"/></linearGradient><linearGradient id="unirep-features__J" x1="34.793" y1="635.37" x2="46.542" y2="688.966" gradientUnits="userSpaceOnUse"><stop stop-color="#3D5E60"/><stop offset="1" stop-color="#3D5E60" stop-opacity="0"/></linearGradient><linearGradient id="unirep-features__K" x1="56.475" y1="687.464" x2="20.541" y2="713.616" gradientUnits="userSpaceOnUse"><stop stop-color="#3D5E60"/><stop offset="1" stop-color="#3D5E60" stop-opacity="0"/></linearGradient><linearGradient id="unirep-features__L" x1="383.777" y1="-22.784" x2="399.122" y2="29.896" gradientUnits="userSpaceOnUse"><stop stop-color="#3D5E60"/><stop offset="1" stop-color="#3D5E60" stop-opacity="0"/></linearGradient><linearGradient id="unirep-features__M" x1="341.252" y1="22.749" x2="410.796" y2="56.132" gradientUnits="userSpaceOnUse"><stop stop-color="#3D5E60"/><stop offset="1" stop-color="#3D5E60" stop-opacity="0"/></linearGradient><linearGradient id="unirep-features__N" x1="398.726" y1="-18.13" x2="400.589" y2="36.707" gradientUnits="userSpaceOnUse"><stop stop-color="#3D5E60"/><stop offset="1" stop-color="#3D5E60" stop-opacity="0"/></linearGradient><linearGradient id="unirep-features__O" x1="390.593" y1="37.707" x2="431.875" y2="54.165" gradientUnits="userSpaceOnUse"><stop stop-color="#3D5E60"/><stop offset="1" stop-color="#3D5E60" stop-opacity="0"/></linearGradient><linearGradient id="unirep-features__P" x1="252" y1="0" x2="252" y2="700" gradientUnits="userSpaceOnUse"><stop stop-color="#234345"/><stop offset="1" stop-color="#C2F5F8"/></linearGradient><radialGradient id="unirep-features__D" cx="0" cy="0" r="1" gradientUnits="userSpaceOnUse" gradientTransform="rotate(44.471 68.516 414.282) scale(42.9579)"><stop stop-color="#FFD8CC"/><stop offset="1" stop-color="#EFA38B"/></radialGradient><radialGradient id="unirep-features__E" cx="0" cy="0" r="1" gradientUnits="userSpaceOnUse" gradientTransform="rotate(77.169 -199.007 496.676) scale(40.3344)"><stop stop-color="#FFF1CC"/><stop offset="1" stop-color="#EFD38B"/></radialGradient><clipPath id="unirep-features__b"><path fill="#fff" d="M4 0h496v700H4z"/></clipPath><filter id="unirep-features__a" x="0" y="0" width="504" height="708" filterUnits="userSpaceOnUse" color-interpolation-filters="sRGB"><feFlood flood-opacity="0" result="BackgroundImageFix"/><feColorMatrix in="SourceAlpha" values="0 0 0 0 0 0 0 0 0 0 0 0 0 0 0 0 0 0 127 0" result="hardAlpha"/><feOffset dy="4"/><feGaussianBlur stdDeviation="2"/><feComposite in2="hardAlpha" operator="out"/><feColorMatrix values="0 0 0 0 0 0 0 0 0 0 0 0 0 0 0 0 0 0 0.25 0"/><feBlend in2="BackgroundImageFix" result="effect1_dropShadow_374_574"/><feBlend in="SourceGraphic" in2="effect1_dropShadow_374_574" result="shape"/></filter></defs></svg>