<svg width="463" height="700" viewBox="0 0 463 700" fill="none" xmlns="http://www.w3.org/2000/svg">
<g clip-path="url(#clip0_2509_3634)">
<rect width="462.549" height="700" fill="white"/>
<g clip-path="url(#clip1_2509_3634)">
<rect width="1257.71" height="707.463" transform="translate(-390.948)" fill="#C6E8E9"/>
<g clip-path="url(#clip2_2509_3634)">
<rect x="750.473" y="-2.60156" width="710.065" height="1002.35" transform="rotate(90 750.473 -2.60156)" fill="url(#paint0_linear_2509_3634)"/>
<ellipse cx="334.495" cy="291.589" rx="63.7054" ry="63.7211" transform="rotate(90 334.495 291.589)" fill="url(#paint1_linear_2509_3634)"/>
<path d="M124.948 418.555L116.939 423.789L317.968 465.885L312.733 457.878L124.948 418.555Z" fill="#D6996D" stroke="#4A6F71" stroke-width="0.516411"/>
<path d="M124.671 418.091L116.656 423.354L158.948 221.487L164.177 229.524L124.671 418.091Z" fill="#83B5B8" stroke="#4A6F71" stroke-width="0.516411"/>
<path d="M313.171 457.563L318.4 465.6L360.692 263.733L352.677 268.996L313.171 457.563Z" fill="#EB2D02" stroke="#4A6F71" stroke-width="0.516411"/>
<path d="M164.616 229.21L159.381 221.203L360.41 263.299L352.401 268.533L164.616 229.21Z" fill="#10292A" stroke="#4A6F71" stroke-width="0.516411"/>
<mask id="path-8-inside-1_2509_3634" fill="white">
<path fill-rule="evenodd" clip-rule="evenodd" d="M336.837 494.277L389.09 244.867L139.619 192.627L87.3665 442.037L336.837 494.277ZM317.82 465.19L359.996 263.88L158.637 221.716L116.462 423.025L317.82 465.19Z"/>
</mask>
<path fill-rule="evenodd" clip-rule="evenodd" d="M336.837 494.277L389.09 244.867L139.619 192.627L87.3665 442.037L336.837 494.277ZM317.82 465.19L359.996 263.88L158.637 221.716L116.462 423.025L317.82 465.19Z" fill="url(#paint2_linear_2509_3634)"/>
<path d="M389.09 244.867L389.595 244.973L389.701 244.468L389.196 244.362L389.09 244.867ZM336.837 494.277L336.731 494.782L337.237 494.888L337.343 494.383L336.837 494.277ZM139.619 192.627L139.725 192.122L139.22 192.016L139.114 192.522L139.619 192.627ZM87.3665 442.037L86.8611 441.931L86.7552 442.437L87.2607 442.543L87.3665 442.037ZM359.996 263.88L360.501 263.986L360.607 263.481L360.101 263.375L359.996 263.88ZM317.82 465.19L317.714 465.695L318.22 465.801L318.326 465.296L317.82 465.19ZM158.637 221.716L158.743 221.21L158.237 221.104L158.132 221.61L158.637 221.716ZM116.462 423.025L115.956 422.919L115.85 423.424L116.356 423.53L116.462 423.025ZM388.584 244.761L336.332 494.171L337.343 494.383L389.595 244.973L388.584 244.761ZM139.513 193.133L388.984 245.373L389.196 244.362L139.725 192.122L139.513 193.133ZM87.872 442.143L140.125 192.733L139.114 192.522L86.8611 441.931L87.872 442.143ZM336.943 493.771L87.4724 441.532L87.2607 442.543L336.731 494.782L336.943 493.771ZM359.49 263.775L317.315 465.084L318.326 465.296L360.501 263.986L359.49 263.775ZM158.531 222.221L359.89 264.386L360.101 263.375L158.743 221.21L158.531 222.221ZM116.967 423.131L159.142 221.821L158.132 221.61L115.956 422.919L116.967 423.131ZM317.926 464.684L116.568 422.519L116.356 423.53L317.714 465.695L317.926 464.684Z" fill="#4A6F71" mask="url(#path-8-inside-1_2509_3634)"/>
<rect x="-0.30567" y="0.199798" width="192.422" height="191.555" transform="matrix(-0.205053 0.978751 -0.978771 -0.204957 352.28 269.348)" stroke="#4A6F71" stroke-width="0.516411"/>
<path d="M98.2078 436.211L88.1645 442.774L336.915 494.863L330.351 484.822L98.2078 436.211Z" fill="#E0AF8B" stroke="#4A6F71" stroke-width="0.516411"/>
<path d="M97.9338 435.739L87.8827 442.339L140.214 192.552L146.771 202.629L97.9338 435.739Z" fill="#83B5B8" stroke="#4A6F71" stroke-width="0.516411"/>
<path d="M330.791 484.5L337.348 494.578L389.68 244.79L379.629 251.39L330.791 484.5Z" fill="#F0530C" stroke="#4A6F71" stroke-width="0.516411"/>
<path d="M147.211 202.308L140.647 192.267L389.397 244.356L379.354 250.919L147.211 202.308Z" fill="#10292A" stroke="#4A6F71" stroke-width="0.516411"/>
<mask id="path-15-inside-2_2509_3634" fill="white">
<path fill-rule="evenodd" clip-rule="evenodd" d="M360.107 529.863L424.688 221.604L116.354 157.038L51.772 465.297L360.107 529.863ZM336.603 493.911L388.729 245.102L139.859 192.988L87.7326 441.797L336.603 493.911Z"/>
</mask>
<path fill-rule="evenodd" clip-rule="evenodd" d="M360.107 529.863L424.688 221.604L116.354 157.038L51.772 465.297L360.107 529.863ZM336.603 493.911L388.729 245.102L139.859 192.988L87.7326 441.797L336.603 493.911Z" fill="url(#paint3_linear_2509_3634)"/>
<path d="M424.688 221.604L425.194 221.709L425.3 221.204L424.794 221.098L424.688 221.604ZM360.107 529.863L360.001 530.368L360.506 530.474L360.612 529.969L360.107 529.863ZM116.354 157.038L116.46 156.532L115.954 156.426L115.848 156.932L116.354 157.038ZM51.772 465.297L51.2665 465.191L51.1606 465.696L51.6661 465.802L51.772 465.297ZM388.729 245.102L389.235 245.208L389.341 244.703L388.835 244.597L388.729 245.102ZM336.603 493.911L336.497 494.417L337.002 494.523L337.108 494.017L336.603 493.911ZM139.859 192.988L139.965 192.483L139.46 192.377L139.354 192.883L139.859 192.988ZM87.7326 441.797L87.2271 441.692L87.1212 442.197L87.6267 442.303L87.7326 441.797ZM424.183 221.498L359.601 529.757L360.612 529.969L425.194 221.709L424.183 221.498ZM116.248 157.543L424.583 222.109L424.794 221.098L116.46 156.532L116.248 157.543ZM52.2774 465.403L116.859 157.143L115.848 156.932L51.2665 465.191L52.2774 465.403ZM360.212 529.357L51.8778 464.791L51.6661 465.802L360.001 530.368L360.212 529.357ZM388.224 244.996L336.097 493.806L337.108 494.017L389.235 245.208L388.224 244.996ZM139.754 193.494L388.624 245.608L388.835 244.597L139.965 192.483L139.754 193.494ZM88.238 441.903L140.365 193.094L139.354 192.883L87.2271 441.692L88.238 441.903ZM336.709 493.406L87.8384 441.292L87.6267 442.303L336.497 494.417L336.709 493.406Z" fill="#4A6F71" mask="url(#path-15-inside-2_2509_3634)"/>
<rect x="-0.30567" y="0.199798" width="237.947" height="236.875" transform="matrix(-0.205053 0.978751 -0.978771 -0.204957 379.232 251.734)" stroke="#4A6F71" stroke-width="0.516411"/>
<path d="M60.0042 461.432L47.055 469.894L363.98 536.259L355.516 523.313L60.0042 461.432Z" fill="#D59365" stroke="#4A6F71" stroke-width="0.516411"/>
<path d="M59.7311 460.951L46.772 469.46L113.446 151.216L121.9 164.209L59.7311 460.951Z" fill="#83B5B8" stroke="#4A6F71" stroke-width="0.516411"/>
<path d="M355.958 522.981L364.412 535.975L431.086 217.73L418.127 226.239L355.958 522.981Z" fill="#F36F2A" stroke="#4A6F71" stroke-width="0.516411"/>
<path d="M122.343 163.877L113.879 150.931L430.804 217.296L417.854 225.758L122.343 163.877Z" fill="#10292A" stroke="#4A6F71" stroke-width="0.516411"/>
<mask id="path-22-inside-3_2509_3634" fill="white">
<path fill-rule="evenodd" clip-rule="evenodd" d="M393.342 580.7L475.537 188.37L83.1112 106.195L0.916152 498.525L393.342 580.7ZM363.427 534.945L429.771 218.279L113.027 151.952L46.6836 468.618L363.427 534.945Z"/>
</mask>
<path fill-rule="evenodd" clip-rule="evenodd" d="M393.342 580.7L475.537 188.37L83.1112 106.195L0.916152 498.525L393.342 580.7ZM363.427 534.945L429.771 218.279L113.027 151.952L46.6836 468.618L363.427 534.945Z" fill="url(#paint4_linear_2509_3634)"/>
<path d="M475.537 188.37L476.043 188.476L476.148 187.971L475.643 187.865L475.537 188.37ZM393.342 580.7L393.236 581.205L393.742 581.311L393.847 580.806L393.342 580.7ZM83.1112 106.195L83.2171 105.69L82.7117 105.584L82.6058 106.089L83.1112 106.195ZM0.916152 498.525L0.410714 498.419L0.304812 498.925L0.81031 499.03L0.916152 498.525ZM429.771 218.279L430.276 218.385L430.382 217.879L429.876 217.773L429.771 218.279ZM363.427 534.945L363.321 535.45L363.827 535.556L363.933 535.051L363.427 534.945ZM113.027 151.952L113.133 151.446L112.627 151.341L112.521 151.846L113.027 151.952ZM46.6836 468.618L46.1782 468.512L46.0723 469.018L46.5778 469.123L46.6836 468.618ZM475.032 188.264L392.837 580.594L393.847 580.806L476.043 188.476L475.032 188.264ZM83.0054 106.701L475.431 188.876L475.643 187.865L83.2171 105.69L83.0054 106.701ZM1.42159 498.631L83.6167 106.301L82.6058 106.089L0.410714 498.419L1.42159 498.631ZM393.448 580.194L1.02199 498.02L0.81031 499.03L393.236 581.205L393.448 580.194ZM429.265 218.173L362.922 534.839L363.933 535.051L430.276 218.385L429.265 218.173ZM112.921 152.457L429.665 218.784L429.876 217.773L113.133 151.446L112.921 152.457ZM47.189 468.724L113.532 152.058L112.521 151.846L46.1782 468.512L47.189 468.724ZM363.533 534.439L46.7895 468.113L46.5778 469.123L363.321 535.45L363.533 534.439Z" fill="#4A6F71" mask="url(#path-22-inside-3_2509_3634)"/>
<rect x="-0.30567" y="0.199798" width="302.982" height="301.619" transform="matrix(-0.205053 0.978751 -0.978771 -0.204957 417.733 226.573)" stroke="#4A6F71" stroke-width="0.516411"/>
<path d="M-228.969 717.484L1.57245 498.452L23.7675 503.077L338.077 568.566L393.206 580.052L433.77 650.2L472.679 717.484L418.981 717.484L-196.75 717.484L-228.969 717.484Z" fill="url(#paint5_linear_2509_3634)"/>
<path d="M338.077 568.566L393.206 580.052L433.77 650.2M338.077 568.566L378.529 643.025M338.077 568.566L23.7675 503.077M418.981 717.484L472.679 717.484L433.77 650.2M418.981 717.484L378.529 643.025M418.981 717.484L-196.75 717.484M378.529 643.025L433.77 650.2M23.7675 503.077L1.57246 498.452L-228.969 717.484L-196.75 717.484M23.7675 503.077L-196.75 717.484" stroke="#2D4C4D" stroke-width="0.516411"/>
<path d="M169.097 597.12C211.276 600.171 248.668 613.727 275.026 633.164C301.387 652.602 316.683 677.896 314.762 704.432C312.841 730.967 294.063 753.796 265.176 769.238C236.294 784.678 197.339 792.71 155.16 789.658C112.982 786.607 75.5897 773.051 49.2313 753.614C22.8698 734.176 7.57476 708.882 9.49551 682.346C11.4163 655.811 30.1946 632.982 59.0809 617.54C87.9637 602.1 126.918 594.068 169.097 597.12Z" fill="url(#paint6_linear_2509_3634)" fill-opacity="0.6" stroke="#2D4C4D" stroke-width="0.516411"/>
<mask id="path-28-inside-4_2509_3634" fill="white">
<path fill-rule="evenodd" clip-rule="evenodd" d="M10.98 702.18C27.3399 658.227 92.1315 628.72 167.045 634.14C240.834 639.479 300.025 676.936 311.207 721.876C294.847 765.829 230.056 795.335 155.142 789.915C81.3537 784.577 22.1627 747.119 10.98 702.18Z"/>
</mask>
<path fill-rule="evenodd" clip-rule="evenodd" d="M10.98 702.18C27.3399 658.227 92.1315 628.72 167.045 634.14C240.834 639.479 300.025 676.936 311.207 721.876C294.847 765.829 230.056 795.335 155.142 789.915C81.3537 784.577 22.1627 747.119 10.98 702.18Z" fill="#0C1820"/>
<path d="M10.98 702.18L10.496 702L10.4403 702.149L10.4789 702.305L10.98 702.18ZM167.045 634.14L167.008 634.655L167.008 634.655L167.045 634.14ZM311.207 721.876L311.691 722.056L311.747 721.906L311.708 721.751L311.207 721.876ZM155.142 789.915L155.105 790.43L155.142 789.915ZM11.464 702.36C19.5793 680.557 39.7346 662.276 67.2636 650.117C94.7848 637.962 129.625 631.951 167.008 634.655L167.082 633.625C129.551 630.91 94.5392 636.942 66.8463 649.173C39.1611 661.4 18.7406 679.849 10.496 702L11.464 702.36ZM167.008 634.655C203.829 637.319 236.992 647.996 262.333 663.597C287.68 679.202 305.158 699.704 310.706 722L311.708 721.751C306.074 699.107 288.365 678.411 262.874 662.718C237.377 647.02 204.05 636.3 167.082 633.625L167.008 634.655ZM310.723 721.695C302.608 743.498 282.453 761.779 254.924 773.938C227.403 786.093 192.562 792.105 155.18 789.4L155.105 790.43C192.636 793.146 227.648 787.114 255.341 774.883C283.026 762.655 303.447 744.206 311.691 722.056L310.723 721.695ZM155.18 789.4C118.359 786.736 85.1956 776.059 59.8547 760.458C34.5068 744.853 17.0293 724.351 11.4811 702.055L10.4789 702.305C16.1135 724.948 33.8227 745.645 59.3132 761.338C84.8106 777.035 118.137 787.756 155.105 790.43L155.18 789.4Z" fill="#4A696A" mask="url(#path-28-inside-4_2509_3634)"/>
<mask id="path-30-inside-5_2509_3634" fill="white">
<path fill-rule="evenodd" clip-rule="evenodd" d="M10.98 702.18C27.3399 658.227 92.1315 628.72 167.045 634.14C240.834 639.479 300.025 676.936 311.207 721.876C294.847 765.829 230.056 795.335 155.142 789.915C81.3537 784.577 22.1627 747.119 10.98 702.18Z"/>
</mask>
<path fill-rule="evenodd" clip-rule="evenodd" d="M10.98 702.18C27.3399 658.227 92.1315 628.72 167.045 634.14C240.834 639.479 300.025 676.936 311.207 721.876C294.847 765.829 230.056 795.335 155.142 789.915C81.3537 784.577 22.1627 747.119 10.98 702.18Z" fill="#10292A"/>
<path d="M10.98 702.18L10.496 702L10.4403 702.149L10.4789 702.305L10.98 702.18ZM167.045 634.14L167.008 634.655L167.008 634.655L167.045 634.14ZM311.207 721.876L311.691 722.056L311.747 721.906L311.708 721.751L311.207 721.876ZM155.142 789.915L155.105 790.43L155.142 789.915ZM11.464 702.36C19.5793 680.557 39.7346 662.276 67.2636 650.117C94.7848 637.962 129.625 631.951 167.008 634.655L167.082 633.625C129.551 630.91 94.5392 636.942 66.8463 649.173C39.1611 661.4 18.7406 679.849 10.496 702L11.464 702.36ZM167.008 634.655C203.829 637.319 236.992 647.996 262.333 663.597C287.68 679.202 305.158 699.704 310.706 722L311.708 721.751C306.074 699.107 288.365 678.411 262.874 662.718C237.377 647.02 204.05 636.3 167.082 633.625L167.008 634.655ZM310.723 721.695C302.608 743.498 282.453 761.779 254.924 773.938C227.403 786.093 192.562 792.105 155.18 789.4L155.105 790.43C192.636 793.146 227.648 787.114 255.341 774.883C283.026 762.655 303.447 744.206 311.691 722.056L310.723 721.695ZM155.18 789.4C118.359 786.736 85.1956 776.059 59.8547 760.458C34.5068 744.853 17.0293 724.351 11.4811 702.055L10.4789 702.305C16.1135 724.948 33.8227 745.645 59.3132 761.338C84.8106 777.035 118.137 787.756 155.105 790.43L155.18 789.4Z" fill="#2D4C4D" mask="url(#path-30-inside-5_2509_3634)"/>
<ellipse cx="22.4973" cy="7.17271" rx="22.4973" ry="7.17271" transform="matrix(0.775185 0.631734 -0.631921 0.775033 244.486 583.271)" fill="#ECF7F8"/>
<ellipse cx="20.215" cy="5.86858" rx="20.215" ry="5.86858" transform="matrix(0.775185 0.631734 -0.631921 0.775033 245.179 585.518)" fill="url(#paint7_linear_2509_3634)"/>
<path d="M274.833 617.255C272.33 620.325 262.493 616.451 252.861 608.602C243.229 600.752 237.451 591.9 239.954 588.83L186.799 654.023C184.296 657.093 190.075 665.945 199.706 673.794C209.338 681.644 219.175 685.518 221.678 682.448L274.833 617.255Z" fill="url(#paint8_linear_2509_3634)"/>
<path d="M3.00196 -29.8017L83.9062 106.914L474.824 189.23L918.008 -43.4017L3.00196 -29.8017Z" fill="url(#paint9_linear_2509_3634)" stroke="#2D4C4D" stroke-width="0.516411"/>
<path d="M-71.3692 236.636C-91.431 302.559 -126.257 357.16 -166.331 392.149C-206.409 427.141 -251.702 442.494 -292.728 430.015C-333.754 417.536 -362.82 379.565 -376.613 328.187C-390.405 276.813 -388.913 212.073 -368.851 146.15C-348.789 80.2275 -313.964 25.6269 -273.889 -9.36222C-233.811 -44.3542 -188.518 -59.7067 -147.492 -47.2278C-106.467 -34.7488 -77.4009 3.22164 -63.6074 54.5999C-49.8151 105.974 -51.3074 170.714 -71.3692 236.636Z" fill="url(#paint10_linear_2509_3634)" stroke="#10292A" stroke-width="0.516411"/>
<path d="M373.461 97.107C410.134 98.5803 443.759 89.104 468.477 72.6048C493.195 56.1053 508.99 32.5962 510.059 5.99579C511.129 -20.6046 497.271 -45.305 473.957 -63.7341C450.643 -82.1631 417.887 -94.3062 381.214 -95.7795C344.542 -97.2528 310.917 -87.7765 286.199 -71.2772C261.481 -54.7778 245.685 -31.2687 244.616 -4.66826C243.547 21.9322 257.405 46.6325 280.719 65.0617C304.033 83.4906 336.789 95.6337 373.461 97.107Z" fill="url(#paint11_linear_2509_3634)" fill-opacity="0.6" stroke="#2D4C4D" stroke-width="0.516411"/>
<mask id="path-38-inside-6_2509_3634" fill="white">
<path fill-rule="evenodd" clip-rule="evenodd" d="M247.898 -24.2295C257.491 21.2125 310.335 57.4689 375.493 60.0866C439.671 62.6649 494.56 31.7558 508.819 -11.7213C499.225 -57.1633 446.382 -93.4196 381.224 -96.0373C317.046 -98.6156 262.157 -67.7066 247.898 -24.2295Z"/>
</mask>
<path fill-rule="evenodd" clip-rule="evenodd" d="M247.898 -24.2295C257.491 21.2125 310.335 57.4689 375.493 60.0866C439.671 62.6649 494.56 31.7558 508.819 -11.7213C499.225 -57.1633 446.382 -93.4196 381.224 -96.0373C317.046 -98.6156 262.157 -67.7066 247.898 -24.2295Z" fill="#0C1820"/>
<path d="M247.898 -24.2295L247.393 -24.1228L247.364 -24.2586L247.408 -24.3904L247.898 -24.2295ZM375.493 60.0866L375.514 59.5706L375.514 59.5706L375.493 60.0866ZM508.819 -11.7213L509.324 -11.8279L509.352 -11.6922L509.309 -11.5603L508.819 -11.7213ZM381.224 -96.0373L381.203 -95.5213L381.224 -96.0373ZM248.404 -24.3361C257.929 20.7858 310.487 56.9581 375.514 59.5706L375.472 60.6026C310.183 57.9796 257.054 21.6392 247.393 -24.1228L248.404 -24.3361ZM375.514 59.5706C439.56 62.1436 494.168 31.294 508.328 -11.8822L509.309 -11.5603C494.952 32.2177 439.782 63.1862 375.472 60.6026L375.514 59.5706ZM508.313 -11.6146C498.788 -56.7365 446.23 -92.9089 381.203 -95.5213L381.245 -96.5533C446.534 -93.9303 499.663 -57.59 509.324 -11.8279L508.313 -11.6146ZM381.203 -95.5213C317.157 -98.0943 262.549 -67.2447 248.389 -24.0685L247.408 -24.3904C261.765 -68.1684 316.935 -99.1369 381.245 -96.5533L381.203 -95.5213Z" fill="#4A696A" mask="url(#path-38-inside-6_2509_3634)"/>
<mask id="path-40-inside-7_2509_3634" fill="white">
<path fill-rule="evenodd" clip-rule="evenodd" d="M247.898 -24.2295C257.491 21.2125 310.335 57.4689 375.493 60.0866C439.671 62.6649 494.56 31.7558 508.819 -11.7213C499.225 -57.1633 446.382 -93.4196 381.224 -96.0373C317.046 -98.6156 262.157 -67.7066 247.898 -24.2295Z"/>
</mask>
<path fill-rule="evenodd" clip-rule="evenodd" d="M247.898 -24.2295C257.491 21.2125 310.335 57.4689 375.493 60.0866C439.671 62.6649 494.56 31.7558 508.819 -11.7213C499.225 -57.1633 446.382 -93.4196 381.224 -96.0373C317.046 -98.6156 262.157 -67.7066 247.898 -24.2295Z" fill="#10292A"/>
<path d="M247.898 -24.2295L247.393 -24.1228L247.364 -24.2586L247.408 -24.3904L247.898 -24.2295ZM375.493 60.0866L375.514 59.5706L375.514 59.5706L375.493 60.0866ZM508.819 -11.7213L509.324 -11.8279L509.352 -11.6922L509.309 -11.5603L508.819 -11.7213ZM381.224 -96.0373L381.203 -95.5213L381.224 -96.0373ZM248.404 -24.3361C257.929 20.7858 310.487 56.9581 375.514 59.5706L375.472 60.6026C310.183 57.9796 257.054 21.6392 247.393 -24.1228L248.404 -24.3361ZM375.514 59.5706C439.56 62.1436 494.168 31.294 508.328 -11.8822L509.309 -11.5603C494.952 32.2177 439.782 63.1862 375.472 60.6026L375.514 59.5706ZM508.313 -11.6146C498.788 -56.7365 446.23 -92.9089 381.203 -95.5213L381.245 -96.5533C446.534 -93.9303 499.663 -57.59 509.324 -11.8279L508.313 -11.6146ZM381.203 -95.5213C317.157 -98.0943 262.549 -67.2447 248.389 -24.0685L247.408 -24.3904C261.765 -68.1684 316.935 -99.1369 381.245 -96.5533L381.203 -95.5213Z" fill="#2D4C4D" mask="url(#path-40-inside-7_2509_3634)"/>
<ellipse cx="415.401" cy="3.12408" rx="22.9053" ry="22.911" transform="rotate(90 415.401 3.12408)" fill="#FFD0B6"/>
<ellipse cx="42.3279" cy="17.8316" rx="42.3279" ry="17.8316" transform="matrix(-0.997465 -0.0711566 0.0709978 -0.997477 7.10645 373.113)" fill="#151616"/>
<circle cx="-14.8063" cy="327.798" r="32.7517" transform="rotate(60 -14.8063 327.798)" fill="url(#paint12_radial_2509_3634)"/>
<ellipse cx="22.4948" cy="7.17351" rx="22.4948" ry="7.17351" transform="matrix(-0.847571 0.530681 -0.530828 -0.847479 210.974 100.884)" fill="#ECF7F8"/>
<ellipse cx="20.2127" cy="5.86924" rx="20.2127" ry="5.86924" transform="matrix(-0.847571 0.530681 -0.530828 -0.847479 208.623 100.816)" fill="url(#paint13_linear_2509_3634)"/>
<path d="M169.034 118.679C166.931 115.321 173.762 107.255 184.292 100.662C194.822 94.069 205.063 91.4461 207.166 94.8037L162.51 23.5089C160.407 20.1513 150.166 22.7741 139.636 29.3671C129.106 35.96 122.275 44.0265 124.378 47.3841L169.034 118.679Z" fill="url(#paint14_linear_2509_3634)"/>
<ellipse cx="30.6297" cy="8.59235" rx="30.6297" ry="8.59235" transform="matrix(-0.99725 -0.0741142 0.0740266 -0.997256 107.066 65.2715)" fill="#10292A"/>
<path d="M180.54 278.437C179.805 277.424 179.125 276.498 178.513 275.674C179.253 276.168 179.927 277.115 180.54 278.437C187.968 288.678 201.009 307.81 206.605 320.314C214.292 337.49 212.141 350.325 205.26 350.14C199.755 349.992 190.285 345.265 186.238 342.92C186.451 324.633 185.514 289.173 180.54 278.437Z" fill="url(#paint15_linear_2509_3634)"/>
<path d="M249.38 346.391C253.653 349.012 256.425 356.582 257.276 360.04C248.562 350.392 236.585 346.074 229.974 347.372C223.362 348.67 215.548 361.563 205.9 367.904C196.253 374.244 127.222 363.1 147.102 363.886C166.981 364.672 175.867 356.338 187.975 344.502C200.082 332.666 208.11 330.16 219.156 326.779C230.202 323.397 237.619 328.772 240.806 333.604C243.993 338.435 244.038 343.115 249.38 346.391Z" fill="url(#paint16_linear_2509_3634)"/>
<path d="M162.543 288.336C161.581 287.536 160.693 286.806 159.896 286.159C160.736 286.455 161.623 287.206 162.543 288.336C172.269 296.425 189.63 311.742 198.139 322.476C209.827 337.221 210.911 350.189 204.196 351.709C198.825 352.926 188.481 350.684 183.98 349.411C179.673 331.64 170.013 297.51 162.543 288.336Z" fill="url(#paint17_linear_2509_3634)"/>
<path d="M172.322 369.996C180.679 366.273 188.227 356.286 190.956 351.758C186.686 353.404 174.832 357.092 161.584 358.681C148.335 360.269 129.591 353.048 121.875 349.239C124.768 351.159 132.405 356.098 139.804 360.492C147.203 364.886 155.668 371.192 158.976 373.796C159.943 374.081 163.966 373.718 172.322 369.996Z" fill="url(#paint18_linear_2509_3634)"/>
<path d="M44.5283 293.019L-77.1861 255.082" stroke="#F15B08" stroke-width="0.516411"/>
</g>
<rect x="749.956" y="-2.08515" width="709.032" height="1001.32" transform="rotate(90 749.956 -2.08515)" stroke="url(#paint19_linear_2509_3634)" stroke-width="1.03282"/>
<g style="mix-blend-mode:soft-light">
<rect width="463.922" height="700.686" fill="url(#paint20_linear_2509_3634)"/>
</g>
</g>
</g>
<defs>
<linearGradient id="paint0_linear_2509_3634" x1="648.83" y1="1125.76" x2="1629.04" y2="-146.901" gradientUnits="userSpaceOnUse">
<stop stop-color="#017BB2"/>
<stop offset="0.25" stop-color="#284E60"/>
<stop offset="0.5" stop-color="#1E3F4F"/>
<stop offset="0.75" stop-color="#2B5B71"/>
<stop offset="1" stop-color="#027CB3"/>
</linearGradient>
<linearGradient id="paint1_linear_2509_3634" x1="375.317" y1="355.31" x2="340.535" y2="291.589" gradientUnits="userSpaceOnUse">
<stop stop-color="#FF7043"/>
<stop offset="1" stop-color="#3E0200"/>
</linearGradient>
<linearGradient id="paint2_linear_2509_3634" x1="389.336" y1="244.919" x2="83.6475" y2="441.317" gradientUnits="userSpaceOnUse">
<stop stop-color="#027FB5"/>
<stop offset="0.729167" stop-color="#84D8DD"/>
<stop offset="0.895833" stop-color="#F26004"/>
</linearGradient>
<linearGradient id="paint3_linear_2509_3634" x1="424.993" y1="221.667" x2="47.1754" y2="464.407" gradientUnits="userSpaceOnUse">
<stop stop-color="#027FB5"/>
<stop offset="0.729167" stop-color="#84D8DD"/>
<stop offset="0.895833" stop-color="#F26004"/>
</linearGradient>
<linearGradient id="paint4_linear_2509_3634" x1="475.925" y1="188.451" x2="-4.93401" y2="497.393" gradientUnits="userSpaceOnUse">
<stop stop-color="#027FB5"/>
<stop offset="0.729167" stop-color="#84D8DD"/>
<stop offset="0.895833" stop-color="#F26004"/>
</linearGradient>
<linearGradient id="paint5_linear_2509_3634" x1="471.962" y1="840.69" x2="504.851" y2="578.498" gradientUnits="userSpaceOnUse">
<stop stop-color="#FFD6C2"/>
<stop offset="0.765625" stop-color="#F15A00"/>
<stop offset="0.96875" stop-color="#471B00"/>
</linearGradient>
<linearGradient id="paint6_linear_2509_3634" x1="9.23798" y1="682.328" x2="315.019" y2="704.461" gradientUnits="userSpaceOnUse">
<stop stop-color="#010101"/>
<stop offset="1" stop-color="#073A51"/>
</linearGradient>
<linearGradient id="paint7_linear_2509_3634" x1="20.215" y1="0" x2="20.215" y2="11.7372" gradientUnits="userSpaceOnUse">
<stop stop-color="#2D6062"/>
<stop offset="1"/>
</linearGradient>
<linearGradient id="paint8_linear_2509_3634" x1="231.029" y1="601.324" x2="214.14" y2="683.449" gradientUnits="userSpaceOnUse">
<stop stop-color="#00C5AD"/>
<stop offset="1" stop-color="#FFD9C9"/>
</linearGradient>
<linearGradient id="paint9_linear_2509_3634" x1="3.71765" y1="-153.007" x2="-29.1709" y2="109.185" gradientUnits="userSpaceOnUse">
<stop stop-color="#FFEEDE"/>
<stop offset="1" stop-color="#F05500"/>
</linearGradient>
<linearGradient id="paint10_linear_2509_3634" x1="-83.3828" y1="42.8082" x2="-302.491" y2="424.703" gradientUnits="userSpaceOnUse">
<stop stop-color="#F36715"/>
<stop offset="0.755208" stop-color="#1189BA"/>
</linearGradient>
<linearGradient id="paint11_linear_2509_3634" x1="244.358" y1="-4.67862" x2="510.317" y2="6.01139" gradientUnits="userSpaceOnUse">
<stop stop-color="#010101"/>
<stop offset="1" stop-color="#084764"/>
</linearGradient>
<radialGradient id="paint12_radial_2509_3634" cx="0" cy="0" r="1" gradientUnits="userSpaceOnUse" gradientTransform="translate(-31.3893 317.984) rotate(38.492) scale(43.5759)">
<stop stop-color="#FFCEAA"/>
<stop offset="0.182292" stop-color="#4FFFEA"/>
<stop offset="1" stop-color="#FF7D1F"/>
</radialGradient>
<linearGradient id="paint13_linear_2509_3634" x1="20.2127" y1="0" x2="20.2127" y2="11.7385" gradientUnits="userSpaceOnUse">
<stop stop-color="#2D6062"/>
<stop offset="1"/>
</linearGradient>
<linearGradient id="paint14_linear_2509_3634" x1="198.202" y1="82.3349" x2="125.855" y2="39.9214" gradientUnits="userSpaceOnUse">
<stop stop-color="#11C7AC"/>
<stop offset="1" stop-color="#FFD9C9"/>
</linearGradient>
<linearGradient id="paint15_linear_2509_3634" x1="204.156" y1="285.408" x2="182.463" y2="342.559" gradientUnits="userSpaceOnUse">
<stop stop-color="#50FFE9"/>
<stop offset="1" stop-color="#ED2C00"/>
</linearGradient>
<linearGradient id="paint16_linear_2509_3634" x1="248.325" y1="367.456" x2="238.596" y2="298.206" gradientUnits="userSpaceOnUse">
<stop stop-color="#D32B00"/>
<stop offset="0.576833" stop-color="#50FFE9"/>
</linearGradient>
<linearGradient id="paint17_linear_2509_3634" x1="187.15" y1="289.258" x2="180.245" y2="349.995" gradientUnits="userSpaceOnUse">
<stop stop-color="#50FFE9"/>
<stop offset="1" stop-color="#ED2C00"/>
</linearGradient>
<linearGradient id="paint18_linear_2509_3634" x1="191.246" y1="351.986" x2="143.955" y2="366.607" gradientUnits="userSpaceOnUse">
<stop stop-color="#50FFE9"/>
<stop offset="1" stop-color="#ED2C00"/>
</linearGradient>
<linearGradient id="paint19_linear_2509_3634" x1="1105.51" y1="-2.60156" x2="1105.51" y2="999.752" gradientUnits="userSpaceOnUse">
<stop stop-color="#234345"/>
<stop offset="1" stop-color="#C2F5F8"/>
</linearGradient>
<linearGradient id="paint20_linear_2509_3634" x1="231.961" y1="0" x2="231.961" y2="700.686" gradientUnits="userSpaceOnUse">
<stop stop-color="#212121"/>
<stop offset="1" stop-color="#0A1D61" stop-opacity="0.84"/>
</linearGradient>
<clipPath id="clip0_2509_3634">
<rect width="462.549" height="700" fill="white"/>
</clipPath>
<clipPath id="clip1_2509_3634">
<rect width="1257.71" height="707.463" fill="white" transform="translate(-390.948)"/>
</clipPath>
<clipPath id="clip2_2509_3634">
<rect x="750.473" y="-2.60156" width="710.065" height="1002.35" transform="rotate(90 750.473 -2.60156)" fill="white"/>
</clipPath>
</defs>
</svg>
