<svg width="496" height="700" viewBox="0 0 496 700" fill="none" xmlns="http://www.w3.org/2000/svg">
<g clip-path="url(#clip0_374_573)">
<rect width="496" height="700" fill="url(#paint0_linear_374_573)"/>
<path opacity="0.5" d="M221.582 428.546C213.529 405.282 226.673 379.613 250.941 371.212C275.21 362.811 301.411 374.858 309.465 398.122L329.559 456.167L241.677 486.591L221.582 428.546Z" fill="url(#paint1_linear_374_573)"/>
<circle cx="205.5" cy="290.5" r="44.5" fill="url(#paint2_linear_374_573)"/>
<path d="M294.529 436.774L297.691 441.61L326.78 302.731L321.943 305.892L294.529 436.774Z" fill="#D9EFF1" stroke="#4A6F71"/>
<path d="M293.671 437.316L296.85 442.157L157.356 412.939L162.21 409.781L293.671 437.316Z" fill="#83B5B8" stroke="#4A6F71"/>
<path d="M321.375 305.051L326.229 301.893L186.735 272.676L189.914 277.516L321.375 305.051Z" fill="#B3E0E2" stroke="#4A6F71"/>
<path d="M161.642 408.94L156.805 412.101L185.894 273.222L189.055 278.058L161.642 408.94Z" fill="#10292A" stroke="#4A6F71"/>
<mask id="path-9-inside-1_374_573" fill="white">
<path fill-rule="evenodd" clip-rule="evenodd" d="M347.082 288.863L172.863 252.372L136.372 426.592L310.592 463.082L347.082 288.863ZM326.764 302.144L186.144 272.691L156.691 413.311L297.311 442.764L326.764 302.144Z"/>
</mask>
<path fill-rule="evenodd" clip-rule="evenodd" d="M347.082 288.863L172.863 252.372L136.372 426.592L310.592 463.082L347.082 288.863ZM326.764 302.144L186.144 272.691L156.691 413.311L297.311 442.764L326.764 302.144Z" fill="url(#paint3_linear_374_573)"/>
<path d="M172.863 252.372L173.068 251.393L172.089 251.188L171.884 252.167L172.863 252.372ZM347.082 288.863L348.061 289.068L348.266 288.089L347.287 287.884L347.082 288.863ZM136.372 426.592L135.393 426.387L135.188 427.365L136.167 427.57L136.372 426.592ZM310.592 463.082L310.387 464.061L311.365 464.266L311.57 463.287L310.592 463.082ZM186.144 272.691L186.349 271.712L185.37 271.507L185.165 272.486L186.144 272.691ZM326.764 302.144L327.743 302.349L327.948 301.37L326.969 301.165L326.764 302.144ZM156.691 413.311L155.712 413.106L155.507 414.084L156.486 414.289L156.691 413.311ZM297.311 442.764L297.106 443.743L298.084 443.948L298.289 442.969L297.311 442.764ZM172.658 253.351L346.877 289.842L347.287 287.884L173.068 251.393L172.658 253.351ZM137.351 426.797L173.842 252.577L171.884 252.167L135.393 426.387L137.351 426.797ZM310.797 462.104L136.577 425.613L136.167 427.57L310.387 464.061L310.797 462.104ZM346.104 288.658L309.613 462.877L311.57 463.287L348.061 289.068L346.104 288.658ZM185.939 273.669L326.559 303.123L326.969 301.165L186.349 271.712L185.939 273.669ZM157.669 413.516L187.123 272.896L185.165 272.486L155.712 413.106L157.669 413.516ZM297.516 441.785L156.896 412.332L156.486 414.289L297.106 443.743L297.516 441.785ZM325.785 301.939L296.332 442.559L298.289 442.969L327.743 302.349L325.785 301.939Z" fill="#4A6F71" mask="url(#path-9-inside-1_374_573)"/>
<rect x="189.974" y="278.55" width="133.771" height="133.136" transform="rotate(11.8298 189.974 278.55)" stroke="#4A6F71"/>
<path d="M306.863 455.449L310.953 461.706L347.022 289.5L340.765 293.59L306.863 455.449Z" fill="#D9EFF1" stroke="#4A6F71"/>
<path d="M305.999 455.99L310.112 462.252L137.144 426.024L143.424 421.938L305.999 455.99Z" fill="#83B5B8" stroke="#4A6F71"/>
<path d="M340.191 292.747L346.471 288.662L173.503 252.433L177.616 258.695L340.191 292.747Z" fill="#B3E0E2" stroke="#4A6F71"/>
<path d="M142.851 421.096L136.594 425.186L172.663 252.98L176.753 259.237L142.851 421.096Z" fill="#10292A" stroke="#4A6F71"/>
<mask id="path-16-inside-2_374_573" fill="white">
<path fill-rule="evenodd" clip-rule="evenodd" d="M371.942 272.614L156.614 227.513L111.513 442.84L326.84 487.942L371.942 272.614ZM346.829 289.029L173.029 252.626L136.626 426.426L310.426 462.829L346.829 289.029Z"/>
</mask>
<path fill-rule="evenodd" clip-rule="evenodd" d="M371.942 272.614L156.614 227.513L111.513 442.84L326.84 487.942L371.942 272.614ZM346.829 289.029L173.029 252.626L136.626 426.426L310.426 462.829L346.829 289.029Z" fill="url(#paint4_linear_374_573)"/>
<path d="M156.614 227.513L156.819 226.534L155.84 226.329L155.635 227.308L156.614 227.513ZM371.942 272.614L372.92 272.819L373.125 271.84L372.147 271.635L371.942 272.614ZM111.513 442.84L110.534 442.635L110.329 443.614L111.308 443.819L111.513 442.84ZM326.84 487.942L326.635 488.92L327.614 489.125L327.819 488.147L326.84 487.942ZM173.029 252.626L173.234 251.647L172.255 251.442L172.05 252.421L173.029 252.626ZM346.829 289.029L347.807 289.234L348.012 288.255L347.034 288.05L346.829 289.029ZM136.626 426.426L135.647 426.221L135.442 427.2L136.421 427.405L136.626 426.426ZM310.426 462.829L310.221 463.808L311.199 464.013L311.404 463.034L310.426 462.829ZM156.409 228.492L371.736 273.593L372.147 271.635L156.819 226.534L156.409 228.492ZM112.492 443.045L157.593 227.718L155.635 227.308L110.534 442.635L112.492 443.045ZM327.045 486.963L111.718 441.862L111.308 443.819L326.635 488.92L327.045 486.963ZM370.963 272.409L325.862 487.737L327.819 488.147L372.92 272.819L370.963 272.409ZM172.824 253.605L346.624 290.008L347.034 288.05L173.234 251.647L172.824 253.605ZM137.605 426.631L174.008 252.831L172.05 252.421L135.647 426.221L137.605 426.631ZM310.631 461.85L136.831 425.447L136.421 427.405L310.221 463.808L310.631 461.85ZM345.85 288.824L309.447 462.624L311.404 463.034L347.807 289.234L345.85 288.824Z" fill="#4A6F71" mask="url(#path-16-inside-2_374_573)"/>
<rect x="177.671" y="259.728" width="165.571" height="164.786" transform="rotate(11.8298 177.671 259.728)" stroke="#4A6F71"/>
<path d="M324.482 482.128L329.898 490.414L375.94 270.598L367.653 276.014L324.482 482.128Z" fill="#D9EFF1" stroke="#4A6F71"/>
<path d="M323.611 482.668L329.058 490.96L108.271 444.716L116.587 439.306L323.611 482.668Z" fill="#83B5B8" stroke="#4A6F71"/>
<path d="M367.072 275.17L375.389 269.76L154.602 223.516L160.048 231.808L367.072 275.17Z" fill="#B3E0E2" stroke="#4A6F71"/>
<path d="M116.006 438.461L107.72 443.878L153.761 224.062L159.177 232.348L116.006 438.461Z" fill="#10292A" stroke="#4A6F71"/>
<mask id="path-23-inside-3_374_573" fill="white">
<path fill-rule="evenodd" clip-rule="evenodd" d="M407.454 249.401L133.401 192L76 466.053L350.053 523.454L407.454 249.401ZM375.493 270.293L154.293 223.962L107.962 445.162L329.162 491.493L375.493 270.293Z"/>
</mask>
<path fill-rule="evenodd" clip-rule="evenodd" d="M407.454 249.401L133.401 192L76 466.053L350.053 523.454L407.454 249.401ZM375.493 270.293L154.293 223.962L107.962 445.162L329.162 491.493L375.493 270.293Z" fill="url(#paint5_linear_374_573)"/>
<path d="M133.401 192L133.606 191.021L132.628 190.816L132.423 191.795L133.401 192ZM407.454 249.401L408.433 249.606L408.638 248.628L407.659 248.423L407.454 249.401ZM76 466.053L75.0213 465.848L74.8162 466.827L75.795 467.032L76 466.053ZM350.053 523.454L349.848 524.433L350.827 524.638L351.032 523.659L350.053 523.454ZM154.293 223.962L154.498 222.983L153.519 222.778L153.314 223.757L154.293 223.962ZM375.493 270.293L376.472 270.498L376.677 269.519L375.698 269.314L375.493 270.293ZM107.962 445.162L106.983 444.957L106.778 445.935L107.757 446.14L107.962 445.162ZM329.162 491.493L328.957 492.472L329.935 492.677L330.14 491.698L329.162 491.493ZM133.196 192.979L407.249 250.38L407.659 248.423L133.606 191.021L133.196 192.979ZM76.9788 466.258L134.38 192.205L132.423 191.795L75.0213 465.848L76.9788 466.258ZM350.258 522.476L76.205 465.074L75.795 467.032L349.848 524.433L350.258 522.476ZM406.476 249.196L349.074 523.249L351.032 523.659L408.433 249.606L406.476 249.196ZM154.088 224.94L375.288 271.272L375.698 269.314L154.498 222.983L154.088 224.94ZM108.94 445.367L155.272 224.167L153.314 223.757L106.983 444.957L108.94 445.367ZM329.367 490.514L108.167 444.183L107.757 446.14L328.957 492.472L329.367 490.514ZM374.514 270.088L328.183 491.288L330.14 491.698L376.472 270.498L374.514 270.088Z" fill="#4A6F71" mask="url(#path-23-inside-3_374_573)"/>
<rect x="160.096" y="232.84" width="211" height="210" transform="rotate(11.8298 160.096 232.84)" stroke="#4A6F71"/>
<path d="M503 684L350 523L353.23 507.5L398.976 288L407 249.5L456 221.172L503 194V231.5V661.5V684Z" fill="url(#paint6_linear_374_573)"/>
<path d="M398.976 288L407 249.5L456 221.172M398.976 288L450.988 259.75M398.976 288L353.23 507.5M503 231.5V194L456 221.172M503 231.5L450.988 259.75M503 231.5V661.5M450.988 259.75L456 221.172M353.23 507.5L350 523L503 684V661.5M353.23 507.5L503 661.5" stroke="#2D4C4D"/>
<path d="M427.993 406.03C430.121 376.625 439.574 350.572 453.109 332.22C466.65 313.862 484.224 303.269 502.612 304.599C521 305.93 536.866 318.943 547.622 339.06C558.374 359.169 563.977 386.311 561.849 415.716C559.721 445.121 550.269 471.174 536.733 489.526C523.193 507.884 505.619 518.477 487.231 517.146C468.843 515.816 452.977 502.802 442.221 482.686C431.468 462.577 425.865 435.434 427.993 406.03Z" fill="url(#paint7_linear_374_573)" stroke="#2D4C4D"/>
<mask id="path-29-inside-4_374_573" fill="white">
<path fill-rule="evenodd" clip-rule="evenodd" d="M501.063 516.429C470.359 505.005 449.748 459.757 453.534 407.44C457.263 355.909 483.428 314.573 514.819 306.763C545.522 318.187 566.134 363.436 562.348 415.753C558.619 467.283 532.454 508.619 501.063 516.429Z"/>
</mask>
<path fill-rule="evenodd" clip-rule="evenodd" d="M501.063 516.429C470.359 505.005 449.748 459.757 453.534 407.44C457.263 355.909 483.428 314.573 514.819 306.763C545.522 318.187 566.134 363.436 562.348 415.753C558.619 467.283 532.454 508.619 501.063 516.429Z" fill="#0C1820"/>
<path d="M501.063 516.429L500.714 517.366L501.004 517.474L501.304 517.4L501.063 516.429ZM514.819 306.763L515.168 305.826L514.878 305.718L514.577 305.793L514.819 306.763ZM501.411 515.492C486.396 509.905 473.73 495.993 465.279 476.865C456.835 457.752 452.648 433.526 454.531 407.512L452.536 407.368C450.633 433.67 454.859 458.227 463.45 477.673C472.034 497.104 485.026 511.529 500.714 517.366L501.411 515.492ZM454.531 407.512C456.385 381.889 463.816 358.831 474.654 341.23C485.501 323.617 499.701 311.555 515.06 307.734L514.577 305.793C498.545 309.781 483.968 322.292 472.951 340.182C461.927 358.085 454.411 381.46 452.536 407.368L454.531 407.512ZM514.47 307.7C529.486 313.287 542.151 327.199 550.602 346.327C559.046 365.441 563.233 389.666 561.351 415.68L563.345 415.825C565.249 389.522 561.023 364.965 552.432 345.519C543.847 326.088 530.856 311.663 515.168 305.826L514.47 307.7ZM561.351 415.68C559.496 441.304 552.065 464.362 541.227 481.962C530.381 499.575 516.181 511.638 500.821 515.459L501.304 517.4C517.336 513.411 531.914 500.9 542.93 483.011C553.955 465.107 561.471 441.732 563.345 415.825L561.351 415.68Z" fill="#4A696A" mask="url(#path-29-inside-4_374_573)"/>
<mask id="path-31-inside-5_374_573" fill="white">
<path fill-rule="evenodd" clip-rule="evenodd" d="M501.063 516.429C470.359 505.005 449.748 459.757 453.534 407.44C457.263 355.909 483.428 314.573 514.819 306.763C545.522 318.187 566.134 363.436 562.348 415.753C558.619 467.283 532.454 508.619 501.063 516.429Z"/>
</mask>
<path fill-rule="evenodd" clip-rule="evenodd" d="M501.063 516.429C470.359 505.005 449.748 459.757 453.534 407.44C457.263 355.909 483.428 314.573 514.819 306.763C545.522 318.187 566.134 363.436 562.348 415.753C558.619 467.283 532.454 508.619 501.063 516.429Z" fill="#10292A"/>
<path d="M501.063 516.429L500.714 517.366L501.004 517.474L501.304 517.4L501.063 516.429ZM514.819 306.763L515.168 305.826L514.878 305.718L514.577 305.793L514.819 306.763ZM501.411 515.492C486.396 509.905 473.73 495.993 465.279 476.865C456.835 457.752 452.648 433.526 454.531 407.512L452.536 407.368C450.633 433.67 454.859 458.227 463.45 477.673C472.034 497.104 485.026 511.529 500.714 517.366L501.411 515.492ZM454.531 407.512C456.385 381.889 463.816 358.831 474.654 341.23C485.501 323.617 499.701 311.555 515.06 307.734L514.577 305.793C498.545 309.781 483.968 322.292 472.951 340.182C461.927 358.085 454.411 381.46 452.536 407.368L454.531 407.512ZM514.47 307.7C529.486 313.287 542.151 327.199 550.602 346.327C559.046 365.441 563.233 389.666 561.351 415.68L563.345 415.825C565.249 389.522 561.023 364.965 552.432 345.519C543.847 326.088 530.856 311.663 515.168 305.826L514.47 307.7ZM561.351 415.68C559.496 441.304 552.065 464.362 541.227 481.962C530.381 499.575 516.181 511.638 500.821 515.459L501.304 517.4C517.336 513.411 531.914 500.9 542.93 483.011C553.955 465.107 561.471 441.732 563.345 415.825L561.351 415.68Z" fill="#2D4C4D" mask="url(#path-31-inside-5_374_573)"/>
<rect x="417.265" y="372.121" width="63" height="32.0992" rx="15" transform="rotate(3.71662 417.265 372.121)" fill="#10292A"/>
<ellipse cx="431.811" cy="344.344" rx="15.7127" ry="5.00984" transform="rotate(-50.8149 431.811 344.344)" fill="#ECF7F8"/>
<ellipse cx="431.667" cy="344.521" rx="14.1186" ry="4.09896" transform="rotate(-50.8149 431.667 344.521)" fill="url(#paint8_linear_374_573)"/>
<path d="M441.739 332.165C443.883 333.914 441.177 340.784 435.694 347.51C430.211 354.236 424.028 358.272 421.883 356.523L467.422 393.644C469.567 395.393 475.75 391.357 481.233 384.631C486.716 377.904 489.422 371.035 487.278 369.286L441.739 332.165Z" fill="url(#paint9_linear_374_573)"/>
<path d="M-19 522L76.5 465.5L134 192.5L-28.5 -117L-19 522Z" fill="url(#paint10_linear_374_573)" stroke="#2D4C4D"/>
<path d="M290.773 121.19C246.487 112.238 208.823 92.2266 183.726 67.1366C158.625 42.0434 146.133 11.9191 152.04 -17.3015C157.947 -46.5222 181.16 -69.4285 214.037 -82.8009C246.91 -96.1716 289.389 -99.9809 333.675 -91.0281C377.961 -82.0752 415.624 -62.0643 440.722 -36.9742C465.823 -11.8811 478.315 18.2432 472.407 47.4639C466.5 76.6845 443.288 99.5909 410.411 112.963C377.538 126.334 335.059 130.143 290.773 121.19Z" fill="url(#paint11_linear_374_573)" stroke="#10292A"/>
<mask id="path-39-inside-6_374_573" fill="white">
<path fill-rule="evenodd" clip-rule="evenodd" d="M473.956 25.2194C450.155 72.0226 377.058 96.3467 298.33 80.4311C220.785 64.7546 163.438 15.226 158.148 -36.3065C181.949 -83.1096 255.046 -107.434 333.774 -91.5182C411.319 -75.8417 468.666 -26.3131 473.956 25.2194Z"/>
</mask>
<path fill-rule="evenodd" clip-rule="evenodd" d="M473.956 25.2194C450.155 72.0226 377.058 96.3467 298.33 80.4311C220.785 64.7546 163.438 15.226 158.148 -36.3065C181.949 -83.1096 255.046 -107.434 333.774 -91.5182C411.319 -75.8417 468.666 -26.3131 473.956 25.2194Z" fill="#0C1820"/>
<path d="M473.956 25.2194L474.847 25.6727L474.981 25.4102L474.951 25.1173L473.956 25.2194ZM158.148 -36.3065L157.257 -36.7598L157.123 -36.4973L157.153 -36.2044L158.148 -36.3065ZM473.065 24.7661C461.321 47.8589 437.359 65.5038 406.436 75.3923C375.525 85.2771 337.743 87.3785 298.528 79.4509L298.132 81.4112C337.645 89.3993 375.776 87.2964 407.045 77.2973C438.303 67.3018 462.79 49.3831 474.847 25.6727L473.065 24.7661ZM298.528 79.4509C259.903 71.6425 226.338 55.4081 201.788 34.7432C177.228 14.0708 161.754 -10.976 159.143 -36.4086L157.153 -36.2044C159.833 -10.1045 175.677 15.3792 200.5 36.2733C225.331 57.175 259.212 73.5432 298.132 81.4112L298.528 79.4509ZM159.039 -35.8532C170.783 -58.946 194.745 -76.5909 225.668 -86.4794C256.58 -96.3642 294.362 -98.4656 333.576 -90.538L333.972 -92.4983C294.459 -100.486 256.328 -98.3835 225.059 -88.3844C193.801 -78.3889 169.314 -60.4702 157.257 -36.7598L159.039 -35.8532ZM333.576 -90.538C372.201 -82.7296 405.766 -66.4952 430.317 -45.8303C454.876 -25.1579 470.35 -0.111073 472.961 25.3215L474.951 25.1173C472.271 -0.982559 456.427 -26.4663 431.605 -47.3604C406.773 -68.2621 372.892 -84.6302 333.972 -92.4983L333.576 -90.538Z" fill="#10292A" mask="url(#path-39-inside-6_374_573)"/>
<mask id="path-41-inside-7_374_573" fill="white">
<path fill-rule="evenodd" clip-rule="evenodd" d="M473.956 25.2194C450.155 72.0226 377.058 96.3467 298.33 80.4311C220.785 64.7546 163.438 15.226 158.148 -36.3065C181.949 -83.1096 255.046 -107.434 333.774 -91.5182C411.319 -75.8417 468.666 -26.3131 473.956 25.2194Z"/>
</mask>
<path fill-rule="evenodd" clip-rule="evenodd" d="M473.956 25.2194C450.155 72.0226 377.058 96.3467 298.33 80.4311C220.785 64.7546 163.438 15.226 158.148 -36.3065C181.949 -83.1096 255.046 -107.434 333.774 -91.5182C411.319 -75.8417 468.666 -26.3131 473.956 25.2194Z" fill="url(#paint12_linear_374_573)"/>
<path d="M473.956 25.2194L474.847 25.6727L474.981 25.4102L474.951 25.1173L473.956 25.2194ZM158.148 -36.3065L157.257 -36.7598L157.123 -36.4973L157.153 -36.2044L158.148 -36.3065ZM473.065 24.7661C461.321 47.8589 437.359 65.5038 406.436 75.3923C375.525 85.2771 337.743 87.3785 298.528 79.4509L298.132 81.4112C337.645 89.3993 375.776 87.2964 407.045 77.2973C438.303 67.3018 462.79 49.3831 474.847 25.6727L473.065 24.7661ZM298.528 79.4509C259.903 71.6425 226.338 55.4081 201.788 34.7432C177.228 14.0708 161.754 -10.976 159.143 -36.4086L157.153 -36.2044C159.833 -10.1045 175.677 15.3792 200.5 36.2733C225.331 57.175 259.212 73.5432 298.132 81.4112L298.528 79.4509ZM159.039 -35.8532C170.783 -58.946 194.745 -76.5909 225.668 -86.4794C256.58 -96.3642 294.362 -98.4656 333.576 -90.538L333.972 -92.4983C294.459 -100.486 256.328 -98.3835 225.059 -88.3844C193.801 -78.3889 169.314 -60.4702 157.257 -36.7598L159.039 -35.8532ZM333.576 -90.538C372.201 -82.7296 405.766 -66.4952 430.317 -45.8303C454.876 -25.1579 470.35 -0.111073 472.961 25.3215L474.951 25.1173C472.271 -0.982559 456.427 -26.4663 431.605 -47.3604C406.773 -68.2621 372.892 -84.6302 333.972 -92.4983L333.576 -90.538Z" fill="#10292A" mask="url(#path-41-inside-7_374_573)"/>
<path d="M167.022 574.244C213.023 588.24 251.109 612.531 275.505 640.466C299.906 668.407 310.563 699.926 301.89 728.432C293.217 756.939 266.811 777.182 230.983 786.798C195.163 796.412 150.002 795.376 104.002 781.381C58.0006 767.385 19.9151 743.093 -4.48057 715.159C-28.8818 687.218 -39.5388 655.699 -30.8656 627.192C-22.1925 598.686 4.21282 578.443 40.0408 568.826C75.8606 559.212 121.022 560.248 167.022 574.244Z" fill="url(#paint13_linear_374_573)" stroke="#10292A"/>
<mask id="path-44-inside-8_374_573" fill="white">
<path fill-rule="evenodd" clip-rule="evenodd" d="M-34.3294 649.25C-5.29751 605.202 73.8816 589.231 155.639 614.105C236.167 638.606 292.549 694.626 293.824 746.715C264.792 790.763 185.613 806.734 103.856 781.859C23.3271 757.359 -33.0544 701.339 -34.3294 649.25Z"/>
</mask>
<path fill-rule="evenodd" clip-rule="evenodd" d="M-34.3294 649.25C-5.29751 605.202 73.8816 589.231 155.639 614.105C236.167 638.606 292.549 694.626 293.824 746.715C264.792 790.763 185.613 806.734 103.856 781.859C23.3271 757.359 -33.0544 701.339 -34.3294 649.25Z" fill="#0C1820"/>
<path d="M-34.3294 649.25L-35.1643 648.699L-35.3367 648.961L-35.3291 649.274L-34.3294 649.25ZM293.824 746.715L294.659 747.265L294.831 747.004L294.824 746.69L293.824 746.715ZM-33.4944 649.8C-19.1776 628.078 7.58578 613.173 41.0693 606.814C74.5356 600.458 114.605 602.666 155.348 615.062L155.93 613.149C114.915 600.67 74.5166 598.426 40.6961 604.849C6.89284 611.269 -20.4493 626.373 -35.1643 648.699L-33.4944 649.8ZM155.348 615.062C195.478 627.271 229.561 647.327 253.755 670.783C277.962 694.25 292.195 721.044 292.824 746.739L294.824 746.69C294.178 720.297 279.583 693.036 255.148 669.347C230.7 645.645 196.329 625.44 155.93 613.149L155.348 615.062ZM292.989 746.165C278.672 767.886 251.909 782.792 218.425 789.151C184.959 795.506 144.889 793.298 104.147 780.903L103.565 782.816C144.579 795.295 184.978 797.538 218.798 791.115C252.602 784.696 279.944 769.591 294.659 747.265L292.989 746.165ZM104.147 780.903C64.0169 768.693 29.9333 748.638 5.73912 725.182C-18.4671 701.714 -32.7007 674.92 -33.3297 649.225L-35.3291 649.274C-34.6831 675.668 -20.0885 702.928 4.34699 726.618C28.7945 750.319 63.166 770.525 103.565 782.816L104.147 780.903Z" fill="#10292A" mask="url(#path-44-inside-8_374_573)"/>
<mask id="path-46-inside-9_374_573" fill="white">
<path fill-rule="evenodd" clip-rule="evenodd" d="M-34.3294 649.25C-5.29751 605.202 73.8816 589.231 155.639 614.105C236.167 638.606 292.549 694.626 293.824 746.715C264.792 790.763 185.613 806.734 103.856 781.859C23.3271 757.359 -33.0544 701.339 -34.3294 649.25Z"/>
</mask>
<path fill-rule="evenodd" clip-rule="evenodd" d="M-34.3294 649.25C-5.29751 605.202 73.8816 589.231 155.639 614.105C236.167 638.606 292.549 694.626 293.824 746.715C264.792 790.763 185.613 806.734 103.856 781.859C23.3271 757.359 -33.0544 701.339 -34.3294 649.25Z" fill="url(#paint14_linear_374_573)"/>
<path d="M-34.3294 649.25L-35.1643 648.699L-35.3367 648.961L-35.3291 649.274L-34.3294 649.25ZM293.824 746.715L294.659 747.265L294.831 747.004L294.824 746.69L293.824 746.715ZM-33.4944 649.8C-19.1776 628.078 7.58578 613.173 41.0693 606.814C74.5356 600.458 114.605 602.666 155.348 615.062L155.93 613.149C114.915 600.67 74.5166 598.426 40.6961 604.849C6.89284 611.269 -20.4493 626.373 -35.1643 648.699L-33.4944 649.8ZM155.348 615.062C195.478 627.271 229.561 647.327 253.755 670.783C277.962 694.25 292.195 721.044 292.824 746.739L294.824 746.69C294.178 720.297 279.583 693.036 255.148 669.347C230.7 645.645 196.329 625.44 155.93 613.149L155.348 615.062ZM292.989 746.165C278.672 767.886 251.909 782.792 218.425 789.151C184.959 795.506 144.889 793.298 104.147 780.903L103.565 782.816C144.579 795.295 184.978 797.538 218.798 791.115C252.602 784.696 279.944 769.591 294.659 747.265L292.989 746.165ZM104.147 780.903C64.0169 768.693 29.9333 748.638 5.73912 725.182C-18.4671 701.714 -32.7007 674.92 -33.3297 649.225L-35.3291 649.274C-34.6831 675.668 -20.0885 702.928 4.34699 726.618C28.7945 750.319 63.166 770.525 103.565 782.816L104.147 780.903Z" fill="#10292A" mask="url(#path-46-inside-9_374_573)"/>
<path d="M69.3292 263.276C70.3559 237.725 63.751 214.311 52.2672 197.112C40.7831 179.911 24.4458 168.956 5.99201 168.214C-12.4618 167.472 -29.6255 177.082 -42.4527 193.305C-55.2796 209.528 -63.7419 232.337 -64.7686 257.887C-65.7953 283.438 -59.1905 306.852 -47.7067 324.051C-36.2225 341.252 -19.8852 352.207 -1.43144 352.949C17.0224 353.69 34.186 344.081 47.0133 327.858C59.8402 311.635 68.3025 288.826 69.3292 263.276Z" fill="url(#paint15_linear_374_573)" stroke="#2D4C4D"/>
<mask id="path-49-inside-10_374_573" fill="white">
<path fill-rule="evenodd" clip-rule="evenodd" d="M-15.1072 350.976C16.6351 344.277 41.961 307.374 43.7895 261.87C45.5906 217.05 23.9991 178.718 -6.37149 168.761C-38.1138 175.46 -63.4397 212.364 -65.2682 257.867C-67.0693 302.687 -45.4778 341.019 -15.1072 350.976Z"/>
</mask>
<path fill-rule="evenodd" clip-rule="evenodd" d="M-15.1072 350.976C16.6351 344.277 41.961 307.374 43.7895 261.87C45.5906 217.05 23.9991 178.718 -6.37149 168.761C-38.1138 175.46 -63.4397 212.364 -65.2682 257.867C-67.0693 302.687 -45.4778 341.019 -15.1072 350.976Z" fill="#0C1820"/>
<path d="M-15.1072 350.976L-14.9007 351.955L-15.1635 352.01L-15.4188 351.927L-15.1072 350.976ZM-6.37149 168.761L-6.578 167.782L-6.31519 167.727L-6.05995 167.811L-6.37149 168.761ZM-15.3137 349.998C15.8089 343.429 40.972 307.079 42.7903 261.83L44.7887 261.91C42.9499 307.668 17.4613 345.124 -14.9007 351.955L-15.3137 349.998ZM42.7903 261.83C44.5811 217.265 23.1048 179.477 -6.68303 169.711L-6.05995 167.811C24.8934 177.959 46.6 216.835 44.7887 261.91L42.7903 261.83ZM-6.16498 169.739C-37.2876 176.308 -62.4507 212.658 -64.269 257.907L-66.2674 257.827C-64.4287 212.069 -38.94 174.613 -6.578 167.782L-6.16498 169.739ZM-64.269 257.907C-66.0598 302.472 -44.5836 340.26 -14.7957 350.026L-15.4188 351.927C-46.3721 341.778 -68.0787 302.902 -66.2674 257.827L-64.269 257.907Z" fill="#4A696A" mask="url(#path-49-inside-10_374_573)"/>
<mask id="path-51-inside-11_374_573" fill="white">
<path fill-rule="evenodd" clip-rule="evenodd" d="M-15.1072 350.976C16.6351 344.277 41.961 307.374 43.7895 261.87C45.5906 217.05 23.9991 178.718 -6.37149 168.761C-38.1138 175.46 -63.4397 212.364 -65.2682 257.867C-67.0693 302.687 -45.4778 341.019 -15.1072 350.976Z"/>
</mask>
<path fill-rule="evenodd" clip-rule="evenodd" d="M-15.1072 350.976C16.6351 344.277 41.961 307.374 43.7895 261.87C45.5906 217.05 23.9991 178.718 -6.37149 168.761C-38.1138 175.46 -63.4397 212.364 -65.2682 257.867C-67.0693 302.687 -45.4778 341.019 -15.1072 350.976Z" fill="#10292A"/>
<path d="M-15.1072 350.976L-14.9007 351.955L-15.1635 352.01L-15.4188 351.927L-15.1072 350.976ZM-6.37149 168.761L-6.578 167.782L-6.31519 167.727L-6.05995 167.811L-6.37149 168.761ZM-15.3137 349.998C15.8089 343.429 40.972 307.079 42.7903 261.83L44.7887 261.91C42.9499 307.668 17.4613 345.124 -14.9007 351.955L-15.3137 349.998ZM42.7903 261.83C44.5811 217.265 23.1048 179.477 -6.68303 169.711L-6.05995 167.811C24.8934 177.959 46.6 216.835 44.7887 261.91L42.7903 261.83ZM-6.16498 169.739C-37.2876 176.308 -62.4507 212.658 -64.269 257.907L-66.2674 257.827C-64.4287 212.069 -38.94 174.613 -6.578 167.782L-6.16498 169.739ZM-64.269 257.907C-66.0598 302.472 -44.5836 340.26 -14.7957 350.026L-15.4188 351.927C-46.3721 341.778 -68.0787 302.902 -66.2674 257.827L-64.269 257.907Z" fill="#2D4C4D" mask="url(#path-51-inside-11_374_573)"/>
<circle cx="4" cy="234" r="16" fill="#FFD0B6"/>
<ellipse cx="309.665" cy="109.287" rx="13.8715" ry="43.1967" transform="rotate(48.8825 309.665 109.287)" fill="#10292A"/>
<circle cx="320.44" cy="80.3537" r="25.7178" transform="rotate(17.8179 320.44 80.3537)" fill="url(#paint16_radial_374_573)"/>
<ellipse cx="345.077" cy="621.597" rx="47.1285" ry="14.4388" transform="rotate(12.9017 345.077 621.597)" fill="#10292A"/>
<circle cx="318.354" cy="599.354" r="25.7178" transform="rotate(17.8179 318.354 599.354)" fill="url(#paint17_radial_374_573)"/>
<ellipse cx="88.8941" cy="421.636" rx="15.7127" ry="5.00984" transform="rotate(22.475 88.8941 421.636)" fill="#ECF7F8"/>
<ellipse cx="88.6837" cy="421.549" rx="14.1186" ry="4.09896" transform="rotate(22.475 88.6837 421.549)" fill="url(#paint18_linear_374_573)"/>
<path d="M103.413 427.643C102.356 430.199 94.9977 429.583 86.9789 426.265C78.9602 422.948 73.3171 418.186 74.3748 415.629L51.9152 469.919C50.8574 472.475 56.5005 477.237 64.5192 480.555C72.538 483.872 79.8959 484.489 80.9537 481.932L103.413 427.643Z" fill="url(#paint19_linear_374_573)"/>
<ellipse cx="68.9323" cy="490.344" rx="21.3976" ry="6" transform="rotate(6.38885 68.9323 490.344)" fill="#10292A"/>
<path d="M168.5 200L65.5 -9" stroke="#4A6F71"/>
<path d="M22.0362 628.096C21.1179 627.449 20.2714 626.859 19.512 626.337C20.2846 626.542 21.132 627.151 22.0362 628.096C31.3202 634.641 47.9544 647.108 56.3381 656.106C67.8544 668.466 69.7509 679.992 63.8496 681.831C59.1285 683.302 49.7097 682.034 45.5904 681.216C40.4646 665.621 29.3787 635.772 22.0362 628.096Z" fill="url(#paint20_linear_374_573)"/>
<path d="M100.253 665.85C104.645 666.837 109.197 672.463 110.924 675.152C100.718 669.486 89.2882 669.292 84.0464 672.312C78.8045 675.333 75.9052 688.551 69.5471 696.735C63.189 704.919 1.29352 715.477 18.415 710.378C35.5366 705.279 40.6694 695.623 47.5235 682.057C54.3775 668.491 60.4723 664.034 68.8777 657.958C77.2831 651.881 85.1463 654.295 89.2564 657.475C93.3665 660.654 94.7625 664.617 100.253 665.85Z" fill="url(#paint21_linear_374_573)"/>
<path d="M9.61488 641.725C8.56512 641.325 7.59937 640.962 6.7345 640.644C7.53369 640.651 8.50527 641.032 9.61488 641.725C20.2273 645.775 39.4248 653.75 49.7704 660.399C63.9817 669.533 68.6653 680.234 63.4006 683.473C59.1889 686.064 49.7485 687.161 45.5548 687.385C36.7375 673.539 18.6253 647.351 9.61488 641.725Z" fill="url(#paint22_linear_374_573)"/>
<path d="M41.6202 708.251C47.6414 702.665 51.1574 691.993 52.1628 687.355C49.0112 689.991 40.0088 696.563 29.2114 701.755C18.4141 706.947 0.389796 706.251 -7.27266 705.253C-4.25658 706.045 3.66623 708.025 11.2288 709.611C18.7913 711.197 27.8151 714.098 31.3816 715.351C32.2856 715.312 35.599 713.837 41.6202 708.251Z" fill="url(#paint23_linear_374_573)"/>
<path d="M401.413 -27.343C402.143 -28.1973 402.818 -28.9776 403.424 -29.6714C402.726 -29.2821 402.056 -28.4825 401.413 -27.343C394.035 -18.7069 380.998 -2.51455 375.099 8.27617C366.995 23.0988 368.006 34.7361 374.179 35.0593C379.117 35.3179 387.93 31.761 391.719 29.9501C392.832 13.5728 396.196 -18.0901 401.413 -27.343Z" fill="url(#paint24_linear_374_573)"/>
<path d="M334.955 28.5719C330.943 30.6136 327.923 37.1902 326.915 40.2233C335.403 32.2098 346.43 29.1967 352.256 30.8279C358.082 32.4591 364.158 44.5506 372.342 50.9094C380.525 57.2681 443.11 52.2001 425.259 51.491C407.409 50.7819 400.048 42.694 390.054 31.2434C380.06 19.7927 373.052 16.9802 363.406 13.1699C353.759 9.35957 346.737 13.642 343.54 17.7386C340.343 21.8352 339.97 26.0198 334.955 28.5719Z" fill="url(#paint25_linear_374_573)"/>
<path d="M416.818 -17.2068C417.736 -17.8544 418.582 -18.444 419.342 -18.9666C418.569 -18.7616 417.722 -18.1523 416.818 -17.2068C407.536 -10.6597 390.905 1.81272 382.524 10.8128C371.011 23.1757 369.118 34.7024 375.02 36.5396C379.741 38.0094 389.159 36.7385 393.279 35.9193C398.4 20.3236 409.478 -9.52845 416.818 -17.2068Z" fill="url(#paint26_linear_374_573)"/>
<path d="M402.248 55.1657C395.033 51.2412 388.989 41.7691 386.868 37.5235C390.574 39.2993 400.921 43.4416 412.667 45.804C424.412 48.1665 441.705 43.0367 448.883 40.1764C446.157 41.6891 438.969 45.5658 432.033 48.9718C425.097 52.3778 417.07 57.4194 413.924 59.5144C413.038 59.7 409.463 59.0901 402.248 55.1657Z" fill="url(#paint27_linear_374_573)"/>
<path d="M206.5 493L180 578" stroke="#4A6F71"/>
</g>
<rect x="1" y="1" width="494" height="698" stroke="url(#paint28_linear_374_573)" stroke-width="2"/>
<defs>
<linearGradient id="paint0_linear_374_573" x1="-71" y1="788" x2="579" y2="-81.4999" gradientUnits="userSpaceOnUse">
<stop offset="0.0677083" stop-color="#A2E1E4"/>
<stop offset="0.5" stop-color="#FFD5BD"/>
<stop offset="0.739583" stop-color="#FFF8DF"/>
<stop offset="1" stop-color="#A2E1E4"/>
</linearGradient>
<linearGradient id="paint1_linear_374_573" x1="250.941" y1="371.212" x2="285.618" y2="471.379" gradientUnits="userSpaceOnUse">
<stop stop-color="#E8FEFF"/>
<stop offset="1" stop-color="#668B8D" stop-opacity="0"/>
</linearGradient>
<linearGradient id="paint2_linear_374_573" x1="205.5" y1="246" x2="205.5" y2="335" gradientUnits="userSpaceOnUse">
<stop stop-color="#FF7043"/>
<stop offset="1" stop-color="#FF7043" stop-opacity="0"/>
</linearGradient>
<linearGradient id="paint3_linear_374_573" x1="172.899" y1="252.2" x2="310.041" y2="465.71" gradientUnits="userSpaceOnUse">
<stop stop-color="#FFDDBE"/>
<stop offset="0.729167" stop-color="#84D8DD"/>
<stop offset="0.895833" stop-color="#FFAE95"/>
</linearGradient>
<linearGradient id="paint4_linear_374_573" x1="156.659" y1="227.3" x2="326.16" y2="491.189" gradientUnits="userSpaceOnUse">
<stop stop-color="#FFDDBE"/>
<stop offset="0.729167" stop-color="#84D8DD"/>
<stop offset="0.895833" stop-color="#FFAE95"/>
</linearGradient>
<linearGradient id="paint5_linear_374_573" x1="133.458" y1="191.729" x2="349.187" y2="527.588" gradientUnits="userSpaceOnUse">
<stop stop-color="#FFDDBE"/>
<stop offset="0.729167" stop-color="#84D8DD"/>
<stop offset="0.895833" stop-color="#FFAE95"/>
</linearGradient>
<linearGradient id="paint6_linear_374_573" x1="589.062" y1="194.5" x2="405.915" y2="171.521" gradientUnits="userSpaceOnUse">
<stop stop-color="#FFF9C2"/>
<stop offset="1" stop-color="#FFC0A5"/>
</linearGradient>
<linearGradient id="paint7_linear_374_573" x1="487.195" y1="517.645" x2="502.648" y2="304.101" gradientUnits="userSpaceOnUse">
<stop stop-color="#FFDBC0"/>
<stop offset="1" stop-color="#FFD257"/>
</linearGradient>
<linearGradient id="paint8_linear_374_573" x1="431.667" y1="340.422" x2="431.667" y2="348.62" gradientUnits="userSpaceOnUse">
<stop stop-color="#2D6062"/>
<stop offset="1"/>
</linearGradient>
<linearGradient id="paint9_linear_374_573" x1="430.611" y1="362.756" x2="487.976" y2="374.556" gradientUnits="userSpaceOnUse">
<stop stop-color="#FFF7CB"/>
<stop offset="1" stop-color="#FFD9C9"/>
</linearGradient>
<linearGradient id="paint10_linear_374_573" x1="-105.063" y1="521.5" x2="78.0846" y2="544.479" gradientUnits="userSpaceOnUse">
<stop stop-color="#FFEEDE"/>
<stop offset="1" stop-color="#FFB899"/>
</linearGradient>
<linearGradient id="paint11_linear_374_573" x1="486" y1="27" x2="123" y2="-14.5" gradientUnits="userSpaceOnUse">
<stop stop-color="#FEF499"/>
<stop offset="0.505208" stop-color="#FFC69E"/>
<stop offset="1" stop-color="#FEF499"/>
</linearGradient>
<linearGradient id="paint12_linear_374_573" x1="410.5" y1="-56" x2="238" y2="51.5" gradientUnits="userSpaceOnUse">
<stop stop-color="#9EE9E0"/>
<stop offset="1" stop-color="#74B7AB"/>
</linearGradient>
<linearGradient id="paint13_linear_374_573" x1="31.7211" y1="582.328" x2="298.453" y2="735.4" gradientUnits="userSpaceOnUse">
<stop stop-color="#4A6F71"/>
<stop offset="1" stop-color="#1E3637"/>
</linearGradient>
<linearGradient id="paint14_linear_374_573" x1="25.8504" y1="737.628" x2="210.748" y2="638.436" gradientUnits="userSpaceOnUse">
<stop stop-color="#84CDC4"/>
<stop offset="1" stop-color="#4F8B80"/>
</linearGradient>
<linearGradient id="paint15_linear_374_573" x1="-1.45151" y1="353.449" x2="6.01209" y2="167.714" gradientUnits="userSpaceOnUse">
<stop stop-color="#FFDBC0"/>
<stop offset="1" stop-color="#FFD257"/>
</linearGradient>
<radialGradient id="paint16_radial_374_573" cx="0" cy="0" r="1" gradientUnits="userSpaceOnUse" gradientTransform="translate(305.848 70.6502) rotate(44.4711) scale(42.9579)">
<stop stop-color="#FFD8CC"/>
<stop offset="1" stop-color="#EFA38B"/>
</radialGradient>
<radialGradient id="paint17_radial_374_573" cx="0" cy="0" r="1" gradientUnits="userSpaceOnUse" gradientTransform="translate(325.461 580.417) rotate(77.1694) scale(40.3344)">
<stop stop-color="#FFF1CC"/>
<stop offset="1" stop-color="#EFD38B"/>
</radialGradient>
<linearGradient id="paint18_linear_374_573" x1="88.6837" y1="417.45" x2="88.6837" y2="425.648" gradientUnits="userSpaceOnUse">
<stop stop-color="#2D6062"/>
<stop offset="1"/>
</linearGradient>
<linearGradient id="paint19_linear_374_573" x1="70.9146" y1="425.78" x2="76.107" y2="484.116" gradientUnits="userSpaceOnUse">
<stop stop-color="#FFF7CB"/>
<stop offset="1" stop-color="#FFD9C9"/>
</linearGradient>
<linearGradient id="paint20_linear_374_573" x1="44.1281" y1="627.166" x2="42.2802" y2="682.004" gradientUnits="userSpaceOnUse">
<stop stop-color="#3D5E60"/>
<stop offset="1" stop-color="#3D5E60" stop-opacity="0"/>
</linearGradient>
<linearGradient id="paint21_linear_374_573" x1="96.5874" y1="660.776" x2="37.4521" y2="710.312" gradientUnits="userSpaceOnUse">
<stop stop-color="#3D5E60"/>
<stop offset="1" stop-color="#3D5E60" stop-opacity="0"/>
</linearGradient>
<linearGradient id="paint22_linear_374_573" x1="30.7933" y1="635.37" x2="42.5417" y2="688.966" gradientUnits="userSpaceOnUse">
<stop stop-color="#3D5E60"/>
<stop offset="1" stop-color="#3D5E60" stop-opacity="0"/>
</linearGradient>
<linearGradient id="paint23_linear_374_573" x1="52.4748" y1="687.464" x2="16.5415" y2="713.616" gradientUnits="userSpaceOnUse">
<stop stop-color="#3D5E60"/>
<stop offset="1" stop-color="#3D5E60" stop-opacity="0"/>
</linearGradient>
<linearGradient id="paint24_linear_374_573" x1="379.777" y1="-22.7835" x2="395.122" y2="29.8961" gradientUnits="userSpaceOnUse">
<stop stop-color="#3D5E60"/>
<stop offset="1" stop-color="#3D5E60" stop-opacity="0"/>
</linearGradient>
<linearGradient id="paint25_linear_374_573" x1="337.252" y1="22.7491" x2="406.796" y2="56.132" gradientUnits="userSpaceOnUse">
<stop stop-color="#3D5E60"/>
<stop offset="1" stop-color="#3D5E60" stop-opacity="0"/>
</linearGradient>
<linearGradient id="paint26_linear_374_573" x1="394.726" y1="-18.1303" x2="396.589" y2="36.7069" gradientUnits="userSpaceOnUse">
<stop stop-color="#3D5E60"/>
<stop offset="1" stop-color="#3D5E60" stop-opacity="0"/>
</linearGradient>
<linearGradient id="paint27_linear_374_573" x1="386.593" y1="37.7068" x2="427.875" y2="54.1652" gradientUnits="userSpaceOnUse">
<stop stop-color="#3D5E60"/>
<stop offset="1" stop-color="#3D5E60" stop-opacity="0"/>
</linearGradient>
<linearGradient id="paint28_linear_374_573" x1="248" y1="0" x2="248" y2="700" gradientUnits="userSpaceOnUse">
<stop stop-color="#234345"/>
<stop offset="1" stop-color="#C2F5F8"/>
</linearGradient>
<clipPath id="clip0_374_573">
<rect width="496" height="700" fill="white"/>
</clipPath>
</defs>
</svg>
