<svg width="722" height="281" viewBox="0 0 722 281" fill="none" xmlns="http://www.w3.org/2000/svg"><g clip-path="url(#img-deco__a)"><path d="M77.19 158.31a277.19 277.19 0 0 0-2.558-1.994c.802.259 1.66.948 2.559 1.994 9.407 7.414 26.22 21.479 34.541 31.426 11.43 13.663 12.777 25.906 6.46 27.51-5.054 1.283-14.9-.583-19.192-1.676-4.519-16.709-14.51-48.763-21.81-57.26Z" fill="url(#img-deco__b)"/><path d="M157.423 202.469c4.569 1.286 9.045 7.467 10.712 10.396-10.426-6.541-22.451-7.39-28.141-4.504-5.689 2.885-9.486 16.64-16.642 24.899-7.156 8.26-72.924 15.891-54.609 11.486 18.316-4.405 24.264-14.283 32.245-28.181 7.982-13.898 14.65-18.248 23.843-24.173 9.193-5.925 17.336-2.94 21.485.639 4.149 3.579 5.396 7.83 11.107 9.438Z" fill="url(#img-deco__c)"/><path d="M63.344 171.962c-1.083-.481-2.08-.917-2.972-1.301.84.053 1.843.509 2.972 1.301 10.946 4.861 30.711 14.34 41.23 21.924 14.45 10.418 18.779 21.95 13.053 25.064-4.581 2.491-14.583 3.114-19.012 3.114-8.504-15.076-26.1-43.671-35.271-50.102Z" fill="url(#img-deco__d)"/><path d="M93.297 243.813c6.655-5.542 10.958-16.582 12.278-21.409-3.467 2.599-13.316 9.011-24.978 13.87-11.661 4.859-30.601 3.111-38.613 1.629 3.131 1.004 11.362 3.535 19.236 5.631 7.873 2.096 17.212 5.659 20.897 7.178.954.01 4.525-1.356 11.18-6.899Z" fill="url(#img-deco__e)"/><path d="M661.213 38.31c.93-.733 1.788-1.402 2.559-1.994-.802.259-1.66.948-2.559 1.994-9.407 7.414-26.22 21.48-34.541 31.426-11.43 13.663-12.778 25.906-6.46 27.51 5.054 1.283 14.9-.583 19.191-1.676 4.519-16.71 14.511-48.763 21.81-57.26Z" fill="url(#img-deco__f)"/><path d="M580.98 82.47c-4.569 1.285-9.045 7.466-10.711 10.395 10.426-6.541 22.451-7.39 28.14-4.504 5.69 2.885 9.487 16.64 16.643 24.899 7.156 8.26 72.924 15.891 54.608 11.486-18.315-4.405-24.264-14.283-32.245-28.181-7.981-13.898-14.649-18.248-23.842-24.173-9.193-5.925-17.337-2.94-21.486.639-4.148 3.58-5.395 7.83-11.107 9.438Z" fill="url(#img-deco__g)"/><path d="M675.06 51.962c1.082-.481 2.079-.917 2.972-1.302-.841.054-1.843.51-2.972 1.302-10.947 4.861-30.712 14.34-41.231 21.924-14.449 10.418-18.778 21.95-13.052 25.064 4.581 2.491 14.583 3.114 19.011 3.114 8.504-15.076 26.101-43.671 35.272-50.102Z" fill="url(#img-deco__h)"/><path d="M645.106 123.813c-6.654-5.542-10.958-16.582-12.278-21.409 3.467 2.599 13.317 9.011 24.978 13.87 11.662 4.859 30.602 3.111 38.614 1.629-3.131 1.004-11.362 3.535-19.236 5.631-7.874 2.096-17.212 5.659-20.897 7.178-.954.01-4.526-1.356-11.181-6.899Z" fill="url(#img-deco__i)"/><path opacity=".5" d="M212 281c0-80.081 64.919-145 145-145s145 64.919 145 145H212Z" fill="url(#img-deco__j)"/><path opacity=".5" d="M180 281c0-97.754 79.246-177 177-177s177 79.246 177 177H180Z" fill="url(#img-deco__k)"/><path opacity=".5" d="M148 281c0-115.428 93.572-210 209-210s209 94.572 209 210H148Z" fill="url(#img-deco__l)"/><path opacity=".5" d="M125 268c0-128.13 103.87-232 232-232s232 103.87 232 232v39H125v-39Z" fill="url(#img-deco__m)"/></g><defs><linearGradient id="img-deco__b" x1="100.505" y1="158.576" x2="95.471" y2="216.213" gradientUnits="userSpaceOnUse"><stop stop-color="#3D5E60"/><stop offset="1" stop-color="#3D5E60" stop-opacity="0"/></linearGradient><linearGradient id="img-deco__c" x1="153.849" y1="196.92" x2="88.792" y2="245.748" gradientUnits="userSpaceOnUse"><stop stop-color="#3D5E60"/><stop offset="1" stop-color="#3D5E60" stop-opacity="0"/></linearGradient><linearGradient id="img-deco__d" x1="86.002" y1="166.463" x2="95.354" y2="223.559" gradientUnits="userSpaceOnUse"><stop stop-color="#3D5E60"/><stop offset="1" stop-color="#3D5E60" stop-opacity="0"/></linearGradient><linearGradient id="img-deco__e" x1="105.897" y1="222.537" x2="66.588" y2="248.049" gradientUnits="userSpaceOnUse"><stop stop-color="#3D5E60"/><stop offset="1" stop-color="#3D5E60" stop-opacity="0"/></linearGradient><linearGradient id="img-deco__f" x1="637.899" y1="38.576" x2="642.933" y2="96.213" gradientUnits="userSpaceOnUse"><stop stop-color="#3D5E60"/><stop offset="1" stop-color="#3D5E60" stop-opacity="0"/></linearGradient><linearGradient id="img-deco__g" x1="584.554" y1="76.92" x2="649.611" y2="125.748" gradientUnits="userSpaceOnUse"><stop stop-color="#3D5E60"/><stop offset="1" stop-color="#3D5E60" stop-opacity="0"/></linearGradient><linearGradient id="img-deco__h" x1="652.402" y1="46.463" x2="643.05" y2="103.559" gradientUnits="userSpaceOnUse"><stop stop-color="#3D5E60"/><stop offset="1" stop-color="#3D5E60" stop-opacity="0"/></linearGradient><linearGradient id="img-deco__i" x1="632.506" y1="102.537" x2="671.815" y2="128.049" gradientUnits="userSpaceOnUse"><stop stop-color="#3D5E60"/><stop offset="1" stop-color="#3D5E60" stop-opacity="0"/></linearGradient><linearGradient id="img-deco__j" x1="357" y1="136" x2="357" y2="281" gradientUnits="userSpaceOnUse"><stop stop-color="#E8FEFF"/><stop offset="1" stop-color="#668B8D" stop-opacity="0"/></linearGradient><linearGradient id="img-deco__k" x1="357" y1="104" x2="357" y2="281" gradientUnits="userSpaceOnUse"><stop stop-color="#E8FEFF"/><stop offset="1" stop-color="#668B8D" stop-opacity="0"/></linearGradient><linearGradient id="img-deco__l" x1="357" y1="71" x2="357" y2="281" gradientUnits="userSpaceOnUse"><stop stop-color="#E8FEFF"/><stop offset="1" stop-color="#668B8D" stop-opacity="0"/></linearGradient><linearGradient id="img-deco__m" x1="357" y1="36" x2="357" y2="307" gradientUnits="userSpaceOnUse"><stop stop-color="#E8FEFF"/><stop offset="1" stop-color="#668B8D" stop-opacity="0"/></linearGradient><clipPath id="img-deco__a"><path fill="#fff" d="M0 0h722v281H0z"/></clipPath></defs></svg>