<svg width="761" height="507" viewBox="0 0 761 507" fill="none" xmlns="http://www.w3.org/2000/svg"><g clip-path="url(#img-hero__a)"><path opacity=".5" d="M149 232C149 103.87 252.87 0 381 0s232 103.87 232 232v320.817H149V232Z" fill="url(#img-hero__b)"/><path opacity=".5" d="M172.146 264.297c0-115.347 93.507-208.854 208.854-208.854 115.347 0 208.854 93.507 208.854 208.854v288.52H172.146v-288.52Z" fill="url(#img-hero__c)"/><path opacity=".5" d="M204.443 309.513c0-97.51 79.047-176.557 176.557-176.557 97.51 0 176.557 79.047 176.557 176.557v243.304H204.443V309.513Z" fill="url(#img-hero__d)"/><path opacity=".5" d="M236.202 353.652c0-79.97 64.828-144.798 144.798-144.798s144.798 64.828 144.798 144.798v199.165H236.202V353.652Z" fill="url(#img-hero__e)"/><path d="M589.213 112.31c.93-.733 1.788-1.402 2.559-1.994-.802.259-1.66.948-2.559 1.994-9.407 7.414-26.22 21.479-34.541 31.426-11.43 13.663-12.778 25.906-6.46 27.51 5.054 1.283 14.9-.583 19.191-1.676 4.519-16.709 14.511-48.763 21.81-57.26Z" fill="url(#img-hero__f)"/><path d="M508.98 156.469c-4.569 1.286-9.045 7.467-10.711 10.396 10.426-6.541 22.451-7.39 28.14-4.504 5.69 2.885 9.487 16.64 16.643 24.899 7.156 8.26 72.924 15.891 54.608 11.486-18.315-4.405-24.264-14.283-32.245-28.181-7.981-13.899-14.65-18.248-23.842-24.173-9.193-5.925-17.337-2.94-21.486.639-4.148 3.579-5.395 7.83-11.107 9.438Z" fill="url(#img-hero__g)"/><path d="M603.06 125.961c1.083-.48 2.079-.916 2.972-1.301-.841.054-1.843.509-2.972 1.301-10.947 4.862-30.712 14.341-41.231 21.925-14.449 10.418-18.778 21.95-13.052 25.064 4.581 2.491 14.583 3.114 19.011 3.114 8.505-15.076 26.101-43.671 35.272-50.103Z" fill="url(#img-hero__h)"/><path d="M573.106 197.813c-6.654-5.542-10.958-16.582-12.278-21.409 3.467 2.599 13.317 9.011 24.978 13.87 11.662 4.859 30.602 3.111 38.614 1.629-3.131 1.004-11.362 3.535-19.236 5.631-7.874 2.096-17.212 5.659-20.897 7.178-.954.01-4.526-1.356-11.181-6.899Z" fill="url(#img-hero__i)"/><path d="M680.634 384.948s-2.581-41.201-29.567-64.765-60.521-29.314-68.159-20.567c-7.637 8.747 2.152 41.692 29.138 65.256s68.588 20.076 68.588 20.076Z" fill="url(#img-hero__j)"/><path d="M719.709 276.635s-38.986-23.387-77.213-13.622c-38.227 9.766-64.385 36.595-61.219 48.986 3.165 12.39 39.163 24.083 77.39 14.317 38.227-9.765 61.042-49.681 61.042-49.681Z" fill="url(#img-hero__k)"/><path d="M490.408 324.574s-.971 31.003 17.558 50.53c18.528 19.528 43.21 26.19 49.54 20.185 6.329-6.006 1.325-31.34-17.203-50.868-18.529-19.527-49.895-19.847-49.895-19.847Z" fill="url(#img-hero__l)"/><path d="M630.37 248.048c-3.372 1.97-8.182 5.5-13.772 10.636M561.869 524.37c-1.291-6.515-4.122-41.242-4.129-81.515m58.858-184.171c-12.994 11.938-30.198 32.553-43.331 62.432-12.218 27.8-15.535 78.035-15.527 121.739m58.858-184.171 18.712-2.6m-77.57 186.771-6.799-12.359" stroke="url(#img-hero__m)" stroke-width="3" stroke-linecap="round"/><path d="M172.201 112.31c-.93-.733-1.788-1.402-2.558-1.994.802.259 1.66.948 2.558 1.994 9.408 7.414 26.22 21.479 34.541 31.426 11.43 13.663 12.778 25.906 6.461 27.51-5.054 1.283-14.9-.583-19.192-1.676-4.519-16.709-14.51-48.763-21.81-57.26Z" fill="url(#img-hero__n)"/><path d="M252.434 156.469c4.569 1.286 9.045 7.467 10.712 10.396-10.427-6.541-22.451-7.39-28.141-4.504-5.689 2.885-9.487 16.64-16.643 24.899-7.155 8.26-72.924 15.891-54.608 11.486 18.315-4.405 24.264-14.283 32.245-28.181 7.981-13.899 14.65-18.248 23.843-24.173 9.193-5.925 17.336-2.94 21.485.639 4.149 3.579 5.395 7.83 11.107 9.438Z" fill="url(#img-hero__o)"/><path d="M158.355 125.961c-1.083-.48-2.08-.916-2.972-1.301.841.054 1.842.509 2.972 1.301 10.946 4.862 30.711 14.341 41.23 21.925 14.449 10.418 18.778 21.95 13.052 25.064-4.58 2.491-14.582 3.114-19.011 3.114-8.504-15.076-26.101-43.671-35.271-50.103Z" fill="url(#img-hero__p)"/><path d="M188.308 197.813c6.655-5.542 10.958-16.582 12.278-21.409-3.467 2.599-13.316 9.011-24.978 13.87s-30.601 3.111-38.613 1.629c3.131 1.004 11.362 3.535 19.235 5.631 7.874 2.096 17.212 5.659 20.897 7.178.954.01 4.526-1.356 11.181-6.899Z" fill="url(#img-hero__q)"/><path d="M80.78 384.948s2.58-41.201 29.567-64.765c26.986-23.564 60.522-29.314 68.159-20.567 7.638 8.747-2.152 41.692-29.138 65.256s-68.587 20.076-68.587 20.076Z" fill="url(#img-hero__r)"/><path d="M41.706 276.635s38.986-23.387 77.212-13.622c38.227 9.766 64.385 36.595 61.22 48.986-3.165 12.39-39.164 24.083-77.391 14.317-38.227-9.765-61.041-49.681-61.041-49.681Z" fill="url(#img-hero__s)"/><path d="M271.007 324.574s.97 31.003-17.559 50.53c-18.528 19.528-43.21 26.19-49.539 20.185-6.33-6.006-1.326-31.34 17.202-50.868 18.529-19.527 49.896-19.847 49.896-19.847Z" fill="url(#img-hero__t)"/><path d="M131.045 248.048c3.371 1.97 8.182 5.5 13.772 10.636m54.728 265.686c1.291-6.515 4.122-41.242 4.13-81.515m-58.858-184.171c12.993 11.938 30.198 32.553 43.33 62.432 12.219 27.8 15.536 78.035 15.528 121.739m-58.858-184.171-18.713-2.6m77.571 186.771 6.799-12.359" stroke="url(#img-hero__u)" stroke-width="3" stroke-linecap="round"/></g><defs><linearGradient id="img-hero__b" x1="381" y1="0" x2="381" y2="552.817" gradientUnits="userSpaceOnUse"><stop stop-color="#E8FEFF"/><stop offset="1" stop-color="#668B8D" stop-opacity="0"/></linearGradient><linearGradient id="img-hero__c" x1="381" y1="55.443" x2="381" y2="552.817" gradientUnits="userSpaceOnUse"><stop stop-color="#E8FEFF"/><stop offset="1" stop-color="#668B8D" stop-opacity="0"/></linearGradient><linearGradient id="img-hero__d" x1="381" y1="132.956" x2="381" y2="552.817" gradientUnits="userSpaceOnUse"><stop stop-color="#E8FEFF"/><stop offset="1" stop-color="#668B8D" stop-opacity="0"/></linearGradient><linearGradient id="img-hero__e" x1="381" y1="208.854" x2="381" y2="552.817" gradientUnits="userSpaceOnUse"><stop stop-color="#E8FEFF"/><stop offset="1" stop-color="#668B8D" stop-opacity="0"/></linearGradient><linearGradient id="img-hero__f" x1="565.899" y1="112.576" x2="570.933" y2="170.213" gradientUnits="userSpaceOnUse"><stop stop-color="#3D5E60"/><stop offset="1" stop-color="#3D5E60" stop-opacity="0"/></linearGradient><linearGradient id="img-hero__g" x1="512.554" y1="150.92" x2="577.611" y2="199.748" gradientUnits="userSpaceOnUse"><stop stop-color="#3D5E60"/><stop offset="1" stop-color="#3D5E60" stop-opacity="0"/></linearGradient><linearGradient id="img-hero__h" x1="580.402" y1="120.463" x2="571.05" y2="177.559" gradientUnits="userSpaceOnUse"><stop stop-color="#3D5E60"/><stop offset="1" stop-color="#3D5E60" stop-opacity="0"/></linearGradient><linearGradient id="img-hero__i" x1="560.506" y1="176.537" x2="599.815" y2="202.049" gradientUnits="userSpaceOnUse"><stop stop-color="#3D5E60"/><stop offset="1" stop-color="#3D5E60" stop-opacity="0"/></linearGradient><linearGradient id="img-hero__j" x1="584.868" y1="296.86" x2="681.774" y2="385.587" gradientUnits="userSpaceOnUse"><stop stop-color="#43696B"/><stop offset="1" stop-color="#4E9599" stop-opacity=".06"/></linearGradient><linearGradient id="img-hero__k" x1="580" y1="308.5" x2="721" y2="276" gradientUnits="userSpaceOnUse"><stop stop-color="#43696B"/><stop offset="1" stop-color="#4E9599" stop-opacity=".06"/></linearGradient><linearGradient id="img-hero__l" x1="555.846" y1="397.213" x2="489.6" y2="324.016" gradientUnits="userSpaceOnUse"><stop stop-color="#43696B"/><stop offset="1" stop-color="#4E9599" stop-opacity=".06"/></linearGradient><linearGradient id="img-hero__m" x1="629.236" y1="247.161" x2="553.59" y2="524.946" gradientUnits="userSpaceOnUse"><stop stop-color="#4A7B7D"/><stop offset="1" stop-color="#9BD8DB" stop-opacity=".78"/></linearGradient><linearGradient id="img-hero__n" x1="195.516" y1="112.576" x2="190.481" y2="170.213" gradientUnits="userSpaceOnUse"><stop stop-color="#3D5E60"/><stop offset="1" stop-color="#3D5E60" stop-opacity="0"/></linearGradient><linearGradient id="img-hero__o" x1="248.86" y1="150.92" x2="183.803" y2="199.748" gradientUnits="userSpaceOnUse"><stop stop-color="#3D5E60"/><stop offset="1" stop-color="#3D5E60" stop-opacity="0"/></linearGradient><linearGradient id="img-hero__p" x1="181.013" y1="120.463" x2="190.364" y2="177.559" gradientUnits="userSpaceOnUse"><stop stop-color="#3D5E60"/><stop offset="1" stop-color="#3D5E60" stop-opacity="0"/></linearGradient><linearGradient id="img-hero__q" x1="200.908" y1="176.537" x2="161.599" y2="202.049" gradientUnits="userSpaceOnUse"><stop stop-color="#3D5E60"/><stop offset="1" stop-color="#3D5E60" stop-opacity="0"/></linearGradient><linearGradient id="img-hero__r" x1="176.547" y1="296.86" x2="79.64" y2="385.587" gradientUnits="userSpaceOnUse"><stop stop-color="#43696B"/><stop offset="1" stop-color="#4E9599" stop-opacity=".06"/></linearGradient><linearGradient id="img-hero__s" x1="181.414" y1="308.5" x2="40.414" y2="276" gradientUnits="userSpaceOnUse"><stop stop-color="#43696B"/><stop offset="1" stop-color="#4E9599" stop-opacity=".06"/></linearGradient><linearGradient id="img-hero__t" x1="205.569" y1="397.213" x2="271.815" y2="324.016" gradientUnits="userSpaceOnUse"><stop stop-color="#43696B"/><stop offset="1" stop-color="#4E9599" stop-opacity=".06"/></linearGradient><linearGradient id="img-hero__u" x1="132.179" y1="247.161" x2="207.824" y2="524.946" gradientUnits="userSpaceOnUse"><stop stop-color="#4A7B7D"/><stop offset="1" stop-color="#9BD8DB" stop-opacity=".78"/></linearGradient><clipPath id="img-hero__a"><path fill="#fff" d="M0 0h761v507H0z"/></clipPath></defs></svg>