<svg width="611" height="609" viewBox="0 0 611 609" fill="none" xmlns="http://www.w3.org/2000/svg">
<path d="M31 37.0137H248V139.014C248 202.526 196.513 254.014 133 254.014H31V37.0137Z" fill="#F1FCFA"/>
<g clip-path="url(#clip0_3053_6377)">
<path d="M139.5 134.68C124.772 134.68 112.833 122.741 112.833 108.013C112.833 93.2853 124.772 81.3467 139.5 81.3467C154.228 81.3467 166.167 93.2853 166.167 108.013C166.167 122.741 154.228 134.68 139.5 134.68ZM139.5 129.347C145.158 129.347 150.584 127.099 154.585 123.098C158.586 119.098 160.833 113.671 160.833 108.013C160.833 102.355 158.586 96.9292 154.585 92.9284C150.584 88.9276 145.158 86.68 139.5 86.68C133.842 86.68 128.416 88.9276 124.415 92.9284C120.414 96.9292 118.167 102.355 118.167 108.013C118.167 113.671 120.414 119.098 124.415 123.098C128.416 127.099 133.842 129.347 139.5 129.347ZM126.167 108.013H131.5C131.5 110.135 132.343 112.17 133.843 113.67C135.343 115.17 137.378 116.013 139.5 116.013C141.622 116.013 143.657 115.17 145.157 113.67C146.657 112.17 147.5 110.135 147.5 108.013H152.833C152.833 111.55 151.429 114.941 148.928 117.441C146.428 119.942 143.036 121.347 139.5 121.347C135.964 121.347 132.572 119.942 130.072 117.441C127.571 114.941 126.167 111.55 126.167 108.013Z" fill="#090909"/>
</g>
<path d="M115.8 164.302C114.344 164.302 113.104 164.046 112.08 163.534C111.056 163.006 110.272 162.27 109.728 161.326C109.184 160.382 108.912 159.278 108.912 158.014V147.262H112.872V158.014C112.872 158.638 112.992 159.174 113.232 159.622C113.472 160.07 113.808 160.422 114.24 160.678C114.688 160.918 115.208 161.038 115.8 161.038C116.408 161.038 116.928 160.918 117.36 160.678C117.792 160.422 118.128 160.07 118.368 159.622C118.608 159.174 118.728 158.638 118.728 158.014V147.262H122.688V158.014C122.688 159.278 122.416 160.382 121.872 161.326C121.328 162.27 120.544 163.006 119.52 163.534C118.496 164.046 117.256 164.302 115.8 164.302ZM131.745 164.302C130.497 164.302 129.401 164.102 128.457 163.702C127.513 163.286 126.777 162.702 126.249 161.95C125.737 161.182 125.473 160.278 125.457 159.238H128.937C128.905 159.974 129.137 160.55 129.633 160.966C130.145 161.382 130.841 161.59 131.721 161.59C132.361 161.59 132.873 161.486 133.257 161.278C133.657 161.054 133.857 160.75 133.857 160.366C133.857 160.03 133.705 159.766 133.401 159.574C133.113 159.366 132.729 159.206 132.249 159.094C131.769 158.966 131.241 158.846 130.665 158.734C130.089 158.606 129.505 158.454 128.913 158.278C128.337 158.102 127.809 157.87 127.329 157.582C126.849 157.278 126.457 156.886 126.153 156.406C125.865 155.91 125.721 155.294 125.721 154.558C125.721 153.71 125.961 152.974 126.441 152.35C126.921 151.726 127.585 151.246 128.433 150.91C129.297 150.558 130.289 150.382 131.409 150.382C133.121 150.382 134.505 150.782 135.561 151.582C136.633 152.366 137.225 153.47 137.337 154.894H133.881C133.849 154.302 133.609 153.854 133.161 153.55C132.713 153.246 132.137 153.094 131.433 153.094C130.841 153.094 130.369 153.198 130.017 153.406C129.665 153.614 129.489 153.926 129.489 154.342C129.489 154.678 129.633 154.942 129.921 155.134C130.225 155.31 130.617 155.454 131.097 155.566C131.577 155.678 132.105 155.782 132.681 155.878C133.273 155.974 133.857 156.11 134.433 156.286C135.009 156.446 135.537 156.67 136.017 156.958C136.497 157.246 136.881 157.63 137.169 158.11C137.473 158.59 137.625 159.206 137.625 159.958C137.625 161.318 137.089 162.382 136.017 163.15C134.961 163.918 133.537 164.302 131.745 164.302ZM147.139 164.302C145.699 164.302 144.459 164.022 143.419 163.462C142.395 162.902 141.603 162.102 141.043 161.062C140.483 160.022 140.203 158.782 140.203 157.342C140.203 155.886 140.483 154.638 141.043 153.598C141.603 152.558 142.411 151.766 143.467 151.222C144.539 150.662 145.827 150.382 147.331 150.382C149.683 150.382 151.387 151.054 152.443 152.398C153.515 153.726 153.963 155.558 153.787 157.894H143.179L143.203 155.326H149.971C149.923 154.718 149.651 154.23 149.155 153.862C148.659 153.478 148.043 153.286 147.307 153.286C146.155 153.286 145.307 153.646 144.763 154.366C144.219 155.086 143.947 156.134 143.947 157.51C143.947 158.198 144.067 158.83 144.307 159.406C144.547 159.982 144.899 160.446 145.363 160.798C145.843 161.134 146.435 161.302 147.139 161.302C147.891 161.302 148.523 161.118 149.035 160.75C149.563 160.382 149.883 159.918 149.995 159.358H153.739C153.579 160.878 152.907 162.086 151.723 162.982C150.555 163.862 149.027 164.302 147.139 164.302ZM165.484 157.342V155.542C165.484 154.934 165.324 154.446 165.004 154.078C164.684 153.694 164.204 153.502 163.564 153.502C162.844 153.502 162.164 153.742 161.524 154.222C160.884 154.702 160.276 155.534 159.7 156.718L159.316 153.574C159.732 152.87 160.188 152.286 160.684 151.822C161.18 151.342 161.724 150.982 162.316 150.742C162.924 150.502 163.588 150.382 164.308 150.382C165.732 150.382 166.908 150.822 167.836 151.702C168.764 152.566 169.228 153.846 169.228 155.542V157.342H165.484ZM156.58 164.014V150.67H160.18L160.324 153.07V164.014H156.58Z" fill="#090909"/>
<path d="M92.8768 188.206C92.0448 188.206 91.3141 188.051 90.6848 187.742C90.0554 187.422 89.5648 186.958 89.2128 186.35C88.8714 185.731 88.7008 184.974 88.7008 184.078H89.7728C89.7728 185.091 90.0554 185.875 90.6208 186.43C91.1861 186.974 91.9328 187.246 92.8608 187.246C93.6714 187.246 94.3274 187.054 94.8288 186.67C95.3408 186.286 95.5968 185.752 95.5968 185.07C95.5968 184.611 95.4741 184.243 95.2288 183.966C94.9834 183.688 94.6581 183.464 94.2528 183.294C93.8581 183.123 93.4208 182.974 92.9408 182.846C92.4714 182.718 91.9968 182.584 91.5168 182.446C91.0474 182.307 90.6101 182.131 90.2048 181.918C89.8101 181.694 89.4901 181.406 89.2448 181.054C88.9994 180.702 88.8768 180.248 88.8768 179.694C88.8768 179.086 89.0314 178.558 89.3408 178.11C89.6501 177.651 90.0821 177.294 90.6368 177.038C91.2021 176.782 91.8634 176.654 92.6208 176.654C93.3888 176.654 94.0661 176.792 94.6528 177.07C95.2394 177.347 95.6981 177.731 96.0288 178.222C96.3701 178.712 96.5461 179.299 96.5568 179.982H95.4848C95.4741 179.512 95.3461 179.102 95.1008 178.75C94.8554 178.387 94.5141 178.11 94.0768 177.918C93.6501 177.715 93.1648 177.614 92.6208 177.614C91.8421 177.614 91.2128 177.8 90.7328 178.174C90.2634 178.547 90.0288 179.043 90.0288 179.662C90.0288 180.078 90.1514 180.408 90.3968 180.654C90.6421 180.899 90.9621 181.102 91.3568 181.262C91.7621 181.411 92.1994 181.55 92.6688 181.678C93.1488 181.795 93.6234 181.928 94.0928 182.078C94.5728 182.216 95.0101 182.403 95.4048 182.638C95.8101 182.872 96.1354 183.182 96.3808 183.566C96.6261 183.95 96.7488 184.44 96.7488 185.038C96.7488 185.71 96.5781 186.28 96.2368 186.75C95.8954 187.219 95.4314 187.582 94.8448 187.838C94.2581 188.083 93.6021 188.206 92.8768 188.206ZM103.155 188.206C102.28 188.206 101.523 188.024 100.883 187.662C100.243 187.288 99.7523 186.76 99.411 186.078C99.0697 185.395 98.899 184.579 98.899 183.63C98.899 182.702 99.0697 181.896 99.411 181.214C99.7523 180.531 100.243 180.008 100.883 179.646C101.534 179.272 102.302 179.086 103.187 179.086C104.488 179.086 105.48 179.443 106.163 180.158C106.856 180.872 107.171 181.859 107.107 183.118H99.715L99.731 182.254L106.051 182.27C106.008 181.555 105.726 180.995 105.203 180.59C104.691 180.184 104.019 179.982 103.187 179.982C102.163 179.982 101.363 180.307 100.787 180.958C100.222 181.608 99.939 182.504 99.939 183.646C99.939 184.382 100.067 185.027 100.323 185.582C100.579 186.136 100.947 186.563 101.427 186.862C101.907 187.16 102.483 187.31 103.155 187.31C103.976 187.31 104.659 187.118 105.203 186.734C105.747 186.339 106.083 185.811 106.211 185.15H107.235C107.075 186.099 106.632 186.846 105.907 187.39C105.182 187.934 104.264 188.206 103.155 188.206ZM116.825 188.014V181.486C116.825 181.006 116.735 180.638 116.553 180.382C116.372 180.115 116.111 179.982 115.769 179.982C115.279 179.982 114.841 180.28 114.457 180.878C114.084 181.464 113.839 182.344 113.721 183.518L113.593 182.062C113.679 181.102 113.945 180.366 114.393 179.854C114.841 179.342 115.364 179.086 115.961 179.086C116.548 179.086 117.001 179.294 117.321 179.71C117.641 180.126 117.801 180.707 117.801 181.454V188.014H116.825ZM109.161 188.014V179.278H110.073L110.137 181.038V188.014H109.161ZM112.985 188.014V181.486C112.985 180.995 112.889 180.622 112.697 180.366C112.516 180.11 112.244 179.982 111.881 179.982C111.391 179.982 110.959 180.28 110.585 180.878C110.212 181.475 109.967 182.355 109.849 183.518L109.785 182.046C109.849 181.406 109.988 180.867 110.201 180.43C110.425 179.992 110.697 179.662 111.017 179.438C111.348 179.203 111.7 179.086 112.073 179.086C112.692 179.086 113.161 179.294 113.481 179.71C113.812 180.126 113.977 180.707 113.977 181.454V188.014H112.985ZM126.576 188.014L126.512 185.742V182.398C126.512 181.64 126.272 181.043 125.792 180.606C125.312 180.158 124.656 179.934 123.824 179.934C123.034 179.934 122.384 180.126 121.872 180.51C121.36 180.894 121.082 181.416 121.039 182.078H120.016C120.058 181.448 120.245 180.915 120.576 180.478C120.917 180.03 121.365 179.688 121.92 179.454C122.485 179.208 123.125 179.086 123.84 179.086C124.597 179.086 125.253 179.219 125.808 179.486C126.362 179.752 126.789 180.136 127.088 180.638C127.386 181.139 127.536 181.736 127.536 182.43V188.014H126.576ZM123.168 188.206C122.602 188.206 122.101 188.11 121.664 187.918C121.226 187.726 120.885 187.443 120.64 187.07C120.405 186.686 120.288 186.232 120.288 185.71C120.288 184.803 120.634 184.099 121.328 183.598C122.021 183.096 122.992 182.846 124.24 182.846H126.704V183.694L124.176 183.71C123.28 183.71 122.581 183.886 122.08 184.238C121.578 184.579 121.328 185.059 121.328 185.678C121.328 186.211 121.504 186.616 121.856 186.894C122.218 187.171 122.693 187.31 123.28 187.31C124.016 187.31 124.666 187.107 125.232 186.702C125.797 186.286 126.25 185.715 126.592 184.99L126.72 185.838C126.432 186.584 125.989 187.166 125.392 187.582C124.794 187.998 124.053 188.206 123.168 188.206ZM134.662 179.086C135.451 179.086 136.139 179.278 136.726 179.662C137.323 180.035 137.792 180.563 138.134 181.246C138.475 181.928 138.646 182.728 138.646 183.646C138.646 184.552 138.475 185.352 138.134 186.046C137.792 186.728 137.323 187.262 136.726 187.646C136.139 188.019 135.451 188.206 134.662 188.206C134 188.206 133.398 188.067 132.854 187.79C132.32 187.502 131.894 187.112 131.574 186.622V190.862H130.55V179.278H131.494L131.542 180.702C131.862 180.211 132.294 179.822 132.838 179.534C133.382 179.235 133.99 179.086 134.662 179.086ZM134.502 187.31C135.131 187.31 135.675 187.155 136.134 186.846C136.592 186.536 136.95 186.11 137.206 185.566C137.462 185.011 137.59 184.371 137.59 183.646C137.59 182.91 137.462 182.27 137.206 181.726C136.95 181.171 136.592 180.744 136.134 180.446C135.675 180.136 135.131 179.982 134.502 179.982C133.862 179.982 133.275 180.158 132.742 180.51C132.219 180.851 131.83 181.331 131.574 181.95V185.326C131.83 185.944 132.219 186.43 132.742 186.782C133.275 187.134 133.862 187.31 134.502 187.31ZM147.484 188.014V182.446C147.484 181.71 147.265 181.118 146.828 180.67C146.401 180.222 145.841 179.998 145.148 179.998C144.369 179.998 143.676 180.296 143.068 180.894C142.471 181.48 142.06 182.371 141.836 183.566L141.628 181.982C141.916 181.054 142.385 180.339 143.036 179.838C143.697 179.336 144.439 179.086 145.26 179.086C145.921 179.086 146.492 179.224 146.972 179.502C147.463 179.779 147.841 180.168 148.108 180.67C148.375 181.171 148.508 181.758 148.508 182.43V188.014H147.484ZM140.972 188.014V176.286H142.012V188.014H140.972ZM155.09 188.206C154.205 188.206 153.442 188.024 152.802 187.662C152.162 187.288 151.672 186.76 151.33 186.078C150.989 185.384 150.818 184.574 150.818 183.646C150.818 182.696 150.989 181.886 151.33 181.214C151.672 180.531 152.162 180.008 152.802 179.646C153.442 179.272 154.205 179.086 155.09 179.086C156.424 179.086 157.469 179.491 158.226 180.302C158.994 181.112 159.378 182.227 159.378 183.646C159.378 184.574 159.202 185.384 158.85 186.078C158.509 186.76 158.018 187.288 157.378 187.662C156.738 188.024 155.976 188.206 155.09 188.206ZM155.09 187.31C156.093 187.31 156.882 186.984 157.458 186.334C158.034 185.672 158.322 184.776 158.322 183.646C158.322 182.504 158.034 181.608 157.458 180.958C156.882 180.307 156.093 179.982 155.09 179.982C154.088 179.982 153.298 180.307 152.722 180.958C152.157 181.608 151.874 182.504 151.874 183.646C151.874 184.776 152.157 185.672 152.722 186.334C153.298 186.984 154.088 187.31 155.09 187.31ZM168.249 182.622V181.662C168.249 181.16 168.083 180.76 167.753 180.462C167.433 180.152 166.979 179.998 166.393 179.998C165.614 179.998 164.931 180.307 164.345 180.926C163.758 181.534 163.337 182.419 163.081 183.582L162.873 182.254C163.075 181.56 163.347 180.979 163.689 180.51C164.03 180.04 164.435 179.688 164.905 179.454C165.385 179.208 165.907 179.086 166.473 179.086C167.315 179.086 167.993 179.32 168.505 179.79C169.017 180.248 169.273 180.872 169.273 181.662V182.622H168.249ZM162.281 188.014V179.278H163.209L163.305 181.55V188.014H162.281ZM175.999 188.206C175.124 188.206 174.367 188.024 173.727 187.662C173.087 187.288 172.596 186.76 172.255 186.078C171.913 185.395 171.743 184.579 171.743 183.63C171.743 182.702 171.913 181.896 172.255 181.214C172.596 180.531 173.087 180.008 173.727 179.646C174.377 179.272 175.145 179.086 176.031 179.086C177.332 179.086 178.324 179.443 179.007 180.158C179.7 180.872 180.015 181.859 179.951 183.118H172.559L172.575 182.254L178.895 182.27C178.852 181.555 178.569 180.995 178.047 180.59C177.535 180.184 176.863 179.982 176.031 179.982C175.007 179.982 174.207 180.307 173.631 180.958C173.065 181.608 172.783 182.504 172.783 183.646C172.783 184.382 172.911 185.027 173.167 185.582C173.423 186.136 173.791 186.563 174.271 186.862C174.751 187.16 175.327 187.31 175.999 187.31C176.82 187.31 177.503 187.118 178.047 186.734C178.591 186.339 178.927 185.811 179.055 185.15H180.079C179.919 186.099 179.476 186.846 178.751 187.39C178.025 187.934 177.108 188.206 175.999 188.206ZM102.691 210.014V201.278H103.731V210.014H102.691ZM99.219 210.014V209.166H106.835V210.014H99.219ZM100.403 202.126V201.278H103.203V202.126H100.403ZM102.563 199.566V198.206H103.811V199.566H102.563ZM113.113 201.086C113.775 201.086 114.372 201.224 114.905 201.502C115.449 201.779 115.876 202.163 116.185 202.654V198.302H117.225V210.014H116.265L116.217 208.574C115.919 209.064 115.492 209.459 114.937 209.758C114.393 210.056 113.785 210.206 113.113 210.206C112.324 210.206 111.631 210.019 111.033 209.646C110.436 209.262 109.967 208.728 109.625 208.046C109.295 207.352 109.129 206.552 109.129 205.646C109.129 204.728 109.295 203.928 109.625 203.246C109.967 202.563 110.436 202.035 111.033 201.662C111.631 201.278 112.324 201.086 113.113 201.086ZM113.273 209.31C113.924 209.31 114.511 209.134 115.033 208.782C115.556 208.419 115.94 207.928 116.185 207.31V203.966C115.94 203.336 115.556 202.851 115.033 202.51C114.511 202.158 113.924 201.982 113.273 201.982C112.644 201.982 112.1 202.136 111.641 202.446C111.183 202.744 110.82 203.171 110.553 203.726C110.297 204.27 110.169 204.91 110.169 205.646C110.169 206.371 110.297 207.011 110.553 207.566C110.82 208.11 111.183 208.536 111.641 208.846C112.1 209.155 112.644 209.31 113.273 209.31ZM123.968 210.206C123.093 210.206 122.336 210.024 121.696 209.662C121.056 209.288 120.565 208.76 120.224 208.078C119.882 207.395 119.712 206.579 119.712 205.63C119.712 204.702 119.882 203.896 120.224 203.214C120.565 202.531 121.056 202.008 121.696 201.646C122.346 201.272 123.114 201.086 124 201.086C125.301 201.086 126.293 201.443 126.976 202.158C127.669 202.872 127.984 203.859 127.92 205.118H120.528L120.544 204.254L126.864 204.27C126.821 203.555 126.538 202.995 126.016 202.59C125.504 202.184 124.832 201.982 124 201.982C122.976 201.982 122.176 202.307 121.6 202.958C121.034 203.608 120.752 204.504 120.752 205.646C120.752 206.382 120.88 207.027 121.136 207.582C121.392 208.136 121.76 208.563 122.24 208.862C122.72 209.16 123.296 209.31 123.968 209.31C124.789 209.31 125.472 209.118 126.016 208.734C126.56 208.339 126.896 207.811 127.024 207.15H128.048C127.888 208.099 127.445 208.846 126.72 209.39C125.994 209.934 125.077 210.206 123.968 210.206ZM137.078 210.014V204.43C137.078 203.694 136.859 203.107 136.422 202.67C135.995 202.222 135.435 201.998 134.742 201.998C133.963 201.998 133.27 202.296 132.662 202.894C132.064 203.48 131.654 204.371 131.43 205.566L131.222 203.966C131.51 203.048 131.979 202.339 132.63 201.838C133.291 201.336 134.032 201.086 134.854 201.086C135.515 201.086 136.086 201.224 136.566 201.502C137.056 201.779 137.435 202.168 137.702 202.67C137.968 203.171 138.102 203.752 138.102 204.414V210.014H137.078ZM130.566 210.014V201.278H131.526L131.606 203.534V210.014H130.566ZM145.42 210.014C144.897 210.014 144.471 209.923 144.14 209.742C143.809 209.56 143.564 209.294 143.404 208.942C143.244 208.59 143.164 208.163 143.164 207.662V199.502L144.188 198.782V207.662C144.188 207.918 144.225 208.163 144.3 208.398C144.375 208.632 144.519 208.819 144.732 208.958C144.956 209.096 145.292 209.166 145.74 209.166H148.636V210.014H145.42ZM140.86 202.126V201.278H147.356V202.126H140.86ZM154.722 210.014V201.278H155.762V210.014H154.722ZM151.25 210.014V209.166H158.866V210.014H151.25ZM152.434 202.126V201.278H155.234V202.126H152.434ZM154.594 199.566V198.206H155.842V199.566H154.594ZM166.233 210.014C165.71 210.014 165.283 209.923 164.953 209.742C164.622 209.56 164.377 209.294 164.217 208.942C164.057 208.59 163.977 208.163 163.977 207.662V199.502L165.001 198.782V207.662C165.001 207.918 165.038 208.163 165.113 208.398C165.187 208.632 165.331 208.819 165.545 208.958C165.769 209.096 166.105 209.166 166.553 209.166H169.449V210.014H166.233ZM161.673 202.126V201.278H168.169V202.126H161.673ZM175.087 206.478L175.935 208.606L176.799 206.462L179.007 201.278H180.095L175.919 211.086C175.695 211.608 175.46 212.014 175.215 212.302C174.98 212.59 174.713 212.787 174.415 212.894C174.116 213 173.764 213.054 173.359 213.054H171.855V212.206H173.343C173.609 212.206 173.839 212.152 174.031 212.046C174.223 211.939 174.399 211.758 174.559 211.502C174.719 211.256 174.889 210.915 175.071 210.478L175.391 209.742L171.775 201.278H172.879L175.087 206.478Z" fill="#090909"/>
<path d="M31 37.0137H248V139.014C248 202.526 196.513 254.014 133 254.014H31V37.0137Z" stroke="url(#paint0_linear_3053_6377)" stroke-width="10"/>
<path d="M348 470.014C348 406.501 399.487 355.014 463 355.014H565V572.014H348V470.014Z" fill="#F1FCFA"/>
<path d="M442.333 421.68C443.622 421.68 444.667 420.636 444.667 419.347C444.667 418.058 443.622 417.014 442.333 417.014C441.045 417.014 440 418.058 440 419.347C440 420.636 441.045 421.68 442.333 421.68Z" fill="#090909"/>
<path d="M451.667 419.347C451.667 420.636 450.622 421.68 449.333 421.68C448.045 421.68 447 420.636 447 419.347C447 418.058 448.045 417.014 449.333 417.014C450.622 417.014 451.667 418.058 451.667 419.347Z" fill="#090909"/>
<path d="M456.333 421.68C457.622 421.68 458.667 420.636 458.667 419.347C458.667 418.058 457.622 417.014 456.333 417.014C455.045 417.014 454 418.058 454 419.347C454 420.636 455.045 421.68 456.333 421.68Z" fill="#090909"/>
<path fill-rule="evenodd" clip-rule="evenodd" d="M440 410.014C436.134 410.014 433 413.148 433 417.014V445.014C433 448.88 436.134 452.014 440 452.014H482C485.866 452.014 489 448.88 489 445.014V417.014C489 413.148 485.866 410.014 482 410.014H440ZM482 414.68H440C438.711 414.68 437.667 415.725 437.667 417.014V424.014H484.333V417.014C484.333 415.725 483.289 414.68 482 414.68ZM437.667 445.014V428.68H484.333V445.014C484.333 446.302 483.289 447.347 482 447.347H440C438.711 447.347 437.667 446.302 437.667 445.014Z" fill="#090909"/>
<path d="M401.62 479.798V476.558H411.484V479.798H401.62ZM403.324 466.262H409.252L413.5 483.014H409.468L407.284 473.51L406.276 469.046L405.244 473.51L403.012 483.014H399.1L403.324 466.262ZM422.989 483.014C422.093 483.014 421.301 482.814 420.613 482.414C419.941 481.998 419.421 481.43 419.053 480.71C418.685 479.974 418.501 479.142 418.501 478.214V467.438L422.245 465.758V478.214C422.245 478.63 422.301 478.974 422.413 479.246C422.541 479.502 422.765 479.694 423.085 479.822C423.421 479.934 423.885 479.99 424.477 479.99H427.861V483.014H422.989ZM415.861 472.694V469.67H425.485V472.694H415.861ZM438.599 483.014C437.703 483.014 436.911 482.814 436.223 482.414C435.551 481.998 435.031 481.43 434.663 480.71C434.295 479.974 434.111 479.142 434.111 478.214V467.438L437.855 465.758V478.214C437.855 478.63 437.911 478.974 438.023 479.246C438.151 479.502 438.375 479.694 438.695 479.822C439.031 479.934 439.495 479.99 440.087 479.99H443.471V483.014H438.599ZM431.471 472.694V469.67H441.095V472.694H431.471ZM453.248 483.302C451.808 483.302 450.568 483.022 449.528 482.462C448.504 481.902 447.712 481.102 447.152 480.062C446.592 479.022 446.312 477.782 446.312 476.342C446.312 474.886 446.592 473.638 447.152 472.598C447.712 471.558 448.52 470.766 449.576 470.222C450.648 469.662 451.936 469.382 453.44 469.382C455.792 469.382 457.496 470.054 458.552 471.398C459.624 472.726 460.072 474.558 459.896 476.894H449.288L449.312 474.326H456.08C456.032 473.718 455.76 473.23 455.264 472.862C454.768 472.478 454.152 472.286 453.416 472.286C452.264 472.286 451.416 472.646 450.872 473.366C450.328 474.086 450.056 475.134 450.056 476.51C450.056 477.198 450.176 477.83 450.416 478.406C450.656 478.982 451.008 479.446 451.472 479.798C451.952 480.134 452.544 480.302 453.248 480.302C454 480.302 454.632 480.118 455.144 479.75C455.672 479.382 455.992 478.918 456.104 478.358H459.848C459.688 479.878 459.016 481.086 457.832 481.982C456.664 482.862 455.136 483.302 453.248 483.302ZM469.074 483.302C467.826 483.302 466.73 483.102 465.786 482.702C464.842 482.286 464.106 481.702 463.578 480.95C463.066 480.182 462.802 479.278 462.786 478.238H466.266C466.234 478.974 466.466 479.55 466.962 479.966C467.474 480.382 468.17 480.59 469.05 480.59C469.69 480.59 470.202 480.486 470.586 480.278C470.986 480.054 471.186 479.75 471.186 479.366C471.186 479.03 471.034 478.766 470.73 478.574C470.442 478.366 470.058 478.206 469.578 478.094C469.098 477.966 468.57 477.846 467.993 477.734C467.418 477.606 466.834 477.454 466.242 477.278C465.666 477.102 465.138 476.87 464.658 476.582C464.178 476.278 463.786 475.886 463.482 475.406C463.194 474.91 463.05 474.294 463.05 473.558C463.05 472.71 463.29 471.974 463.77 471.35C464.25 470.726 464.914 470.246 465.762 469.91C466.626 469.558 467.618 469.382 468.738 469.382C470.45 469.382 471.834 469.782 472.89 470.582C473.962 471.366 474.554 472.47 474.666 473.894H471.21C471.178 473.302 470.938 472.854 470.49 472.55C470.042 472.246 469.466 472.094 468.762 472.094C468.17 472.094 467.698 472.198 467.346 472.406C466.994 472.614 466.818 472.926 466.818 473.342C466.818 473.678 466.962 473.942 467.25 474.134C467.554 474.31 467.946 474.454 468.426 474.566C468.906 474.678 469.434 474.782 470.01 474.878C470.602 474.974 471.186 475.11 471.762 475.286C472.338 475.446 472.866 475.67 473.346 475.958C473.826 476.246 474.21 476.63 474.497 477.11C474.802 477.59 474.954 478.206 474.954 478.958C474.954 480.318 474.418 481.382 473.346 482.15C472.29 482.918 470.866 483.302 469.074 483.302ZM485.427 483.014C484.531 483.014 483.739 482.814 483.051 482.414C482.379 481.998 481.859 481.43 481.491 480.71C481.123 479.974 480.939 479.142 480.939 478.214V467.438L484.683 465.758V478.214C484.683 478.63 484.739 478.974 484.851 479.246C484.979 479.502 485.203 479.694 485.523 479.822C485.859 479.934 486.323 479.99 486.915 479.99H490.299V483.014H485.427ZM478.299 472.694V469.67H487.923V472.694H478.299ZM500.076 483.302C498.636 483.302 497.396 483.022 496.356 482.462C495.332 481.902 494.54 481.102 493.98 480.062C493.42 479.022 493.14 477.782 493.14 476.342C493.14 474.886 493.42 473.638 493.98 472.598C494.54 471.558 495.348 470.766 496.404 470.222C497.476 469.662 498.764 469.382 500.268 469.382C502.62 469.382 504.324 470.054 505.38 471.398C506.452 472.726 506.9 474.558 506.724 476.894H496.116L496.14 474.326H502.908C502.86 473.718 502.588 473.23 502.092 472.862C501.596 472.478 500.98 472.286 500.244 472.286C499.092 472.286 498.244 472.646 497.7 473.366C497.156 474.086 496.884 475.134 496.884 476.51C496.884 477.198 497.004 477.83 497.244 478.406C497.484 478.982 497.836 479.446 498.3 479.798C498.78 480.134 499.372 480.302 500.076 480.302C500.828 480.302 501.46 480.118 501.972 479.75C502.5 479.382 502.82 478.918 502.932 478.358H506.676C506.516 479.878 505.844 481.086 504.66 481.982C503.492 482.862 501.964 483.302 500.076 483.302ZM518.422 476.342V474.542C518.422 473.934 518.262 473.446 517.942 473.078C517.622 472.694 517.142 472.502 516.502 472.502C515.782 472.502 515.102 472.742 514.462 473.222C513.822 473.702 513.214 474.534 512.638 475.718L512.254 472.574C512.67 471.87 513.126 471.286 513.622 470.822C514.118 470.342 514.662 469.982 515.254 469.742C515.862 469.502 516.526 469.382 517.246 469.382C518.67 469.382 519.846 469.822 520.774 470.702C521.702 471.566 522.166 472.846 522.166 474.542V476.342H518.422ZM509.518 483.014V469.67H513.118L513.262 472.07V483.014H509.518Z" fill="#090909"/>
<path d="M393.564 507.206C392.732 507.206 392.002 507.051 391.372 506.742C390.743 506.422 390.252 505.958 389.9 505.35C389.559 504.731 389.388 503.974 389.388 503.078H390.46C390.46 504.091 390.743 504.875 391.308 505.43C391.874 505.974 392.62 506.246 393.548 506.246C394.359 506.246 395.015 506.054 395.516 505.67C396.028 505.286 396.284 504.752 396.284 504.07C396.284 503.611 396.162 503.243 395.916 502.966C395.671 502.688 395.346 502.464 394.94 502.294C394.546 502.123 394.108 501.974 393.628 501.846C393.159 501.718 392.684 501.584 392.204 501.446C391.735 501.307 391.298 501.131 390.892 500.918C390.498 500.694 390.178 500.406 389.932 500.054C389.687 499.702 389.564 499.248 389.564 498.694C389.564 498.086 389.719 497.558 390.028 497.11C390.338 496.651 390.77 496.294 391.324 496.038C391.89 495.782 392.551 495.654 393.308 495.654C394.076 495.654 394.754 495.792 395.34 496.07C395.927 496.347 396.386 496.731 396.716 497.222C397.058 497.712 397.234 498.299 397.244 498.982H396.172C396.162 498.512 396.034 498.102 395.788 497.75C395.543 497.387 395.202 497.11 394.764 496.918C394.338 496.715 393.852 496.614 393.308 496.614C392.53 496.614 391.9 496.8 391.42 497.174C390.951 497.547 390.716 498.043 390.716 498.662C390.716 499.078 390.839 499.408 391.084 499.654C391.33 499.899 391.65 500.102 392.044 500.262C392.45 500.411 392.887 500.55 393.356 500.678C393.836 500.795 394.311 500.928 394.78 501.078C395.26 501.216 395.698 501.403 396.092 501.638C396.498 501.872 396.823 502.182 397.068 502.566C397.314 502.95 397.436 503.44 397.436 504.038C397.436 504.71 397.266 505.28 396.924 505.75C396.583 506.219 396.119 506.582 395.532 506.838C394.946 507.083 394.29 507.206 393.564 507.206ZM407.107 507.014V500.486C407.107 500.006 407.016 499.638 406.835 499.382C406.653 499.115 406.392 498.982 406.051 498.982C405.56 498.982 405.123 499.28 404.739 499.878C404.365 500.464 404.12 501.344 404.003 502.518L403.875 501.062C403.96 500.102 404.227 499.366 404.675 498.854C405.123 498.342 405.645 498.086 406.243 498.086C406.829 498.086 407.283 498.294 407.602 498.71C407.923 499.126 408.083 499.707 408.083 500.454V507.014H407.107ZM399.443 507.014V498.278H400.355L400.419 500.038V507.014H399.443ZM403.266 507.014V500.486C403.266 499.995 403.171 499.622 402.979 499.366C402.797 499.11 402.525 498.982 402.163 498.982C401.672 498.982 401.24 499.28 400.867 499.878C400.493 500.475 400.248 501.355 400.131 502.518L400.067 501.046C400.131 500.406 400.269 499.867 400.483 499.43C400.707 498.992 400.979 498.662 401.299 498.438C401.629 498.203 401.981 498.086 402.355 498.086C402.973 498.086 403.443 498.294 403.763 498.71C404.093 499.126 404.259 499.707 404.259 500.454V507.014H403.266ZM416.857 507.014L416.793 504.742V501.398C416.793 500.64 416.553 500.043 416.073 499.606C415.593 499.158 414.937 498.934 414.105 498.934C413.315 498.934 412.665 499.126 412.153 499.51C411.641 499.894 411.363 500.416 411.321 501.078H410.297C410.339 500.448 410.526 499.915 410.857 499.478C411.198 499.03 411.646 498.688 412.201 498.454C412.766 498.208 413.406 498.086 414.121 498.086C414.878 498.086 415.534 498.219 416.089 498.486C416.643 498.752 417.07 499.136 417.369 499.638C417.667 500.139 417.817 500.736 417.817 501.43V507.014H416.857ZM413.449 507.206C412.883 507.206 412.382 507.11 411.945 506.918C411.507 506.726 411.166 506.443 410.921 506.07C410.686 505.686 410.569 505.232 410.569 504.71C410.569 503.803 410.915 503.099 411.609 502.598C412.302 502.096 413.273 501.846 414.521 501.846H416.985V502.694L414.457 502.71C413.561 502.71 412.862 502.886 412.361 503.238C411.859 503.579 411.609 504.059 411.609 504.678C411.609 505.211 411.785 505.616 412.137 505.894C412.499 506.171 412.974 506.31 413.561 506.31C414.297 506.31 414.947 506.107 415.513 505.702C416.078 505.286 416.531 504.715 416.873 503.99L417.001 504.838C416.713 505.584 416.27 506.166 415.673 506.582C415.075 506.998 414.334 507.206 413.449 507.206ZM427.311 501.622V500.662C427.311 500.16 427.146 499.76 426.815 499.462C426.495 499.152 426.042 498.998 425.455 498.998C424.676 498.998 423.994 499.307 423.407 499.926C422.82 500.534 422.399 501.419 422.143 502.582L421.935 501.254C422.138 500.56 422.41 499.979 422.751 499.51C423.092 499.04 423.498 498.688 423.967 498.454C424.447 498.208 424.97 498.086 425.535 498.086C426.378 498.086 427.055 498.32 427.567 498.79C428.079 499.248 428.335 499.872 428.335 500.662V501.622H427.311ZM421.343 507.014V498.278H422.271L422.367 500.55V507.014H421.343ZM435.701 507.014C435.179 507.014 434.752 506.923 434.421 506.742C434.091 506.56 433.845 506.294 433.685 505.942C433.525 505.59 433.445 505.163 433.445 504.662V496.502L434.469 495.782V504.662C434.469 504.918 434.507 505.163 434.581 505.398C434.656 505.632 434.8 505.819 435.013 505.958C435.237 506.096 435.573 506.166 436.021 506.166H438.917V507.014H435.701ZM431.141 499.126V498.278H437.637V499.126H431.141ZM456.114 507.206C455.228 507.206 454.455 507.019 453.794 506.646C453.143 506.262 452.636 505.728 452.274 505.046C451.911 504.363 451.73 503.563 451.73 502.646C451.73 501.728 451.911 500.928 452.274 500.246C452.647 499.552 453.164 499.019 453.826 498.646C454.487 498.272 455.255 498.086 456.13 498.086C456.78 498.086 457.372 498.208 457.906 498.454C458.45 498.699 458.898 499.051 459.25 499.51C459.602 499.958 459.81 500.496 459.874 501.126H458.85C458.754 500.454 458.455 499.931 457.954 499.558C457.452 499.174 456.844 498.982 456.13 498.982C455.447 498.982 454.855 499.136 454.354 499.446C453.852 499.744 453.463 500.166 453.186 500.71C452.908 501.254 452.77 501.899 452.77 502.646C452.77 503.776 453.068 504.672 453.666 505.334C454.274 505.984 455.09 506.31 456.114 506.31C456.54 506.31 456.946 506.224 457.33 506.054C457.714 505.872 458.044 505.622 458.322 505.302C458.61 504.982 458.802 504.603 458.898 504.166H459.938C459.81 504.795 459.554 505.339 459.17 505.798C458.796 506.246 458.343 506.592 457.81 506.838C457.287 507.083 456.722 507.206 456.114 507.206ZM466.184 507.206C465.299 507.206 464.536 507.024 463.896 506.662C463.256 506.288 462.765 505.76 462.424 505.078C462.083 504.384 461.912 503.574 461.912 502.646C461.912 501.696 462.083 500.886 462.424 500.214C462.765 499.531 463.256 499.008 463.896 498.646C464.536 498.272 465.299 498.086 466.184 498.086C467.517 498.086 468.563 498.491 469.32 499.302C470.088 500.112 470.472 501.227 470.472 502.646C470.472 503.574 470.296 504.384 469.944 505.078C469.603 505.76 469.112 506.288 468.472 506.662C467.832 507.024 467.069 507.206 466.184 507.206ZM466.184 506.31C467.187 506.31 467.976 505.984 468.552 505.334C469.128 504.672 469.416 503.776 469.416 502.646C469.416 501.504 469.128 500.608 468.552 499.958C467.976 499.307 467.187 498.982 466.184 498.982C465.181 498.982 464.392 499.307 463.816 499.958C463.251 500.608 462.968 501.504 462.968 502.646C462.968 503.776 463.251 504.672 463.816 505.334C464.392 505.984 465.181 506.31 466.184 506.31ZM479.39 507.014V501.43C479.39 500.694 479.172 500.107 478.734 499.67C478.308 499.222 477.748 498.998 477.054 498.998C476.276 498.998 475.582 499.296 474.974 499.894C474.377 500.48 473.966 501.371 473.742 502.566L473.534 500.966C473.822 500.048 474.292 499.339 474.942 498.838C475.604 498.336 476.345 498.086 477.166 498.086C477.828 498.086 478.398 498.224 478.878 498.502C479.369 498.779 479.748 499.168 480.014 499.67C480.281 500.171 480.414 500.752 480.414 501.414V507.014H479.39ZM472.878 507.014V498.278H473.838L473.918 500.534V507.014H472.878ZM487.733 507.014C487.21 507.014 486.783 506.923 486.453 506.742C486.122 506.56 485.877 506.294 485.717 505.942C485.557 505.59 485.477 505.163 485.477 504.662V496.502L486.501 495.782V504.662C486.501 504.918 486.538 505.163 486.613 505.398C486.687 505.632 486.831 505.819 487.045 505.958C487.269 506.096 487.605 506.166 488.053 506.166H490.949V507.014H487.733ZM483.173 499.126V498.278H489.669V499.126H483.173ZM500.155 501.622V500.662C500.155 500.16 499.989 499.76 499.659 499.462C499.339 499.152 498.885 498.998 498.299 498.998C497.52 498.998 496.837 499.307 496.251 499.926C495.664 500.534 495.243 501.419 494.987 502.582L494.779 501.254C494.981 500.56 495.253 499.979 495.595 499.51C495.936 499.04 496.341 498.688 496.811 498.454C497.291 498.208 497.813 498.086 498.379 498.086C499.221 498.086 499.899 498.32 500.411 498.79C500.923 499.248 501.179 499.872 501.179 500.662V501.622H500.155ZM494.187 507.014V498.278H495.115L495.211 500.55V507.014H494.187ZM510.513 507.014L510.449 504.742V501.398C510.449 500.64 510.209 500.043 509.729 499.606C509.249 499.158 508.593 498.934 507.761 498.934C506.972 498.934 506.321 499.126 505.809 499.51C505.297 499.894 505.02 500.416 504.977 501.078H503.953C503.996 500.448 504.182 499.915 504.513 499.478C504.854 499.03 505.302 498.688 505.857 498.454C506.422 498.208 507.062 498.086 507.777 498.086C508.534 498.086 509.19 498.219 509.745 498.486C510.3 498.752 510.726 499.136 511.025 499.638C511.324 500.139 511.473 500.736 511.473 501.43V507.014H510.513ZM507.105 507.206C506.54 507.206 506.038 507.11 505.601 506.918C505.164 506.726 504.822 506.443 504.577 506.07C504.342 505.686 504.225 505.232 504.225 504.71C504.225 503.803 504.572 503.099 505.265 502.598C505.958 502.096 506.929 501.846 508.177 501.846H510.641V502.694L508.113 502.71C507.217 502.71 506.518 502.886 506.017 503.238C505.516 503.579 505.265 504.059 505.265 504.678C505.265 505.211 505.441 505.616 505.793 505.894C506.156 506.171 506.63 506.31 507.217 506.31C507.953 506.31 508.604 506.107 509.169 505.702C509.734 505.286 510.188 504.715 510.529 503.99L510.657 504.838C510.369 505.584 509.926 506.166 509.329 506.582C508.732 506.998 507.99 507.206 507.105 507.206ZM518.551 507.206C517.666 507.206 516.893 507.019 516.231 506.646C515.581 506.262 515.074 505.728 514.711 505.046C514.349 504.363 514.167 503.563 514.167 502.646C514.167 501.728 514.349 500.928 514.711 500.246C515.085 499.552 515.602 499.019 516.263 498.646C516.925 498.272 517.693 498.086 518.567 498.086C519.218 498.086 519.81 498.208 520.343 498.454C520.887 498.699 521.335 499.051 521.687 499.51C522.039 499.958 522.247 500.496 522.311 501.126H521.287C521.191 500.454 520.893 499.931 520.391 499.558C519.89 499.174 519.282 498.982 518.567 498.982C517.885 498.982 517.293 499.136 516.791 499.446C516.29 499.744 515.901 500.166 515.623 500.71C515.346 501.254 515.207 501.899 515.207 502.646C515.207 503.776 515.506 504.672 516.103 505.334C516.711 505.984 517.527 506.31 518.551 506.31C518.978 506.31 519.383 506.224 519.767 506.054C520.151 505.872 520.482 505.622 520.759 505.302C521.047 504.982 521.239 504.603 521.335 504.166H522.375C522.247 504.795 521.991 505.339 521.607 505.798C521.234 506.246 520.781 506.592 520.247 506.838C519.725 507.083 519.159 507.206 518.551 507.206ZM529.358 507.014C528.835 507.014 528.408 506.923 528.078 506.742C527.747 506.56 527.502 506.294 527.342 505.942C527.182 505.59 527.102 505.163 527.102 504.662V496.502L528.126 495.782V504.662C528.126 504.918 528.163 505.163 528.238 505.398C528.312 505.632 528.456 505.819 528.67 505.958C528.894 506.096 529.23 506.166 529.678 506.166H532.574V507.014H529.358ZM524.798 499.126V498.278H531.294V499.126H524.798ZM434.965 529.206C434.08 529.206 433.317 529.024 432.677 528.662C432.037 528.288 431.547 527.76 431.205 527.078C430.864 526.384 430.693 525.574 430.693 524.646C430.693 523.696 430.864 522.886 431.205 522.214C431.547 521.531 432.037 521.008 432.677 520.646C433.317 520.272 434.08 520.086 434.965 520.086C436.299 520.086 437.344 520.491 438.101 521.302C438.869 522.112 439.253 523.227 439.253 524.646C439.253 525.574 439.077 526.384 438.725 527.078C438.384 527.76 437.893 528.288 437.253 528.662C436.613 529.024 435.851 529.206 434.965 529.206ZM434.965 528.31C435.968 528.31 436.757 527.984 437.333 527.334C437.909 526.672 438.197 525.776 438.197 524.646C438.197 523.504 437.909 522.608 437.333 521.958C436.757 521.307 435.968 520.982 434.965 520.982C433.963 520.982 433.173 521.307 432.597 521.958C432.032 522.608 431.749 523.504 431.749 524.646C431.749 525.776 432.032 526.672 432.597 527.334C433.173 527.984 433.963 528.31 434.965 528.31ZM448.124 523.622V522.662C448.124 522.16 447.958 521.76 447.628 521.462C447.308 521.152 446.854 520.998 446.268 520.998C445.489 520.998 444.806 521.307 444.22 521.926C443.633 522.534 443.212 523.419 442.956 524.582L442.748 523.254C442.95 522.56 443.222 521.979 443.564 521.51C443.905 521.04 444.31 520.688 444.78 520.454C445.26 520.208 445.782 520.086 446.348 520.086C447.19 520.086 447.868 520.32 448.38 520.79C448.892 521.248 449.148 521.872 449.148 522.662V523.622H448.124ZM442.156 529.014V520.278H443.084L443.18 522.55V529.014H442.156ZM462.44 529.014V517.846H470.28V518.806H463.496V522.742H468.328V523.702H463.496V528.054H470.344V529.014H462.44ZM476.622 529.206C475.694 529.206 474.889 528.971 474.206 528.502C473.524 528.022 472.996 527.35 472.622 526.486C472.249 525.611 472.062 524.592 472.062 523.43C472.062 522.267 472.249 521.254 472.622 520.39C472.996 519.515 473.524 518.843 474.206 518.374C474.889 517.894 475.694 517.654 476.622 517.654C477.55 517.654 478.356 517.894 479.038 518.374C479.721 518.843 480.249 519.515 480.622 520.39C480.996 521.254 481.182 522.267 481.182 523.43C481.182 524.592 480.996 525.611 480.622 526.486C480.249 527.35 479.721 528.022 479.038 528.502C478.356 528.971 477.55 529.206 476.622 529.206ZM476.622 528.246C477.316 528.246 477.918 528.048 478.43 527.654C478.942 527.248 479.337 526.683 479.614 525.958C479.902 525.232 480.046 524.39 480.046 523.43C480.046 522.47 479.902 521.627 479.614 520.902C479.337 520.176 478.942 519.616 478.43 519.222C477.918 518.816 477.316 518.614 476.622 518.614C475.929 518.614 475.326 518.816 474.814 519.222C474.302 519.627 473.902 520.192 473.614 520.918C473.337 521.632 473.198 522.47 473.198 523.43C473.198 524.39 473.337 525.232 473.614 525.958C473.902 526.683 474.302 527.248 474.814 527.654C475.326 528.048 475.929 528.246 476.622 528.246ZM484.069 525.766V524.806H490.021V525.766H484.069ZM486.293 517.846H487.733L491.605 529.014H490.485L487.685 520.918L487.029 518.838L486.341 520.95L483.541 529.014H482.421L486.293 517.846Z" fill="#090909"/>
<path d="M348 470.014C348 406.501 399.487 355.014 463 355.014H565V572.014H348V470.014Z" stroke="url(#paint1_linear_3053_6377)" stroke-width="10"/>
<path d="M31 355.014H133C196.513 355.014 248 406.501 248 470.014V572.014H31V355.014Z" fill="#FFF6ED"/>
<g clip-path="url(#clip1_3053_6377)">
<path fill-rule="evenodd" clip-rule="evenodd" d="M111.498 415.014C110.756 415.014 110.154 415.618 110.154 416.364V448.684C110.154 459.912 119.214 469.014 130.391 469.014C131.09 469.014 131.656 468.445 131.656 467.743V416.364C131.656 415.618 131.054 415.014 130.312 415.014H111.498ZM120.905 417.714C120.905 422.187 117.295 425.814 112.842 425.814C117.295 425.814 120.905 429.44 120.905 433.914C120.905 429.44 124.515 425.814 128.968 425.814C124.515 425.814 120.905 422.187 120.905 417.714Z" fill="#090909"/>
<path fill-rule="evenodd" clip-rule="evenodd" d="M135.688 469.014C134.946 469.014 134.344 468.409 134.344 467.664L134.344 435.343C134.344 424.115 143.404 415.014 154.581 415.014C155.28 415.014 155.846 415.583 155.846 416.284L155.846 467.664C155.846 468.409 155.244 469.014 154.502 469.014H135.688ZM145.095 466.314C145.095 461.84 141.485 458.214 137.032 458.214C141.485 458.214 145.095 454.587 145.095 450.114C145.095 454.587 148.705 458.214 153.158 458.214C148.705 458.214 145.095 461.84 145.095 466.314Z" fill="#090909"/>
</g>
<path d="M93.8 493.302C92.344 493.302 91.104 493.046 90.08 492.534C89.056 492.006 88.272 491.27 87.728 490.326C87.184 489.382 86.912 488.278 86.912 487.014V476.262H90.872V487.014C90.872 487.638 90.992 488.174 91.232 488.622C91.472 489.07 91.808 489.422 92.24 489.678C92.688 489.918 93.208 490.038 93.8 490.038C94.408 490.038 94.928 489.918 95.36 489.678C95.792 489.422 96.128 489.07 96.368 488.622C96.608 488.174 96.728 487.638 96.728 487.014V476.262H100.688V487.014C100.688 488.278 100.416 489.382 99.872 490.326C99.328 491.27 98.544 492.006 97.52 492.534C96.496 493.046 95.256 493.302 93.8 493.302ZM112.025 493.014V484.782C112.025 484.094 111.849 483.542 111.497 483.126C111.145 482.71 110.681 482.502 110.105 482.502C109.449 482.502 108.841 482.726 108.281 483.174C107.737 483.606 107.161 484.358 106.553 485.43L106.025 482.262C106.633 481.222 107.369 480.486 108.233 480.054C109.097 479.606 109.977 479.382 110.873 479.382C111.897 479.382 112.769 479.598 113.489 480.03C114.225 480.462 114.785 481.062 115.169 481.83C115.569 482.598 115.769 483.502 115.769 484.542V493.014H112.025ZM103.121 493.014V479.67H106.745L106.865 482.046V493.014H103.121ZM123.147 493.014V479.67H126.891V493.014H123.147ZM118.827 493.014V489.99H131.259V493.014H118.827ZM120.507 482.694V479.67H125.019V482.694H120.507ZM123.003 477.894V474.39H126.987V477.894H123.003ZM137.172 486.75V483.51H140.94C141.42 483.51 141.836 483.422 142.188 483.246C142.556 483.07 142.836 482.822 143.028 482.502C143.236 482.182 143.34 481.822 143.34 481.422C143.34 481.038 143.244 480.702 143.052 480.414C142.876 480.126 142.628 479.902 142.308 479.742C141.988 479.582 141.62 479.502 141.204 479.502H137.172V476.262H141.204C142.42 476.262 143.492 476.47 144.42 476.886C145.364 477.286 146.1 477.87 146.628 478.638C147.156 479.406 147.42 480.334 147.42 481.422C147.42 482.078 147.26 482.726 146.94 483.366C146.636 483.99 146.188 484.558 145.596 485.07C145.02 485.582 144.316 485.99 143.484 486.294C142.668 486.598 141.74 486.75 140.7 486.75H137.172ZM134.316 493.014V476.262H138.276V493.014H134.316ZM143.436 493.014C143.436 492.31 143.308 491.598 143.052 490.878C142.796 490.142 142.42 489.446 141.924 488.79C141.444 488.118 140.844 487.51 140.124 486.966C139.404 486.422 138.572 485.982 137.628 485.646L142.02 484.758C142.948 485.222 143.756 485.774 144.444 486.414C145.132 487.054 145.7 487.742 146.148 488.478C146.612 489.214 146.956 489.974 147.18 490.758C147.404 491.526 147.516 492.278 147.516 493.014H143.436ZM156.358 493.302C154.918 493.302 153.678 493.022 152.638 492.462C151.614 491.902 150.822 491.102 150.262 490.062C149.702 489.022 149.422 487.782 149.422 486.342C149.422 484.886 149.702 483.638 150.262 482.598C150.822 481.558 151.63 480.766 152.686 480.222C153.758 479.662 155.046 479.382 156.55 479.382C158.902 479.382 160.606 480.054 161.661 481.398C162.734 482.726 163.182 484.558 163.006 486.894H152.398L152.422 484.326H159.19C159.142 483.718 158.87 483.23 158.374 482.862C157.878 482.478 157.262 482.286 156.526 482.286C155.374 482.286 154.526 482.646 153.982 483.366C153.438 484.086 153.166 485.134 153.166 486.51C153.166 487.198 153.286 487.83 153.526 488.406C153.766 488.982 154.118 489.446 154.582 489.798C155.062 490.134 155.654 490.302 156.358 490.302C157.11 490.302 157.742 490.118 158.254 489.75C158.782 489.382 159.102 488.918 159.214 488.358H162.958C162.798 489.878 162.126 491.086 160.942 491.982C159.774 492.862 158.246 493.302 156.358 493.302ZM172.951 479.382C174.119 479.382 175.143 479.694 176.023 480.318C176.919 480.926 177.623 481.758 178.135 482.814C178.647 483.87 178.903 485.046 178.903 486.342C178.903 487.622 178.647 488.79 178.135 489.846C177.623 490.902 176.919 491.742 176.023 492.366C175.143 492.99 174.119 493.302 172.951 493.302C172.183 493.302 171.471 493.166 170.815 492.894C170.159 492.606 169.599 492.222 169.135 491.742V497.286H165.391V479.67H169.015L169.087 480.966C169.551 480.47 170.111 480.086 170.767 479.814C171.439 479.526 172.167 479.382 172.951 479.382ZM171.991 490.23C172.615 490.23 173.159 490.054 173.623 489.702C174.103 489.35 174.479 488.886 174.751 488.31C175.023 487.718 175.159 487.062 175.159 486.342C175.159 485.606 175.023 484.95 174.751 484.374C174.479 483.782 174.103 483.318 173.623 482.982C173.159 482.63 172.615 482.454 171.991 482.454C171.335 482.454 170.751 482.654 170.239 483.054C169.727 483.454 169.359 483.99 169.135 484.662V487.998C169.359 488.67 169.727 489.214 170.239 489.63C170.751 490.03 171.335 490.23 171.991 490.23Z" fill="#090909"/>
<path d="M65.5643 517.206C64.7323 517.206 64.0016 517.051 63.3723 516.742C62.7429 516.422 62.2523 515.958 61.9003 515.35C61.5589 514.731 61.3883 513.974 61.3883 513.078H62.4603C62.4603 514.091 62.7429 514.875 63.3083 515.43C63.8736 515.974 64.6203 516.246 65.5483 516.246C66.3589 516.246 67.0149 516.054 67.5163 515.67C68.0283 515.286 68.2843 514.752 68.2843 514.07C68.2843 513.611 68.1616 513.243 67.9163 512.966C67.6709 512.688 67.3456 512.464 66.9403 512.294C66.5456 512.123 66.1083 511.974 65.6283 511.846C65.1589 511.718 64.6843 511.584 64.2043 511.446C63.7349 511.307 63.2976 511.131 62.8923 510.918C62.4976 510.694 62.1776 510.406 61.9323 510.054C61.6869 509.702 61.5643 509.248 61.5643 508.694C61.5643 508.086 61.7189 507.558 62.0283 507.11C62.3376 506.651 62.7696 506.294 63.3243 506.038C63.8896 505.782 64.5509 505.654 65.3083 505.654C66.0763 505.654 66.7536 505.792 67.3403 506.07C67.9269 506.347 68.3856 506.731 68.7163 507.222C69.0576 507.712 69.2336 508.299 69.2443 508.982H68.1723C68.1616 508.512 68.0336 508.102 67.7883 507.75C67.5429 507.387 67.2016 507.11 66.7643 506.918C66.3376 506.715 65.8523 506.614 65.3083 506.614C64.5296 506.614 63.9003 506.8 63.4203 507.174C62.9509 507.547 62.7163 508.043 62.7163 508.662C62.7163 509.078 62.8389 509.408 63.0843 509.654C63.3296 509.899 63.6496 510.102 64.0443 510.262C64.4496 510.411 64.8869 510.55 65.3563 510.678C65.8363 510.795 66.3109 510.928 66.7803 511.078C67.2603 511.216 67.6976 511.403 68.0923 511.638C68.4976 511.872 68.8229 512.182 69.0683 512.566C69.3136 512.95 69.4363 513.44 69.4363 514.038C69.4363 514.71 69.2656 515.28 68.9243 515.75C68.5829 516.219 68.1189 516.582 67.5323 516.838C66.9456 517.083 66.2896 517.206 65.5643 517.206ZM79.1065 517.014V510.486C79.1065 510.006 79.0158 509.638 78.8345 509.382C78.6532 509.115 78.3918 508.982 78.0505 508.982C77.5598 508.982 77.1225 509.28 76.7385 509.878C76.3652 510.464 76.1198 511.344 76.0025 512.518L75.8745 511.062C75.9598 510.102 76.2265 509.366 76.6745 508.854C77.1225 508.342 77.6452 508.086 78.2425 508.086C78.8292 508.086 79.2825 508.294 79.6025 508.71C79.9225 509.126 80.0825 509.707 80.0825 510.454V517.014H79.1065ZM71.4425 517.014V508.278H72.3545L72.4185 510.038V517.014H71.4425ZM75.2665 517.014V510.486C75.2665 509.995 75.1705 509.622 74.9785 509.366C74.7972 509.11 74.5252 508.982 74.1625 508.982C73.6718 508.982 73.2398 509.28 72.8665 509.878C72.4932 510.475 72.2478 511.355 72.1305 512.518L72.0665 511.046C72.1305 510.406 72.2692 509.867 72.4825 509.43C72.7065 508.992 72.9785 508.662 73.2985 508.438C73.6292 508.203 73.9812 508.086 74.3545 508.086C74.9732 508.086 75.4425 508.294 75.7625 508.71C76.0932 509.126 76.2585 509.707 76.2585 510.454V517.014H75.2665ZM88.8568 517.014L88.7928 514.742V511.398C88.7928 510.64 88.5528 510.043 88.0728 509.606C87.5928 509.158 86.9368 508.934 86.1048 508.934C85.3154 508.934 84.6648 509.126 84.1528 509.51C83.6408 509.894 83.3634 510.416 83.3207 511.078H82.2968C82.3394 510.448 82.5261 509.915 82.8568 509.478C83.1981 509.03 83.6461 508.688 84.2008 508.454C84.7661 508.208 85.4061 508.086 86.1208 508.086C86.8781 508.086 87.5341 508.219 88.0888 508.486C88.6434 508.752 89.0701 509.136 89.3688 509.638C89.6674 510.139 89.8168 510.736 89.8168 511.43V517.014H88.8568ZM85.4488 517.206C84.8834 517.206 84.3821 517.11 83.9448 516.918C83.5074 516.726 83.1661 516.443 82.9208 516.07C82.6861 515.686 82.5688 515.232 82.5688 514.71C82.5688 513.803 82.9154 513.099 83.6088 512.598C84.3021 512.096 85.2728 511.846 86.5208 511.846H88.9848V512.694L86.4568 512.71C85.5608 512.71 84.8621 512.886 84.3608 513.238C83.8594 513.579 83.6088 514.059 83.6088 514.678C83.6088 515.211 83.7848 515.616 84.1368 515.894C84.4994 516.171 84.9741 516.31 85.5608 516.31C86.2968 516.31 86.9474 516.107 87.5128 515.702C88.0781 515.286 88.5314 514.715 88.8728 513.99L89.0008 514.838C88.7128 515.584 88.2701 516.166 87.6728 516.582C87.0754 516.998 86.3341 517.206 85.4488 517.206ZM99.311 511.622V510.662C99.311 510.16 99.1457 509.76 98.815 509.462C98.495 509.152 98.0417 508.998 97.455 508.998C96.6763 508.998 95.9937 509.307 95.407 509.926C94.8203 510.534 94.399 511.419 94.143 512.582L93.935 511.254C94.1377 510.56 94.4097 509.979 94.751 509.51C95.0923 509.04 95.4977 508.688 95.967 508.454C96.447 508.208 96.9697 508.086 97.535 508.086C98.3777 508.086 99.055 508.32 99.567 508.79C100.079 509.248 100.335 509.872 100.335 510.662V511.622H99.311ZM93.343 517.014V508.278H94.271L94.367 510.55V517.014H93.343ZM107.701 517.014C107.179 517.014 106.752 516.923 106.421 516.742C106.091 516.56 105.845 516.294 105.685 515.942C105.525 515.59 105.445 515.163 105.445 514.662V506.502L106.469 505.782V514.662C106.469 514.918 106.507 515.163 106.581 515.398C106.656 515.632 106.8 515.819 107.013 515.958C107.237 516.096 107.573 516.166 108.021 516.166H110.917V517.014H107.701ZM103.141 509.126V508.278H109.637V509.126H103.141ZM128.114 517.206C127.228 517.206 126.455 517.019 125.794 516.646C125.143 516.262 124.636 515.728 124.274 515.046C123.911 514.363 123.73 513.563 123.73 512.646C123.73 511.728 123.911 510.928 124.274 510.246C124.647 509.552 125.164 509.019 125.826 508.646C126.487 508.272 127.255 508.086 128.13 508.086C128.78 508.086 129.372 508.208 129.906 508.454C130.45 508.699 130.898 509.051 131.25 509.51C131.602 509.958 131.81 510.496 131.874 511.126H130.85C130.754 510.454 130.455 509.931 129.954 509.558C129.452 509.174 128.844 508.982 128.13 508.982C127.447 508.982 126.855 509.136 126.354 509.446C125.852 509.744 125.463 510.166 125.186 510.71C124.908 511.254 124.77 511.899 124.77 512.646C124.77 513.776 125.068 514.672 125.666 515.334C126.274 515.984 127.09 516.31 128.114 516.31C128.54 516.31 128.946 516.224 129.33 516.054C129.714 515.872 130.044 515.622 130.322 515.302C130.61 514.982 130.802 514.603 130.898 514.166H131.938C131.81 514.795 131.554 515.339 131.17 515.798C130.796 516.246 130.343 516.592 129.81 516.838C129.287 517.083 128.722 517.206 128.114 517.206ZM138.184 517.206C137.299 517.206 136.536 517.024 135.896 516.662C135.256 516.288 134.765 515.76 134.424 515.078C134.083 514.384 133.912 513.574 133.912 512.646C133.912 511.696 134.083 510.886 134.424 510.214C134.765 509.531 135.256 509.008 135.896 508.646C136.536 508.272 137.299 508.086 138.184 508.086C139.517 508.086 140.563 508.491 141.32 509.302C142.088 510.112 142.472 511.227 142.472 512.646C142.472 513.574 142.296 514.384 141.944 515.078C141.603 515.76 141.112 516.288 140.472 516.662C139.832 517.024 139.069 517.206 138.184 517.206ZM138.184 516.31C139.187 516.31 139.976 515.984 140.552 515.334C141.128 514.672 141.416 513.776 141.416 512.646C141.416 511.504 141.128 510.608 140.552 509.958C139.976 509.307 139.187 508.982 138.184 508.982C137.181 508.982 136.392 509.307 135.816 509.958C135.251 510.608 134.968 511.504 134.968 512.646C134.968 513.776 135.251 514.672 135.816 515.334C136.392 515.984 137.181 516.31 138.184 516.31ZM151.39 517.014V511.43C151.39 510.694 151.172 510.107 150.734 509.67C150.308 509.222 149.748 508.998 149.054 508.998C148.276 508.998 147.582 509.296 146.974 509.894C146.377 510.48 145.966 511.371 145.742 512.566L145.534 510.966C145.822 510.048 146.292 509.339 146.942 508.838C147.604 508.336 148.345 508.086 149.166 508.086C149.828 508.086 150.398 508.224 150.878 508.502C151.369 508.779 151.748 509.168 152.014 509.67C152.281 510.171 152.414 510.752 152.414 511.414V517.014H151.39ZM144.878 517.014V508.278H145.838L145.918 510.534V517.014H144.878ZM159.733 517.014C159.21 517.014 158.783 516.923 158.453 516.742C158.122 516.56 157.877 516.294 157.717 515.942C157.557 515.59 157.477 515.163 157.477 514.662V506.502L158.501 505.782V514.662C158.501 514.918 158.538 515.163 158.613 515.398C158.687 515.632 158.831 515.819 159.045 515.958C159.269 516.096 159.605 516.166 160.053 516.166H162.949V517.014H159.733ZM155.173 509.126V508.278H161.669V509.126H155.173ZM172.155 511.622V510.662C172.155 510.16 171.989 509.76 171.659 509.462C171.339 509.152 170.885 508.998 170.299 508.998C169.52 508.998 168.837 509.307 168.251 509.926C167.664 510.534 167.243 511.419 166.987 512.582L166.779 511.254C166.981 510.56 167.253 509.979 167.595 509.51C167.936 509.04 168.341 508.688 168.811 508.454C169.291 508.208 169.813 508.086 170.379 508.086C171.221 508.086 171.899 508.32 172.411 508.79C172.923 509.248 173.179 509.872 173.179 510.662V511.622H172.155ZM166.187 517.014V508.278H167.115L167.211 510.55V517.014H166.187ZM182.513 517.014L182.449 514.742V511.398C182.449 510.64 182.209 510.043 181.729 509.606C181.249 509.158 180.593 508.934 179.761 508.934C178.972 508.934 178.321 509.126 177.809 509.51C177.297 509.894 177.02 510.416 176.977 511.078H175.953C175.996 510.448 176.182 509.915 176.513 509.478C176.854 509.03 177.302 508.688 177.857 508.454C178.422 508.208 179.062 508.086 179.777 508.086C180.534 508.086 181.19 508.219 181.745 508.486C182.3 508.752 182.726 509.136 183.025 509.638C183.324 510.139 183.473 510.736 183.473 511.43V517.014H182.513ZM179.105 517.206C178.54 517.206 178.038 517.11 177.601 516.918C177.164 516.726 176.822 516.443 176.577 516.07C176.342 515.686 176.225 515.232 176.225 514.71C176.225 513.803 176.572 513.099 177.265 512.598C177.958 512.096 178.929 511.846 180.177 511.846H182.641V512.694L180.113 512.71C179.217 512.71 178.518 512.886 178.017 513.238C177.516 513.579 177.265 514.059 177.265 514.678C177.265 515.211 177.441 515.616 177.793 515.894C178.156 516.171 178.63 516.31 179.217 516.31C179.953 516.31 180.604 516.107 181.169 515.702C181.734 515.286 182.188 514.715 182.529 513.99L182.657 514.838C182.369 515.584 181.926 516.166 181.329 516.582C180.732 516.998 179.99 517.206 179.105 517.206ZM190.551 517.206C189.666 517.206 188.893 517.019 188.231 516.646C187.581 516.262 187.074 515.728 186.711 515.046C186.349 514.363 186.167 513.563 186.167 512.646C186.167 511.728 186.349 510.928 186.711 510.246C187.085 509.552 187.602 509.019 188.263 508.646C188.925 508.272 189.693 508.086 190.567 508.086C191.218 508.086 191.81 508.208 192.343 508.454C192.887 508.699 193.335 509.051 193.687 509.51C194.039 509.958 194.247 510.496 194.311 511.126H193.287C193.191 510.454 192.893 509.931 192.391 509.558C191.89 509.174 191.282 508.982 190.567 508.982C189.885 508.982 189.293 509.136 188.791 509.446C188.29 509.744 187.901 510.166 187.623 510.71C187.346 511.254 187.207 511.899 187.207 512.646C187.207 513.776 187.506 514.672 188.103 515.334C188.711 515.984 189.527 516.31 190.551 516.31C190.978 516.31 191.383 516.224 191.767 516.054C192.151 515.872 192.482 515.622 192.759 515.302C193.047 514.982 193.239 514.603 193.335 514.166H194.375C194.247 514.795 193.991 515.339 193.607 515.798C193.234 516.246 192.781 516.592 192.247 516.838C191.725 517.083 191.159 517.206 190.551 517.206ZM201.358 517.014C200.835 517.014 200.408 516.923 200.078 516.742C199.747 516.56 199.502 516.294 199.342 515.942C199.182 515.59 199.102 515.163 199.102 514.662V506.502L200.126 505.782V514.662C200.126 514.918 200.163 515.163 200.238 515.398C200.312 515.632 200.456 515.819 200.67 515.958C200.894 516.096 201.23 516.166 201.678 516.166H204.574V517.014H201.358ZM196.798 509.126V508.278H203.294V509.126H196.798Z" fill="#090909"/>
<path d="M31 355.014H133C196.513 355.014 248 406.501 248 470.014V572.014H31V355.014Z" stroke="url(#paint2_linear_3053_6377)" stroke-width="10"/>
<path d="M447.514 41.8198C461.183 28.1515 483.344 28.1515 497.012 41.8198L578.707 123.514C592.375 137.183 592.375 159.344 578.707 173.012L497.012 254.707C483.344 268.375 461.183 268.375 447.514 254.707L365.82 173.012C352.151 159.344 352.151 137.183 365.82 123.515L447.514 41.8198Z" fill="#F1FCFA"/>
<mask id="path-18-inside-1_3053_6377" fill="white">
<path fill-rule="evenodd" clip-rule="evenodd" d="M449.102 126.67C463.698 126.67 475.531 114.805 475.531 100.169C475.531 93.8006 473.291 87.9567 469.557 83.3867C484.024 83.5378 495.705 95.3441 495.705 109.886C495.705 124.522 483.873 136.387 469.276 136.387C461.031 136.387 453.668 132.601 448.821 126.669C448.914 126.67 449.008 126.67 449.102 126.67Z"/>
</mask>
<path fill-rule="evenodd" clip-rule="evenodd" d="M449.102 126.67C463.698 126.67 475.531 114.805 475.531 100.169C475.531 93.8006 473.291 87.9567 469.557 83.3867C484.024 83.5378 495.705 95.3441 495.705 109.886C495.705 124.522 483.873 136.387 469.276 136.387C461.031 136.387 453.668 132.601 448.821 126.669C448.914 126.67 449.008 126.67 449.102 126.67Z" fill="#090909"/>
<path d="M469.557 83.3867L469.641 75.3872L452.545 75.2086L463.362 88.4482L469.557 83.3867ZM448.821 126.669L448.904 118.669L431.809 118.491L442.626 131.73L448.821 126.669ZM467.531 100.169C467.531 110.407 459.26 118.67 449.102 118.67V134.67C468.137 134.67 483.531 119.203 483.531 100.169H467.531ZM463.362 88.4482C465.97 91.6403 467.531 95.7099 467.531 100.169H483.531C483.531 91.8913 480.612 84.2731 475.753 78.3253L463.362 88.4482ZM469.474 91.3863C479.54 91.4914 487.705 99.7143 487.705 109.886H503.705C503.705 90.974 488.509 75.5843 469.641 75.3872L469.474 91.3863ZM487.705 109.886C487.705 120.124 479.434 128.387 469.276 128.387V144.387C488.311 144.387 503.705 128.92 503.705 109.886H487.705ZM469.276 128.387C463.538 128.387 458.412 125.763 455.016 121.607L442.626 131.73C448.924 139.439 458.524 144.387 469.276 144.387V128.387ZM449.102 118.67C449.036 118.67 448.97 118.67 448.904 118.669L448.737 134.668C448.859 134.669 448.98 134.67 449.102 134.67V118.67Z" fill="#090909" mask="url(#path-18-inside-1_3053_6377)"/>
<path d="M457.343 160.387V157.675L463.607 149.491L465.935 146.875H462.287H457.631V143.635H470.711V146.347L464.447 154.531L462.119 157.147H465.767H470.711V160.387H457.343ZM473.025 160.387V143.635H476.985V147.163L476.625 150.283L479.097 147.163L481.977 143.635H486.657L476.985 155.251V160.387H473.025ZM482.505 160.387L477.585 151.339L480.969 149.467L487.113 160.387H482.505Z" fill="#090909"/>
<path d="M422.488 181.139V180.179H428.44V181.139H422.488ZM424.712 173.219H426.152L430.024 184.387H428.904L426.104 176.291L425.448 174.211L424.76 176.323L421.96 184.387H420.84L424.712 173.219ZM438.622 184.387V178.803C438.622 178.067 438.404 177.48 437.966 177.043C437.54 176.595 436.98 176.371 436.286 176.371C435.508 176.371 434.814 176.669 434.206 177.267C433.609 177.853 433.198 178.744 432.974 179.939L432.766 178.339C433.054 177.421 433.524 176.712 434.174 176.211C434.836 175.709 435.577 175.459 436.398 175.459C437.06 175.459 437.63 175.597 438.11 175.875C438.601 176.152 438.98 176.541 439.246 177.043C439.513 177.544 439.646 178.125 439.646 178.787V184.387H438.622ZM432.11 184.387V175.651H433.07L433.15 177.907V184.387H432.11ZM446.228 184.579C445.343 184.579 444.58 184.397 443.94 184.035C443.3 183.661 442.81 183.133 442.468 182.451C442.127 181.757 441.956 180.947 441.956 180.019C441.956 179.069 442.127 178.259 442.468 177.587C442.81 176.904 443.3 176.381 443.94 176.019C444.58 175.645 445.343 175.459 446.228 175.459C447.562 175.459 448.607 175.864 449.364 176.675C450.132 177.485 450.516 178.6 450.516 180.019C450.516 180.947 450.34 181.757 449.988 182.451C449.647 183.133 449.156 183.661 448.516 184.035C447.876 184.397 447.114 184.579 446.228 184.579ZM446.228 183.683C447.231 183.683 448.02 183.357 448.596 182.707C449.172 182.045 449.46 181.149 449.46 180.019C449.46 178.877 449.172 177.981 448.596 177.331C448.02 176.68 447.231 176.355 446.228 176.355C445.226 176.355 444.436 176.68 443.86 177.331C443.295 177.981 443.012 178.877 443.012 180.019C443.012 181.149 443.295 182.045 443.86 182.707C444.436 183.357 445.226 183.683 446.228 183.683ZM459.435 184.387V178.803C459.435 178.067 459.216 177.48 458.779 177.043C458.352 176.595 457.792 176.371 457.099 176.371C456.32 176.371 455.627 176.669 455.019 177.267C454.421 177.853 454.011 178.744 453.787 179.939L453.579 178.339C453.867 177.421 454.336 176.712 454.987 176.211C455.648 175.709 456.389 175.459 457.211 175.459C457.872 175.459 458.443 175.597 458.923 175.875C459.413 176.152 459.792 176.541 460.059 177.043C460.325 177.544 460.459 178.125 460.459 178.787V184.387H459.435ZM452.923 184.387V175.651H453.883L453.963 177.907V184.387H452.923ZM466.225 180.851L467.073 182.979L467.937 180.835L470.145 175.651H471.233L467.057 185.459C466.833 185.981 466.598 186.387 466.353 186.675C466.118 186.963 465.852 187.16 465.553 187.267C465.254 187.373 464.902 187.427 464.497 187.427H462.993V186.579H464.481C464.748 186.579 464.977 186.525 465.169 186.419C465.361 186.312 465.537 186.131 465.697 185.875C465.857 185.629 466.028 185.288 466.209 184.851L466.529 184.115L462.913 175.651H464.017L466.225 180.851ZM480.807 184.387V177.859C480.807 177.379 480.717 177.011 480.535 176.755C480.354 176.488 480.093 176.355 479.751 176.355C479.261 176.355 478.823 176.653 478.439 177.251C478.066 177.837 477.821 178.717 477.703 179.891L477.575 178.435C477.661 177.475 477.927 176.739 478.375 176.227C478.823 175.715 479.346 175.459 479.943 175.459C480.53 175.459 480.983 175.667 481.303 176.083C481.623 176.499 481.783 177.08 481.783 177.827V184.387H480.807ZM473.143 184.387V175.651H474.055L474.119 177.411V184.387H473.143ZM476.967 184.387V177.859C476.967 177.368 476.871 176.995 476.679 176.739C476.498 176.483 476.226 176.355 475.863 176.355C475.373 176.355 474.941 176.653 474.567 177.251C474.194 177.848 473.949 178.728 473.831 179.891L473.767 178.419C473.831 177.779 473.97 177.24 474.183 176.803C474.407 176.365 474.679 176.035 474.999 175.811C475.33 175.576 475.682 175.459 476.055 175.459C476.674 175.459 477.143 175.667 477.463 176.083C477.794 176.499 477.959 177.08 477.959 177.827V184.387H476.967ZM487.485 184.387V175.651H488.525V184.387H487.485ZM484.013 184.387V183.539H491.629V184.387H484.013ZM485.197 176.499V175.651H487.997V176.499H485.197ZM487.357 173.939V172.579H488.605V173.939H487.357ZM494.58 184.387V183.635L499.284 178.147L500.756 176.483L498.532 176.499H494.836V175.651H502.02V176.403L497.332 181.875L495.828 183.555L498.068 183.539H502.02V184.387H494.58ZM508.762 184.579C507.887 184.579 507.13 184.397 506.49 184.035C505.85 183.661 505.359 183.133 505.018 182.451C504.677 181.768 504.506 180.952 504.506 180.003C504.506 179.075 504.677 178.269 505.018 177.587C505.359 176.904 505.85 176.381 506.49 176.019C507.141 175.645 507.909 175.459 508.794 175.459C510.095 175.459 511.087 175.816 511.77 176.531C512.463 177.245 512.778 178.232 512.714 179.491H505.322L505.338 178.627L511.658 178.643C511.615 177.928 511.333 177.368 510.81 176.963C510.298 176.557 509.626 176.355 508.794 176.355C507.77 176.355 506.97 176.68 506.394 177.331C505.829 177.981 505.546 178.877 505.546 180.019C505.546 180.755 505.674 181.4 505.93 181.955C506.186 182.509 506.554 182.936 507.034 183.235C507.514 183.533 508.09 183.683 508.762 183.683C509.583 183.683 510.266 183.491 510.81 183.107C511.354 182.712 511.69 182.184 511.818 181.523H512.842C512.682 182.472 512.239 183.219 511.514 183.763C510.789 184.307 509.871 184.579 508.762 184.579ZM519.328 184.579C518.582 184.579 517.926 184.445 517.36 184.179C516.806 183.912 516.374 183.533 516.064 183.043C515.755 182.541 515.595 181.949 515.584 181.267H516.592C516.603 182.024 516.859 182.621 517.36 183.059C517.862 183.496 518.518 183.715 519.328 183.715C520.054 183.715 520.635 183.571 521.072 183.283C521.51 182.995 521.728 182.611 521.728 182.131C521.728 181.768 521.616 181.475 521.392 181.251C521.179 181.027 520.891 180.856 520.528 180.739C520.176 180.611 519.787 180.504 519.36 180.419C518.934 180.333 518.507 180.237 518.08 180.131C517.654 180.024 517.264 179.891 516.912 179.731C516.56 179.571 516.272 179.347 516.048 179.059C515.835 178.771 515.728 178.397 515.728 177.939C515.728 177.469 515.856 177.048 516.112 176.675C516.379 176.301 516.763 176.008 517.264 175.795C517.766 175.571 518.374 175.459 519.088 175.459C520.155 175.459 521.003 175.709 521.632 176.211C522.272 176.701 522.614 177.368 522.656 178.211H521.648C521.616 177.613 521.371 177.149 520.912 176.819C520.464 176.488 519.851 176.323 519.072 176.323C518.304 176.323 517.728 176.483 517.344 176.803C516.96 177.112 516.768 177.48 516.768 177.907C516.768 178.248 516.875 178.515 517.088 178.707C517.312 178.899 517.6 179.048 517.952 179.155C518.315 179.251 518.71 179.336 519.136 179.411C519.563 179.485 519.99 179.576 520.416 179.683C520.843 179.779 521.232 179.923 521.584 180.115C521.947 180.296 522.235 180.547 522.448 180.867C522.672 181.176 522.784 181.592 522.784 182.115C522.784 182.872 522.47 183.475 521.84 183.923C521.211 184.36 520.374 184.579 519.328 184.579ZM456.283 197.459C456.944 197.459 457.541 197.597 458.075 197.875C458.619 198.152 459.045 198.536 459.355 199.027V194.675H460.395V206.387H459.435L459.387 204.947C459.088 205.437 458.661 205.832 458.107 206.131C457.563 206.429 456.955 206.579 456.283 206.579C455.493 206.579 454.8 206.392 454.203 206.019C453.605 205.635 453.136 205.101 452.795 204.419C452.464 203.725 452.299 202.925 452.299 202.019C452.299 201.101 452.464 200.301 452.795 199.619C453.136 198.936 453.605 198.408 454.203 198.035C454.8 197.651 455.493 197.459 456.283 197.459ZM456.443 205.683C457.093 205.683 457.68 205.507 458.203 205.155C458.725 204.792 459.109 204.301 459.355 203.683V200.339C459.109 199.709 458.725 199.224 458.203 198.883C457.68 198.531 457.093 198.355 456.443 198.355C455.813 198.355 455.269 198.509 454.811 198.819C454.352 199.117 453.989 199.544 453.723 200.099C453.467 200.643 453.339 201.283 453.339 202.019C453.339 202.744 453.467 203.384 453.723 203.939C453.989 204.483 454.352 204.909 454.811 205.219C455.269 205.528 455.813 205.683 456.443 205.683ZM469.745 206.387L469.681 204.115V200.771C469.681 200.013 469.441 199.416 468.961 198.979C468.481 198.531 467.825 198.307 466.993 198.307C466.204 198.307 465.553 198.499 465.041 198.883C464.529 199.267 464.252 199.789 464.209 200.451H463.185C463.228 199.821 463.414 199.288 463.745 198.851C464.086 198.403 464.534 198.061 465.089 197.827C465.654 197.581 466.294 197.459 467.009 197.459C467.766 197.459 468.422 197.592 468.977 197.859C469.532 198.125 469.958 198.509 470.257 199.011C470.556 199.512 470.705 200.109 470.705 200.803V206.387H469.745ZM466.337 206.579C465.772 206.579 465.27 206.483 464.833 206.291C464.396 206.099 464.054 205.816 463.809 205.443C463.574 205.059 463.457 204.605 463.457 204.083C463.457 203.176 463.804 202.472 464.497 201.971C465.19 201.469 466.161 201.219 467.409 201.219H469.873V202.067L467.345 202.083C466.449 202.083 465.75 202.259 465.249 202.611C464.748 202.952 464.497 203.432 464.497 204.051C464.497 204.584 464.673 204.989 465.025 205.267C465.388 205.544 465.862 205.683 466.449 205.683C467.185 205.683 467.836 205.48 468.401 205.075C468.966 204.659 469.42 204.088 469.761 203.363L469.889 204.211C469.601 204.957 469.158 205.539 468.561 205.955C467.964 206.371 467.222 206.579 466.337 206.579ZM478.183 206.387C477.661 206.387 477.234 206.296 476.903 206.115C476.573 205.933 476.327 205.667 476.167 205.315C476.007 204.963 475.927 204.536 475.927 204.035V195.875L476.951 195.155V204.035C476.951 204.291 476.989 204.536 477.063 204.771C477.138 205.005 477.282 205.192 477.495 205.331C477.719 205.469 478.055 205.539 478.503 205.539H481.399V206.387H478.183ZM473.623 198.499V197.651H480.119V198.499H473.623ZM490.557 206.387L490.493 204.115V200.771C490.493 200.013 490.253 199.416 489.773 198.979C489.293 198.531 488.637 198.307 487.805 198.307C487.016 198.307 486.365 198.499 485.853 198.883C485.341 199.267 485.064 199.789 485.021 200.451H483.997C484.04 199.821 484.227 199.288 484.557 198.851C484.899 198.403 485.347 198.061 485.901 197.827C486.467 197.581 487.107 197.459 487.821 197.459C488.579 197.459 489.235 197.592 489.789 197.859C490.344 198.125 490.771 198.509 491.069 199.011C491.368 199.512 491.517 200.109 491.517 200.803V206.387H490.557ZM487.149 206.579C486.584 206.579 486.083 206.483 485.645 206.291C485.208 206.099 484.867 205.816 484.621 205.443C484.387 205.059 484.269 204.605 484.269 204.083C484.269 203.176 484.616 202.472 485.309 201.971C486.003 201.469 486.973 201.219 488.221 201.219H490.685V202.067L488.157 202.083C487.261 202.083 486.563 202.259 486.061 202.611C485.56 202.952 485.309 203.432 485.309 204.051C485.309 204.584 485.485 204.989 485.837 205.267C486.2 205.544 486.675 205.683 487.261 205.683C487.997 205.683 488.648 205.48 489.213 205.075C489.779 204.659 490.232 204.088 490.573 203.363L490.701 204.211C490.413 204.957 489.971 205.539 489.373 205.955C488.776 206.371 488.035 206.579 487.149 206.579Z" fill="#090909"/>
<path d="M447.514 41.8198C461.183 28.1515 483.344 28.1515 497.012 41.8198L578.707 123.514C592.375 137.183 592.375 159.344 578.707 173.012L497.012 254.707C483.344 268.375 461.183 268.375 447.514 254.707L365.82 173.012C352.151 159.344 352.151 137.183 365.82 123.515L447.514 41.8198Z" stroke="url(#paint3_linear_3053_6377)" stroke-width="10"/>
<path d="M334.707 144.707C335.098 144.317 335.098 143.683 334.707 143.293L328.343 136.929C327.953 136.538 327.319 136.538 326.929 136.929C326.538 137.319 326.538 137.953 326.929 138.343L332.586 144L326.929 149.657C326.538 150.047 326.538 150.681 326.929 151.071C327.319 151.462 327.953 151.462 328.343 151.071L334.707 144.707ZM268 145L334 145L334 143L268 143L268 145Z" fill="#E64810"/>
<path d="M471.293 345.707C471.683 346.098 472.317 346.098 472.707 345.707L479.071 339.343C479.462 338.953 479.462 338.319 479.071 337.929C478.681 337.538 478.047 337.538 477.657 337.929L472 343.586L466.343 337.929C465.953 337.538 465.319 337.538 464.929 337.929C464.538 338.319 464.538 338.953 464.929 339.343L471.293 345.707ZM471 279L471 345L473 345L473 279L471 279Z" fill="#E64810"/>
<path d="M139.707 273.293C139.317 272.902 138.683 272.902 138.293 273.293L131.929 279.657C131.538 280.047 131.538 280.681 131.929 281.071C132.319 281.462 132.953 281.462 133.343 281.071L139 275.414L144.657 281.071C145.047 281.462 145.681 281.462 146.071 281.071C146.462 280.681 146.462 280.047 146.071 279.657L139.707 273.293ZM140 340L140 274L138 274L138 340L140 340Z" fill="#E64810"/>
<path d="M264.293 485.293C263.902 485.683 263.902 486.317 264.293 486.707L270.657 493.071C271.047 493.462 271.681 493.462 272.071 493.071C272.462 492.681 272.462 492.047 272.071 491.657L266.414 486L272.071 480.343C272.462 479.953 272.462 479.319 272.071 478.929C271.681 478.538 271.047 478.538 270.657 478.929L264.293 485.293ZM331 485L265 485L265 487L331 487L331 485Z" fill="#E64810"/>
<defs>
<linearGradient id="paint0_linear_3053_6377" x1="237.169" y1="259.014" x2="1.61747" y2="182.002" gradientUnits="userSpaceOnUse">
<stop stop-color="#D2F6F0"/>
<stop offset="1" stop-color="#FEE4CB"/>
</linearGradient>
<linearGradient id="paint1_linear_3053_6377" x1="554.169" y1="577.014" x2="318.617" y2="500.002" gradientUnits="userSpaceOnUse">
<stop stop-color="#D2F6F0"/>
<stop offset="1" stop-color="#FEE4CB"/>
</linearGradient>
<linearGradient id="paint2_linear_3053_6377" x1="237.169" y1="577.014" x2="1.61747" y2="500.002" gradientUnits="userSpaceOnUse">
<stop stop-color="#D2F6F0"/>
<stop offset="1" stop-color="#FEE4CB"/>
</linearGradient>
<linearGradient id="paint3_linear_3053_6377" x1="462.621" y1="276.884" x2="366.056" y2="86.5049" gradientUnits="userSpaceOnUse">
<stop stop-color="#D2F6F0"/>
<stop offset="1" stop-color="#FEE4CB"/>
</linearGradient>
<clipPath id="clip0_3053_6377">
<rect width="64" height="64" fill="white" transform="translate(107.5 76.0137)"/>
</clipPath>
<clipPath id="clip1_3053_6377">
<rect width="45.6923" height="54" fill="white" transform="translate(110.154 415.014)"/>
</clipPath>
</defs>
</svg>
